<?xml version="1.0" encoding="UTF-8"?>
<svg width="635px" height="253px" viewBox="0 0 635 253" version="1.1" xmlns="http://www.w3.org/2000/svg" xmlns:xlink="http://www.w3.org/1999/xlink">
    <!-- Generator: Sketch 46.2 (44496) - http://www.bohemiancoding.com/sketch -->
    <title>H1</title>
    <desc>Created with Sketch.</desc>
    <defs>
        <radialGradient cx="2.04044596%" cy="7.73283189%" fx="2.04044596%" fy="7.73283189%" r="151.667163%" gradientTransform="translate(0.020404,0.077328),scale(0.357983,1.000000),rotate(17.428986),scale(1.000000,0.492587),translate(-0.020404,-0.077328)" id="radialGradient-1">
            <stop stop-color="#E8A606" offset="0%"></stop>
            <stop stop-color="#FF4343" offset="84.4985651%"></stop>
            <stop stop-color="#FF1757" offset="100%"></stop>
        </radialGradient>
        <path d="M160.675507,74.1622028 L150.30658,74.1622028 L150.30658,74.1622028 C148.554594,74.1622028 147.006492,73.0220761 146.486689,71.3489766 L143.930462,63.1212007 L121.166093,63.1212007 L118.433504,71.4140402 L118.433504,71.4140402 C117.893088,73.0540899 116.361231,74.1622028 114.634438,74.1622028 L104.213155,74.1622028 L104.213155,74.1622028 C102.004016,74.1622028 100.213155,72.3713418 100.213155,70.1622028 C100.213155,69.6967262 100.294401,69.2348216 100.453236,68.7972829 L124.471333,2.63508006 L124.471333,2.63508006 C125.045564,1.0532575 126.548427,2.97366539e-15 128.231253,2.66453526e-15 L136.657409,0 L136.657409,8.8817842e-16 C138.340235,-2.41025128e-15 139.843098,1.0532575 140.417329,2.63508006 L164.435426,68.7972829 L164.435426,68.7972829 C165.189251,70.873829 164.116973,73.1682977 162.040427,73.9221222 C161.602888,74.0809568 161.140983,74.1622028 160.675507,74.1622028 Z M139.148905,47.9137827 L132.912092,28.1233073 L126.259491,47.9137827 L139.148905,47.9137827 Z M239.577594,70.1622028 L239.577594,4 L239.577594,4 C239.577594,1.790861 237.786733,-8.49901461e-16 235.577594,-4.4408921e-16 L225.386888,0 L225.386888,0 C223.177749,4.05812251e-16 221.386888,1.790861 221.386888,4 L221.386888,28.5399488 L202.052766,28.5399488 L202.052766,4 L202.052766,4 C202.052766,1.790861 200.261905,-4.05812251e-16 198.052766,0 L187.86206,0 L187.86206,-4.4408921e-16 C185.652921,-3.82769592e-17 183.86206,1.790861 183.86206,4 L183.86206,70.1622028 L183.86206,70.1622028 C183.86206,72.3713418 185.652921,74.1622028 187.86206,74.1622028 L198.052766,74.1622028 L198.052766,74.1622028 C200.261905,74.1622028 202.052766,72.3713418 202.052766,70.1622028 L202.052766,44.7889708 L221.386888,44.7889708 L221.386888,70.1622028 L221.386888,70.1622028 C221.386888,72.3713418 223.177749,74.1622028 225.386888,74.1622028 L235.577594,74.1622028 L235.577594,74.1622028 C237.786733,74.1622028 239.577594,72.3713418 239.577594,70.1622028 Z M328.676071,85.1613 L328.676071,61.9131809 L328.676071,61.9131809 C328.676071,59.7040419 326.88521,57.9131809 324.676071,57.9131809 L320.256373,57.9131809 L320.256373,4 L320.256373,4 C320.256373,1.790861 318.465512,-4.05812251e-16 316.256373,0 L306.065667,0 L306.065667,0 C303.856528,4.05812251e-16 302.065667,1.790861 302.065667,4 L302.065667,57.9131809 L282.731546,57.9131809 L282.731546,4 L282.731546,4 C282.731546,1.790861 280.940685,-4.05812251e-16 278.731546,0 L268.54084,0 L268.54084,0 C266.331701,4.05812251e-16 264.54084,1.790861 264.54084,4 L264.54084,70.1622028 L264.54084,70.1622028 C264.54084,72.3713418 266.331701,74.1622028 268.54084,74.1622028 L311.212994,74.1622028 L311.212994,85.1613 L311.212994,85.1613 C311.212994,87.370439 313.003855,89.1613 315.212994,89.1613 L324.676071,89.1613 L324.676071,89.1613 C326.88521,89.1613 328.676071,87.370439 328.676071,85.1613 Z M427.75345,70.1622028 L427.75345,4 L427.75345,4 C427.75345,1.790861 425.962589,-4.05812251e-16 423.75345,0 L413.562744,0 L413.562744,0 C411.353605,4.05812251e-16 409.562744,1.790861 409.562744,4 L409.562744,70.1622028 L409.562744,70.1622028 C409.562744,72.3713418 411.353605,74.1622028 413.562744,74.1622028 L423.75345,74.1622028 L423.75345,74.1622028 C425.962589,74.1622028 427.75345,72.3713418 427.75345,70.1622028 Z M402.70225,50.3094719 C402.70225,64.1628047 392.619401,74.1622028 377.96289,74.1622028 L352.130132,74.1622028 L352.130132,74.1622028 C349.920993,74.1622028 348.130132,72.3713418 348.130132,70.1622028 L348.130132,4 L348.130132,4 C348.130132,1.790861 349.920993,4.05812251e-16 352.130132,0 L362.320838,0 L362.320838,0 C364.529977,-4.05812251e-16 366.320838,1.790861 366.320838,4 L366.320838,26.4567409 L377.96289,26.4567409 C392.723348,26.4567409 402.70225,36.456139 402.70225,50.3094719 Z M384.511544,50.3094719 C384.511544,46.0388956 381.185243,42.8099233 376.61158,42.8099233 L366.320838,42.8099233 L366.320838,57.9131809 L376.61158,57.9131809 C381.185243,57.9131809 384.511544,54.5800481 384.511544,50.3094719 Z M543.582271,70.1622028 L543.582271,4 L543.582271,4 C543.582271,1.790861 541.79141,-4.05812251e-16 539.582271,0 L529.969756,0 L529.969756,-2.66453526e-15 C528.550376,-4.92512377e-15 527.237297,0.752184059 526.519291,1.9765636 L503.978505,40.4142341 L503.978505,4 L503.978505,4 C503.978505,1.790861 502.187644,-4.05812251e-16 499.978505,0 L489.787799,0 L489.787799,0 C487.57866,4.05812251e-16 485.787799,1.790861 485.787799,4 L485.787799,70.1622028 L485.787799,70.1622028 C485.787799,72.3713418 487.57866,74.1622028 489.787799,74.1622028 L499.400314,74.1622028 L499.400314,74.1622028 C500.819693,74.1622028 502.132773,73.4100188 502.850779,72.1856392 L525.391565,33.7479687 L525.391565,70.1622028 L525.391565,70.1622028 C525.391565,72.3713418 527.182426,74.1622028 529.391565,74.1622028 L539.582271,74.1622028 L539.582271,74.1622028 C541.79141,74.1622028 543.582271,72.3713418 543.582271,70.1622028 Z M18.1907059,208.375038 L18.1907059,173.523209 L40.019553,212.375038 L54.305351,212.375038 L54.305351,212.375038 C56.51449,212.375038 58.305351,210.584177 58.305351,208.375038 C58.305351,207.639826 58.1027206,206.918837 57.7197175,206.291267 L37.212987,172.689926 L55.1545131,144.352578 L55.1545131,144.352578 C56.3362608,142.486093 55.7811712,140.015012 53.9146859,138.833264 C53.274586,138.427991 52.5325533,138.212835 51.7749424,138.212835 L38.148509,138.212835 L18.1907059,173.314889 L18.1907059,142.212835 L18.1907059,142.212835 C18.1907059,140.003696 16.3998449,138.212835 14.1907059,138.212835 L4,138.212835 L4,138.212835 C1.790861,138.212835 -2.705415e-16,140.003696 0,142.212835 L0,208.375038 L0,208.375038 C8.11897984e-15,210.584177 1.790861,212.375038 4,212.375038 L14.1907059,212.375038 L14.1907059,212.375038 C16.3998449,212.375038 18.1907059,210.584177 18.1907059,208.375038 Z M129.741712,168.731831 L129.741712,178.314588 C129.741712,187.897344 129.429871,197.16762 122.257536,204.667168 C116.956244,210.29183 110.095749,213 101.676051,213 C93.0484593,213 86.2919114,210.29183 80.886673,204.667168 C73.5064438,196.959299 73.4024969,187.168221 73.4024969,178.106267 L73.4024969,172.689926 C73.4024969,158.211631 75.0656471,151.962007 80.886673,145.920704 C86.1879645,140.296043 93.0484593,137.587872 101.468157,137.587872 C109.991803,137.587872 116.852297,140.296043 122.257536,145.920704 C127.45488,151.337045 129.741712,158.00331 129.741712,168.731831 Z M111.551006,177.272984 L111.551006,172.169124 C111.551006,165.190378 110.823378,159.669877 108.848387,157.065867 C107.185236,154.982659 104.586564,153.836894 101.572104,153.836894 C98.5576445,153.836894 95.9589722,154.982659 94.295822,157.065867 C92.320831,159.669877 91.5932028,165.190378 91.5932028,172.169124 L91.5932028,177.272984 C91.5932028,186.75158 92.320831,190.917996 94.295822,193.417845 C95.9589722,195.501053 98.6615914,196.750978 101.572104,196.750978 C104.482617,196.750978 107.185236,195.501053 108.848387,193.417845 C110.823378,190.917996 111.551006,186.75158 111.551006,177.272984 Z M170.504885,208.375038 L170.504885,173.523209 L192.333732,212.375038 L206.61953,212.375038 L206.61953,212.375038 C208.828669,212.375038 210.61953,210.584177 210.61953,208.375038 C210.61953,207.639826 210.4169,206.918837 210.033897,206.291267 L189.527166,172.689926 L207.468692,144.352578 L207.468692,144.352578 C208.65044,142.486093 208.09535,140.015012 206.228865,138.833264 C205.588765,138.427991 204.846732,138.212835 204.089121,138.212835 L190.462688,138.212835 L170.504885,173.314889 L170.504885,142.212835 L170.504885,142.212835 C170.504885,140.003696 168.714024,138.212835 166.504885,138.212835 L156.314179,138.212835 L156.314179,138.212835 C154.10504,138.212835 152.314179,140.003696 152.314179,142.212835 L152.314179,208.375038 L152.314179,208.375038 C152.314179,210.584177 154.10504,212.375038 156.314179,212.375038 L166.504885,212.375038 L166.504885,212.375038 C168.714024,212.375038 170.504885,210.584177 170.504885,208.375038 Z M280.392741,150.461857 L280.392741,142.212835 L280.392741,142.212835 C280.392741,140.003696 278.60188,138.212835 276.392741,138.212835 L229.820623,138.212835 L229.820623,138.212835 C227.611484,138.212835 225.820623,140.003696 225.820623,142.212835 L225.820623,150.461857 L225.820623,150.461857 C225.820623,152.670996 227.611484,154.461857 229.820623,154.461857 L244.011329,154.461857 L244.011329,208.375038 L244.011329,208.375038 C244.011329,210.584177 245.80219,212.375038 248.011329,212.375038 L258.202035,212.375038 L258.202035,212.375038 C260.411174,212.375038 262.202035,210.584177 262.202035,208.375038 L262.202035,154.461857 L276.392741,154.461857 L276.392741,154.461857 C278.60188,154.461857 280.392741,152.670996 280.392741,150.461857 Z M351.300512,208.375038 C351.300512,210.584177 349.509651,212.375038 347.300512,212.375038 L304.990217,212.375038 C302.781078,212.375038 300.990217,210.584177 300.990217,208.375038 L300.990217,142.212835 C300.990217,140.003696 302.781078,138.212835 304.990217,138.212835 L347.300512,138.212835 C349.509651,138.212835 351.300512,140.003696 351.300512,142.212835 L351.300512,150.461857 C351.300512,152.670996 349.509651,154.461857 347.300512,154.461857 L319.180923,154.461857 L319.180923,166.856944 L342.622902,166.856944 C344.832041,166.856944 346.622902,168.647805 346.622902,170.856944 L346.622902,179.105966 C346.622902,181.315105 344.832041,183.105966 342.622902,183.105966 L319.180923,183.105966 L319.180923,196.126016 L347.300512,196.126016 C349.509651,196.126016 351.300512,197.916877 351.300512,200.126016 L351.300512,208.375038 Z M403,127.94908 C396.372583,127.94908 391,122.576497 391,115.94908 C391,109.321663 396.372583,103.94908 403,103.94908 C409.627417,103.94908 415,109.321663 415,115.94908 C415,122.576497 409.627417,127.94908 403,127.94908 Z M431.979291,208.375038 L431.979291,142.212835 L431.979291,142.212835 C431.979291,140.003696 430.18843,138.212835 427.979291,138.212835 L418.366776,138.212835 L418.366776,138.212835 C416.947397,138.212835 415.634318,138.965019 414.916312,140.189398 L392.375526,178.627069 L392.375526,142.212835 L392.375526,142.212835 C392.375526,140.003696 390.584665,138.212835 388.375526,138.212835 L378.18482,138.212835 L378.18482,138.212835 C375.975681,138.212835 374.18482,140.003696 374.18482,142.212835 L374.18482,208.375038 L374.18482,208.375038 C374.18482,210.584177 375.975681,212.375038 378.18482,212.375038 L387.797335,212.375038 L387.797335,212.375038 C389.216714,212.375038 390.529793,211.622854 391.247799,210.398474 L413.788585,171.960803 L413.788585,208.375038 L413.788585,208.375038 C413.788585,210.584177 415.579446,212.375038 417.788585,212.375038 L427.979291,212.375038 L427.979291,212.375038 C430.18843,212.375038 431.979291,210.584177 431.979291,208.375038 Z M512.242283,208.375038 L512.242283,142.212835 L512.242283,142.212835 C512.242283,140.003696 510.451422,138.212835 508.242283,138.212835 L467.595138,138.212835 L467.595138,138.212835 C465.385999,138.212835 463.595138,140.003696 463.595138,142.212835 L463.595138,173.835691 C463.595138,192.688723 459.125422,196.126016 452.680714,196.126016 L452.680714,196.126016 L452.680714,196.126016 C451.47514,196.126016 450.49783,197.103326 450.49783,198.3089 L450.49783,208.375038 L450.49783,208.375038 C450.49783,210.584177 452.288691,212.375038 454.49783,212.375038 L457.462271,212.375038 C473.470093,212.375038 481.162163,204.875489 481.162163,173.835691 L481.162163,154.461857 L494.051577,154.461857 L494.051577,208.375038 L494.051577,208.375038 C494.051577,210.584177 495.842438,212.375038 498.051577,212.375038 L508.242283,212.375038 L508.242283,212.375038 C510.451422,212.375038 512.242283,210.584177 512.242283,208.375038 Z M595,208.375038 C595,210.584177 593.209139,212.375038 591,212.375038 L580.809294,212.375038 C578.600155,212.375038 576.809294,210.584177 576.809294,208.375038 L576.809294,171.960803 L554.268508,210.398474 C553.550502,211.622854 552.237423,212.375038 550.818043,212.375038 L550.818043,212.375038 L541.205529,212.375038 C538.99639,212.375038 537.205529,210.584177 537.205529,208.375038 L537.205529,142.212835 C537.205529,140.003696 538.99639,138.212835 541.205529,138.212835 L551.396235,138.212835 C553.605374,138.212835 555.396235,140.003696 555.396235,142.212835 L555.396235,178.627069 L577.937021,140.189398 C578.655027,138.965019 579.968106,138.212835 581.387485,138.212835 L591,138.212835 C593.209139,138.212835 595,140.003696 595,142.212835 L595,208.375038 Z M86.5721178,12.249022 C86.5721178,14.458161 84.7812568,16.249022 82.5721178,16.249022 L68.3814119,16.249022 L68.3814119,70.1622028 C68.3814119,72.3713418 66.5905508,74.1622028 64.3814119,74.1622028 L54.1907059,74.1622028 C51.9815669,74.1622028 50.1907059,72.3713418 50.1907059,70.1622028 L50.1907059,16.249022 L36,16.249022 C33.790861,16.249022 32,14.458161 32,12.249022 L32,4 C32,1.790861 33.790861,4.05812251e-16 36,0 L36,0 L82.5721178,8.8817842e-16 C84.7812568,4.82366169e-16 86.5721178,1.790861 86.5721178,4 L86.5721178,4 L86.5721178,12.249022 Z" id="path-2"></path>
        <filter x="-5.9%" y="-11.7%" width="111.8%" height="132.9%" filterUnits="objectBoundingBox" id="filter-3">
            <feOffset dx="0" dy="10" in="SourceAlpha" result="shadowOffsetOuter1"></feOffset>
            <feGaussianBlur stdDeviation="10" in="shadowOffsetOuter1" result="shadowBlurOuter1"></feGaussianBlur>
            <feColorMatrix values="0 0 0 0 0.235012755   0 0 0 0 0.221738577   0 0 0 0 0.221738577  0 0 0 1 0" type="matrix" in="shadowBlurOuter1"></feColorMatrix>
        </filter>
        <radialGradient cx="5.47860196%" cy="0%" fx="5.47860196%" fy="0%" r="133.905581%" gradientTransform="translate(0.054786,0.000000),scale(0.357983,1.000000),rotate(19.759581),translate(-0.054786,-0.000000)" id="radialGradient-4">
            <stop stop-color="#FFAF00" offset="0%"></stop>
            <stop stop-color="#FF007B" offset="100%"></stop>
        </radialGradient>
        <filter x="-1.4%" y="-4.0%" width="102.8%" height="107.9%" filterUnits="objectBoundingBox" id="filter-5">
            <feGaussianBlur stdDeviation="2.80636161" in="SourceGraphic"></feGaussianBlur>
        </filter>
    </defs>
    <g id="posters" stroke="none" stroke-width="1" fill="none" fill-rule="evenodd">
        <g id="winter/january/dances27g_ru" transform="translate(-104.000000, -466.000000)">
            <g id="header" transform="translate(96.000000, 408.000000)">
                <g id="H1" transform="translate(28.000000, 68.000000)">
                    <g id="Танцы-и-коктейли" opacity="0.934273098">
                        <use fill="black" fill-opacity="1" filter="url(#filter-3)" xlink:href="#path-2"></use>
                        <use fill="url(#radialGradient-1)" fill-rule="evenodd" xlink:href="#path-2"></use>
                    </g>
                    <path d="M161.175507,74.1622028 L150.80658,74.1622028 L150.80658,74.1622028 C149.054594,74.1622028 147.506492,73.0220761 146.986689,71.3489766 L144.430462,63.1212007 L121.666093,63.1212007 L118.933504,71.4140402 L118.933504,71.4140402 C118.393088,73.0540899 116.861231,74.1622028 115.134438,74.1622028 L104.713155,74.1622028 L104.713155,74.1622028 C102.504016,74.1622028 100.713155,72.3713418 100.713155,70.1622028 C100.713155,69.6967262 100.794401,69.2348216 100.953236,68.7972829 L124.971333,2.63508006 L124.971333,2.63508006 C125.545564,1.0532575 127.048427,2.97366539e-15 128.731253,2.66453526e-15 L137.157409,0 L137.157409,8.8817842e-16 C138.840235,-2.41025128e-15 140.343098,1.0532575 140.917329,2.63508006 L164.935426,68.7972829 L164.935426,68.7972829 C165.689251,70.873829 164.616973,73.1682977 162.540427,73.9221222 C162.102888,74.0809568 161.640983,74.1622028 161.175507,74.1622028 Z M139.648905,47.9137827 L133.412092,28.1233073 L126.759491,47.9137827 L139.648905,47.9137827 Z M240.077594,70.1622028 L240.077594,4 L240.077594,4 C240.077594,1.790861 238.286733,-8.49901461e-16 236.077594,-4.4408921e-16 L225.886888,0 L225.886888,0 C223.677749,4.05812251e-16 221.886888,1.790861 221.886888,4 L221.886888,28.5399488 L202.552766,28.5399488 L202.552766,4 L202.552766,4 C202.552766,1.790861 200.761905,-4.05812251e-16 198.552766,0 L188.36206,0 L188.36206,-4.4408921e-16 C186.152921,-3.82769592e-17 184.36206,1.790861 184.36206,4 L184.36206,70.1622028 L184.36206,70.1622028 C184.36206,72.3713418 186.152921,74.1622028 188.36206,74.1622028 L198.552766,74.1622028 L198.552766,74.1622028 C200.761905,74.1622028 202.552766,72.3713418 202.552766,70.1622028 L202.552766,44.7889708 L221.886888,44.7889708 L221.886888,70.1622028 L221.886888,70.1622028 C221.886888,72.3713418 223.677749,74.1622028 225.886888,74.1622028 L236.077594,74.1622028 L236.077594,74.1622028 C238.286733,74.1622028 240.077594,72.3713418 240.077594,70.1622028 Z M329.176071,85.1613 L329.176071,61.9131809 L329.176071,61.9131809 C329.176071,59.7040419 327.38521,57.9131809 325.176071,57.9131809 L320.756373,57.9131809 L320.756373,4 L320.756373,4 C320.756373,1.790861 318.965512,-4.05812251e-16 316.756373,0 L306.565667,0 L306.565667,0 C304.356528,4.05812251e-16 302.565667,1.790861 302.565667,4 L302.565667,57.9131809 L283.231546,57.9131809 L283.231546,4 L283.231546,4 C283.231546,1.790861 281.440685,-4.05812251e-16 279.231546,0 L269.04084,0 L269.04084,0 C266.831701,4.05812251e-16 265.04084,1.790861 265.04084,4 L265.04084,70.1622028 L265.04084,70.1622028 C265.04084,72.3713418 266.831701,74.1622028 269.04084,74.1622028 L311.712994,74.1622028 L311.712994,85.1613 L311.712994,85.1613 C311.712994,87.370439 313.503855,89.1613 315.712994,89.1613 L325.176071,89.1613 L325.176071,89.1613 C327.38521,89.1613 329.176071,87.370439 329.176071,85.1613 Z M428.25345,70.1622028 L428.25345,4 L428.25345,4 C428.25345,1.790861 426.462589,-4.05812251e-16 424.25345,0 L414.062744,0 L414.062744,0 C411.853605,4.05812251e-16 410.062744,1.790861 410.062744,4 L410.062744,70.1622028 L410.062744,70.1622028 C410.062744,72.3713418 411.853605,74.1622028 414.062744,74.1622028 L424.25345,74.1622028 L424.25345,74.1622028 C426.462589,74.1622028 428.25345,72.3713418 428.25345,70.1622028 Z M403.20225,50.3094719 C403.20225,64.1628047 393.119401,74.1622028 378.46289,74.1622028 L352.630132,74.1622028 L352.630132,74.1622028 C350.420993,74.1622028 348.630132,72.3713418 348.630132,70.1622028 L348.630132,4 L348.630132,4 C348.630132,1.790861 350.420993,4.05812251e-16 352.630132,0 L362.820838,0 L362.820838,0 C365.029977,-4.05812251e-16 366.820838,1.790861 366.820838,4 L366.820838,26.4567409 L378.46289,26.4567409 C393.223348,26.4567409 403.20225,36.456139 403.20225,50.3094719 Z M385.011544,50.3094719 C385.011544,46.0388956 381.685243,42.8099233 377.11158,42.8099233 L366.820838,42.8099233 L366.820838,57.9131809 L377.11158,57.9131809 C381.685243,57.9131809 385.011544,54.5800481 385.011544,50.3094719 Z M544.082271,70.1622028 L544.082271,4 L544.082271,4 C544.082271,1.790861 542.29141,-4.05812251e-16 540.082271,0 L530.469756,0 L530.469756,-2.66453526e-15 C529.050376,-4.92512377e-15 527.737297,0.752184059 527.019291,1.9765636 L504.478505,40.4142341 L504.478505,4 L504.478505,4 C504.478505,1.790861 502.687644,-4.05812251e-16 500.478505,0 L490.287799,0 L490.287799,0 C488.07866,4.05812251e-16 486.287799,1.790861 486.287799,4 L486.287799,70.1622028 L486.287799,70.1622028 C486.287799,72.3713418 488.07866,74.1622028 490.287799,74.1622028 L499.900314,74.1622028 L499.900314,74.1622028 C501.319693,74.1622028 502.632773,73.4100188 503.350779,72.1856392 L525.891565,33.7479687 L525.891565,70.1622028 L525.891565,70.1622028 C525.891565,72.3713418 527.682426,74.1622028 529.891565,74.1622028 L540.082271,74.1622028 L540.082271,74.1622028 C542.29141,74.1622028 544.082271,72.3713418 544.082271,70.1622028 Z M18.6907059,208.375038 L18.6907059,173.523209 L40.519553,212.375038 L54.805351,212.375038 L54.805351,212.375038 C57.01449,212.375038 58.805351,210.584177 58.805351,208.375038 C58.805351,207.639826 58.6027206,206.918837 58.2197175,206.291267 L37.712987,172.689926 L55.6545131,144.352578 L55.6545131,144.352578 C56.8362608,142.486093 56.2811712,140.015012 54.4146859,138.833264 C53.774586,138.427991 53.0325533,138.212835 52.2749424,138.212835 L38.648509,138.212835 L18.6907059,173.314889 L18.6907059,142.212835 L18.6907059,142.212835 C18.6907059,140.003696 16.8998449,138.212835 14.6907059,138.212835 L4.5,138.212835 L4.5,138.212835 C2.290861,138.212835 0.5,140.003696 0.5,142.212835 L0.5,208.375038 L0.5,208.375038 C0.5,210.584177 2.290861,212.375038 4.5,212.375038 L14.6907059,212.375038 L14.6907059,212.375038 C16.8998449,212.375038 18.6907059,210.584177 18.6907059,208.375038 Z M130.241712,168.731831 L130.241712,178.314588 C130.241712,187.897344 129.929871,197.16762 122.757536,204.667168 C117.456244,210.29183 110.595749,213 102.176051,213 C93.5484593,213 86.7919114,210.29183 81.386673,204.667168 C74.0064438,196.959299 73.9024969,187.168221 73.9024969,178.106267 L73.9024969,172.689926 C73.9024969,158.211631 75.5656471,151.962007 81.386673,145.920704 C86.6879645,140.296043 93.5484593,137.587872 101.968157,137.587872 C110.491803,137.587872 117.352297,140.296043 122.757536,145.920704 C127.95488,151.337045 130.241712,158.00331 130.241712,168.731831 Z M112.051006,177.272984 L112.051006,172.169124 C112.051006,165.190378 111.323378,159.669877 109.348387,157.065867 C107.685236,154.982659 105.086564,153.836894 102.072104,153.836894 C99.0576445,153.836894 96.4589722,154.982659 94.795822,157.065867 C92.820831,159.669877 92.0932028,165.190378 92.0932028,172.169124 L92.0932028,177.272984 C92.0932028,186.75158 92.820831,190.917996 94.795822,193.417845 C96.4589722,195.501053 99.1615914,196.750978 102.072104,196.750978 C104.982617,196.750978 107.685236,195.501053 109.348387,193.417845 C111.323378,190.917996 112.051006,186.75158 112.051006,177.272984 Z M171.004885,208.375038 L171.004885,173.523209 L192.833732,212.375038 L207.11953,212.375038 L207.11953,212.375038 C209.328669,212.375038 211.11953,210.584177 211.11953,208.375038 C211.11953,207.639826 210.9169,206.918837 210.533897,206.291267 L190.027166,172.689926 L207.968692,144.352578 L207.968692,144.352578 C209.15044,142.486093 208.59535,140.015012 206.728865,138.833264 C206.088765,138.427991 205.346732,138.212835 204.589121,138.212835 L190.962688,138.212835 L171.004885,173.314889 L171.004885,142.212835 L171.004885,142.212835 C171.004885,140.003696 169.214024,138.212835 167.004885,138.212835 L156.814179,138.212835 L156.814179,138.212835 C154.60504,138.212835 152.814179,140.003696 152.814179,142.212835 L152.814179,208.375038 L152.814179,208.375038 C152.814179,210.584177 154.60504,212.375038 156.814179,212.375038 L167.004885,212.375038 L167.004885,212.375038 C169.214024,212.375038 171.004885,210.584177 171.004885,208.375038 Z M280.892741,150.461857 L280.892741,142.212835 L280.892741,142.212835 C280.892741,140.003696 279.10188,138.212835 276.892741,138.212835 L230.320623,138.212835 L230.320623,138.212835 C228.111484,138.212835 226.320623,140.003696 226.320623,142.212835 L226.320623,150.461857 L226.320623,150.461857 C226.320623,152.670996 228.111484,154.461857 230.320623,154.461857 L244.511329,154.461857 L244.511329,208.375038 L244.511329,208.375038 C244.511329,210.584177 246.30219,212.375038 248.511329,212.375038 L258.702035,212.375038 L258.702035,212.375038 C260.911174,212.375038 262.702035,210.584177 262.702035,208.375038 L262.702035,154.461857 L276.892741,154.461857 L276.892741,154.461857 C279.10188,154.461857 280.892741,152.670996 280.892741,150.461857 Z M351.800512,208.375038 C351.800512,210.584177 350.009651,212.375038 347.800512,212.375038 L305.490217,212.375038 C303.281078,212.375038 301.490217,210.584177 301.490217,208.375038 L301.490217,142.212835 C301.490217,140.003696 303.281078,138.212835 305.490217,138.212835 L347.800512,138.212835 C350.009651,138.212835 351.800512,140.003696 351.800512,142.212835 L351.800512,150.461857 C351.800512,152.670996 350.009651,154.461857 347.800512,154.461857 L319.680923,154.461857 L319.680923,166.856944 L343.122902,166.856944 C345.332041,166.856944 347.122902,168.647805 347.122902,170.856944 L347.122902,179.105966 C347.122902,181.315105 345.332041,183.105966 343.122902,183.105966 L319.680923,183.105966 L319.680923,196.126016 L347.800512,196.126016 C350.009651,196.126016 351.800512,197.916877 351.800512,200.126016 L351.800512,208.375038 Z M403.5,127.94908 C396.872583,127.94908 391.5,122.576497 391.5,115.94908 C391.5,109.321663 396.872583,103.94908 403.5,103.94908 C410.127417,103.94908 415.5,109.321663 415.5,115.94908 C415.5,122.576497 410.127417,127.94908 403.5,127.94908 Z M432.479291,208.375038 L432.479291,142.212835 L432.479291,142.212835 C432.479291,140.003696 430.68843,138.212835 428.479291,138.212835 L418.866776,138.212835 L418.866776,138.212835 C417.447397,138.212835 416.134318,138.965019 415.416312,140.189398 L392.875526,178.627069 L392.875526,142.212835 L392.875526,142.212835 C392.875526,140.003696 391.084665,138.212835 388.875526,138.212835 L378.68482,138.212835 L378.68482,138.212835 C376.475681,138.212835 374.68482,140.003696 374.68482,142.212835 L374.68482,208.375038 L374.68482,208.375038 C374.68482,210.584177 376.475681,212.375038 378.68482,212.375038 L388.297335,212.375038 L388.297335,212.375038 C389.716714,212.375038 391.029793,211.622854 391.747799,210.398474 L414.288585,171.960803 L414.288585,208.375038 L414.288585,208.375038 C414.288585,210.584177 416.079446,212.375038 418.288585,212.375038 L428.479291,212.375038 L428.479291,212.375038 C430.68843,212.375038 432.479291,210.584177 432.479291,208.375038 Z M512.742283,208.375038 L512.742283,142.212835 L512.742283,142.212835 C512.742283,140.003696 510.951422,138.212835 508.742283,138.212835 L468.095138,138.212835 L468.095138,138.212835 C465.885999,138.212835 464.095138,140.003696 464.095138,142.212835 L464.095138,173.835691 C464.095138,192.688723 459.625422,196.126016 453.180714,196.126016 L453.180714,196.126016 L453.180714,196.126016 C451.97514,196.126016 450.99783,197.103326 450.99783,198.3089 L450.99783,208.375038 L450.99783,208.375038 C450.99783,210.584177 452.788691,212.375038 454.99783,212.375038 L457.962271,212.375038 C473.970093,212.375038 481.662163,204.875489 481.662163,173.835691 L481.662163,154.461857 L494.551577,154.461857 L494.551577,208.375038 L494.551577,208.375038 C494.551577,210.584177 496.342438,212.375038 498.551577,212.375038 L508.742283,212.375038 L508.742283,212.375038 C510.951422,212.375038 512.742283,210.584177 512.742283,208.375038 Z M595.5,208.375038 C595.5,210.584177 593.709139,212.375038 591.5,212.375038 L581.309294,212.375038 C579.100155,212.375038 577.309294,210.584177 577.309294,208.375038 L577.309294,171.960803 L554.768508,210.398474 C554.050502,211.622854 552.737423,212.375038 551.318043,212.375038 L551.318043,212.375038 L541.705529,212.375038 C539.49639,212.375038 537.705529,210.584177 537.705529,208.375038 L537.705529,142.212835 C537.705529,140.003696 539.49639,138.212835 541.705529,138.212835 L551.896235,138.212835 C554.105374,138.212835 555.896235,140.003696 555.896235,142.212835 L555.896235,178.627069 L578.437021,140.189398 C579.155027,138.965019 580.468106,138.212835 581.887485,138.212835 L591.5,138.212835 C593.709139,138.212835 595.5,140.003696 595.5,142.212835 L595.5,208.375038 Z M87.0721178,12.249022 C87.0721178,14.458161 85.2812568,16.249022 83.0721178,16.249022 L68.8814119,16.249022 L68.8814119,70.1622028 C68.8814119,72.3713418 67.0905508,74.1622028 64.8814119,74.1622028 L54.6907059,74.1622028 C52.4815669,74.1622028 50.6907059,72.3713418 50.6907059,70.1622028 L50.6907059,16.249022 L36.5,16.249022 C34.290861,16.249022 32.5,14.458161 32.5,12.249022 L32.5,4 C32.5,1.790861 34.290861,4.05812251e-16 36.5,0 L36.5,0 L83.0721178,8.8817842e-16 C85.2812568,4.82366169e-16 87.0721178,1.790861 87.0721178,4 L87.0721178,4 L87.0721178,12.249022 Z" id="Танцы-и-коктейли" fill="url(#radialGradient-4)" filter="url(#filter-5)"></path>
                </g>
            </g>
        </g>
    </g>
</svg>