<?xml version="1.0" encoding="UTF-8"?>
<svg width="842px" height="266px" viewBox="0 0 842 266" version="1.1" xmlns="http://www.w3.org/2000/svg" xmlns:xlink="http://www.w3.org/1999/xlink">
    <!-- Generator: Sketch 46.2 (44496) - http://www.bohemiancoding.com/sketch -->
    <title>H1</title>
    <desc>Created with Sketch.</desc>
    <defs>
        <filter x="-14.5%" y="-103.2%" width="129.0%" height="306.5%" filterUnits="objectBoundingBox" id="filter-1">
            <feGaussianBlur stdDeviation="36" in="SourceGraphic"></feGaussianBlur>
        </filter>
        <filter x="-1.2%" y="-8.6%" width="102.4%" height="117.2%" filterUnits="objectBoundingBox" id="filter-2">
            <feGaussianBlur stdDeviation="3" in="SourceGraphic"></feGaussianBlur>
        </filter>
        <filter x="-23.2%" y="-20.2%" width="146.4%" height="140.3%" filterUnits="objectBoundingBox" id="filter-3">
            <feGaussianBlur stdDeviation="3" in="SourceGraphic"></feGaussianBlur>
        </filter>
    </defs>
    <g id="posters" stroke="none" stroke-width="1" fill="none" fill-rule="evenodd">
        <g id="winter/february/jsl14_ua" transform="translate(0.000000, -477.000000)">
            <g id="Group-2" transform="translate(26.000000, 398.000000)">
                <g id="Group" transform="translate(20.000000, 48.000000)">
                    <g id="H1" transform="translate(0.000000, 109.000000)">
                        <path d="M34.516,6.736 C34.516,3.376 33.06,1.584 30.484,1.584 C27.908,1.584 26.452,3.376 26.452,6.736 L26.452,63.632 C26.452,70.464 24.548,75.952 16.596,75.952 C8.308,75.952 6.628,71.136 3.716,71.136 C1.924,71.136 0.58,72.48 0.58,74.72 C0.58,77.744 7.524,82.672 16.932,82.672 C27.684,82.672 34.516,75.28 34.516,63.632 L34.516,6.736 Z M88.724,30.592 L88.724,26.896 C88.724,23.536 90.18,21.744 92.756,21.744 C95.332,21.744 96.788,23.536 96.788,26.896 L96.788,77.52 C96.788,80.88 95.332,82.672 92.756,82.672 C90.18,82.672 88.724,80.88 88.724,77.52 L88.724,73.824 L88.388,73.824 C84.804,79.648 78.868,82.672 71.924,82.672 C54.788,82.672 46.276,69.008 46.276,52.208 C46.276,37.2 54.452,21.744 71.7,21.744 C78.644,21.744 83.796,24.656 88.388,30.592 L88.724,30.592 Z M55.012,52.208 C55.012,63.072 59.38,75.952 71.924,75.952 C84.468,75.952 88.724,63.072 88.724,52.208 C88.724,41.344 84.468,28.464 71.924,28.464 C59.716,28.464 55.012,41.344 55.012,52.208 Z M147.636,30.368 C148.868,28.576 149.428,27.344 149.428,25.44 C149.428,23.648 148.196,22.416 144.948,22.416 L112.804,22.416 C110.228,22.416 108.548,24.096 108.548,26.112 C108.548,28.128 110.228,29.808 112.804,29.808 L139.012,29.808 L109.108,74.048 C107.876,75.84 107.316,76.848 107.316,78.752 C107.316,79.872 107.988,82 112.02,82 L146.628,82 C149.204,82 150.884,80.32 150.884,78.304 C150.884,76.288 149.204,74.608 146.628,74.608 L117.732,74.608 L147.636,30.368 Z M197.364,30.368 C198.596,28.576 199.156,27.344 199.156,25.44 C199.156,23.648 197.924,22.416 194.676,22.416 L162.532,22.416 C159.956,22.416 158.276,24.096 158.276,26.112 C158.276,28.128 159.956,29.808 162.532,29.808 L188.74,29.808 L158.836,74.048 C157.604,75.84 157.044,76.848 157.044,78.752 C157.044,79.872 157.716,82 161.748,82 L196.356,82 C198.932,82 200.612,80.32 200.612,78.304 C200.612,76.288 198.932,74.608 196.356,74.608 L167.46,74.608 L197.364,30.368 Z M245.972,6.736 C245.972,3.376 244.516,1.584 241.94,1.584 C239.364,1.584 237.908,3.376 237.908,6.736 L237.908,77.968 C237.908,80.208 239.7,82 241.94,82 L267.028,82 C269.604,82 271.284,80.32 271.284,78.304 C271.284,76.288 269.604,74.608 267.028,74.608 L245.972,74.608 L245.972,6.736 Z M285.06,52.208 C285.06,63.072 289.428,75.952 301.972,75.952 C314.516,75.952 318.884,63.072 318.884,52.208 C318.884,41.344 314.516,28.464 301.972,28.464 C289.428,28.464 285.06,41.344 285.06,52.208 Z M327.62,52.208 C327.62,69.008 319.108,82.672 301.972,82.672 C284.836,82.672 276.324,69.008 276.324,52.208 C276.324,37.2 284.5,21.744 301.972,21.744 C319.556,21.744 327.62,37.2 327.62,52.208 Z M355.956,68.672 L355.732,68.672 L341.284,25.44 C340.5,23.088 339.268,21.744 337.028,21.744 C334.788,21.744 333.332,23.536 333.332,25.44 C333.332,26.112 333.444,26.896 333.78,27.792 L351.7,79.648 C352.484,82 354.388,82.672 355.844,82.672 C357.3,82.672 359.204,82 359.988,79.648 L377.908,27.792 C378.244,26.896 378.356,26.112 378.356,25.44 C378.356,23.536 376.9,21.744 374.66,21.744 C372.42,21.744 371.188,23.088 370.404,25.44 L355.956,68.672 Z M429.652,55.792 L392.804,55.792 C393.14,66.208 400.196,75.952 410.5,75.952 C423.268,75.952 426.628,66.768 430.436,66.768 C432.676,66.768 434.244,67.552 434.244,70.688 C434.244,74.272 424.948,82.672 411.06,82.672 C392.02,82.672 384.068,67.216 384.068,52.208 C384.068,37.2 392.916,21.744 409.716,21.744 C426.516,21.744 435.14,35.856 435.14,50.864 C435.14,52.992 434.468,55.792 429.652,55.792 Z M392.804,49.072 L426.404,49.072 C426.068,39.104 420.468,28.464 409.604,28.464 C398.74,28.464 393.14,39.104 392.804,49.072 Z M488.9,82.672 C504.244,82.672 514.212,71.808 514.212,57.36 C514.212,31.824 476.356,38.992 476.356,21.408 C476.356,14.8 482.404,8.976 490.804,8.976 C499.316,8.976 502.004,14.576 506.148,14.576 C507.604,14.576 509.508,12.784 509.508,10.32 C509.508,6.512 500.1,1.584 491.364,1.584 C479.268,1.92 468.292,9.088 468.292,21.968 C468.292,46.16 506.148,38.768 506.148,57.92 C506.148,66.32 498.98,75.28 487.78,75.28 C482.068,75.28 475.46,71.92 474.564,71.136 C473.668,70.352 471.652,69.232 470.756,69.232 C468.628,69.232 466.948,71.024 466.948,73.152 C466.948,77.52 475.684,82.672 488.9,82.672 Z M529.556,52.208 C529.556,63.072 533.924,75.952 546.468,75.952 C559.012,75.952 563.38,63.072 563.38,52.208 C563.38,41.344 559.012,28.464 546.468,28.464 C533.924,28.464 529.556,41.344 529.556,52.208 Z M572.116,52.208 C572.116,69.008 563.604,82.672 546.468,82.672 C529.332,82.672 520.82,69.008 520.82,52.208 C520.82,37.2 528.996,21.744 546.468,21.744 C564.052,21.744 572.116,37.2 572.116,52.208 Z M591.94,44.704 C591.94,34.512 598.996,29.136 606.5,29.136 C615.46,29.136 621.06,34.512 621.06,42.8 L621.06,77.52 C621.06,80.88 622.516,82.672 625.092,82.672 C627.668,82.672 629.124,80.88 629.124,77.52 L629.124,43.024 C629.124,28.8 618.26,21.744 607.732,21.744 C600.116,21.744 595.188,25.44 592.164,29.808 L591.94,29.808 L591.94,26.896 C591.94,23.536 590.484,21.744 587.908,21.744 C585.332,21.744 583.876,23.536 583.876,26.896 L583.876,77.52 C583.876,80.88 585.332,82.672 587.908,82.672 C590.484,82.672 591.94,80.88 591.94,77.52 L591.94,44.704 Z M683.332,30.48 L683.332,26.896 C683.332,23.536 684.788,21.744 687.364,21.744 C689.94,21.744 691.396,23.536 691.396,26.896 L691.396,79.2 C691.396,97.68 678.516,106.192 665.412,106.192 C653.54,106.192 642.564,99.472 642.564,95.44 C642.564,93.088 643.796,91.296 646.596,91.296 C649.844,91.296 655.22,98.8 664.628,98.8 C674.148,98.8 683.332,93.312 683.332,79.872 L683.332,73.6 L683.108,73.6 C679.636,79.648 673.7,82.672 666.532,82.672 C649.396,82.672 640.884,69.008 640.884,52.208 C640.884,37.2 649.06,21.744 666.308,21.744 C673.364,21.744 679.748,25.664 683.108,30.48 L683.332,30.48 Z M649.62,52.208 C649.62,63.072 653.988,75.952 666.532,75.952 C677.396,75.952 683.444,66.208 683.444,57.92 L683.444,46.496 C683.444,38.096 677.396,28.464 666.532,28.464 C653.988,28.464 649.62,41.344 649.62,52.208 Z M722.42,21.744 C713.348,21.744 703.716,27.68 703.716,37.424 C703.716,44.816 708.084,48.4 714.132,50.864 L728.02,56.576 C732.388,58.368 736.308,60.496 736.308,65.76 C736.308,71.36 731.156,75.952 723.428,75.952 C712.9,75.952 709.204,67.44 705.396,67.44 C703.38,67.44 701.588,70.128 701.588,71.36 C701.588,75.168 710.1,82.672 723.092,82.672 C735.636,82.672 745.044,75.952 745.044,65.424 C745.044,56.016 738.212,52.096 730.148,48.848 L717.94,43.92 C713.908,42.352 712.452,39.552 712.452,36.864 C712.452,31.152 718.5,28.464 724.1,28.464 C732.164,28.464 736.308,34.848 739.444,34.848 C742.804,34.848 743.476,32.72 743.476,30.928 C743.7,26.672 734.068,21.744 722.42,21.744 Z" id="Jazz-Love-Songs" fill="#FF006A" filter="url(#filter-1)"></path>
                        <path d="M34.516,6.736 C34.516,3.376 33.06,1.584 30.484,1.584 C27.908,1.584 26.452,3.376 26.452,6.736 L26.452,63.632 C26.452,70.464 24.548,75.952 16.596,75.952 C8.308,75.952 6.628,71.136 3.716,71.136 C1.924,71.136 0.58,72.48 0.58,74.72 C0.58,77.744 7.524,82.672 16.932,82.672 C27.684,82.672 34.516,75.28 34.516,63.632 L34.516,6.736 Z M88.724,30.592 L88.724,26.896 C88.724,23.536 90.18,21.744 92.756,21.744 C95.332,21.744 96.788,23.536 96.788,26.896 L96.788,77.52 C96.788,80.88 95.332,82.672 92.756,82.672 C90.18,82.672 88.724,80.88 88.724,77.52 L88.724,73.824 L88.388,73.824 C84.804,79.648 78.868,82.672 71.924,82.672 C54.788,82.672 46.276,69.008 46.276,52.208 C46.276,37.2 54.452,21.744 71.7,21.744 C78.644,21.744 83.796,24.656 88.388,30.592 L88.724,30.592 Z M55.012,52.208 C55.012,63.072 59.38,75.952 71.924,75.952 C84.468,75.952 88.724,63.072 88.724,52.208 C88.724,41.344 84.468,28.464 71.924,28.464 C59.716,28.464 55.012,41.344 55.012,52.208 Z M147.636,30.368 C148.868,28.576 149.428,27.344 149.428,25.44 C149.428,23.648 148.196,22.416 144.948,22.416 L112.804,22.416 C110.228,22.416 108.548,24.096 108.548,26.112 C108.548,28.128 110.228,29.808 112.804,29.808 L139.012,29.808 L109.108,74.048 C107.876,75.84 107.316,76.848 107.316,78.752 C107.316,79.872 107.988,82 112.02,82 L146.628,82 C149.204,82 150.884,80.32 150.884,78.304 C150.884,76.288 149.204,74.608 146.628,74.608 L117.732,74.608 L147.636,30.368 Z M197.364,30.368 C198.596,28.576 199.156,27.344 199.156,25.44 C199.156,23.648 197.924,22.416 194.676,22.416 L162.532,22.416 C159.956,22.416 158.276,24.096 158.276,26.112 C158.276,28.128 159.956,29.808 162.532,29.808 L188.74,29.808 L158.836,74.048 C157.604,75.84 157.044,76.848 157.044,78.752 C157.044,79.872 157.716,82 161.748,82 L196.356,82 C198.932,82 200.612,80.32 200.612,78.304 C200.612,76.288 198.932,74.608 196.356,74.608 L167.46,74.608 L197.364,30.368 Z M245.972,6.736 C245.972,3.376 244.516,1.584 241.94,1.584 C239.364,1.584 237.908,3.376 237.908,6.736 L237.908,77.968 C237.908,80.208 239.7,82 241.94,82 L267.028,82 C269.604,82 271.284,80.32 271.284,78.304 C271.284,76.288 269.604,74.608 267.028,74.608 L245.972,74.608 L245.972,6.736 Z M355.956,68.672 L355.732,68.672 L341.284,25.44 C340.5,23.088 339.268,21.744 337.028,21.744 C334.788,21.744 333.332,23.536 333.332,25.44 C333.332,26.112 333.444,26.896 333.78,27.792 L351.7,79.648 C352.484,82 354.388,82.672 355.844,82.672 C357.3,82.672 359.204,82 359.988,79.648 L377.908,27.792 C378.244,26.896 378.356,26.112 378.356,25.44 C378.356,23.536 376.9,21.744 374.66,21.744 C372.42,21.744 371.188,23.088 370.404,25.44 L355.956,68.672 Z M429.652,55.792 L392.804,55.792 C393.14,66.208 400.196,75.952 410.5,75.952 C423.268,75.952 426.628,66.768 430.436,66.768 C432.676,66.768 434.244,67.552 434.244,70.688 C434.244,74.272 424.948,82.672 411.06,82.672 C392.02,82.672 384.068,67.216 384.068,52.208 C384.068,37.2 392.916,21.744 409.716,21.744 C426.516,21.744 435.14,35.856 435.14,50.864 C435.14,52.992 434.468,55.792 429.652,55.792 Z M392.804,49.072 L426.404,49.072 C426.068,39.104 420.468,28.464 409.604,28.464 C398.74,28.464 393.14,39.104 392.804,49.072 Z M488.9,82.672 C504.244,82.672 514.212,71.808 514.212,57.36 C514.212,31.824 476.356,38.992 476.356,21.408 C476.356,14.8 482.404,8.976 490.804,8.976 C499.316,8.976 502.004,14.576 506.148,14.576 C507.604,14.576 509.508,12.784 509.508,10.32 C509.508,6.512 500.1,1.584 491.364,1.584 C479.268,1.92 468.292,9.088 468.292,21.968 C468.292,46.16 506.148,38.768 506.148,57.92 C506.148,66.32 498.98,75.28 487.78,75.28 C482.068,75.28 475.46,71.92 474.564,71.136 C473.668,70.352 471.652,69.232 470.756,69.232 C468.628,69.232 466.948,71.024 466.948,73.152 C466.948,77.52 475.684,82.672 488.9,82.672 Z M529.556,52.208 C529.556,63.072 533.924,75.952 546.468,75.952 C559.012,75.952 563.38,63.072 563.38,52.208 C563.38,41.344 559.012,28.464 546.468,28.464 C533.924,28.464 529.556,41.344 529.556,52.208 Z M572.116,52.208 C572.116,69.008 563.604,82.672 546.468,82.672 C529.332,82.672 520.82,69.008 520.82,52.208 C520.82,37.2 528.996,21.744 546.468,21.744 C564.052,21.744 572.116,37.2 572.116,52.208 Z M591.94,44.704 C591.94,34.512 598.996,29.136 606.5,29.136 C615.46,29.136 621.06,34.512 621.06,42.8 L621.06,77.52 C621.06,80.88 622.516,82.672 625.092,82.672 C627.668,82.672 629.124,80.88 629.124,77.52 L629.124,43.024 C629.124,28.8 618.26,21.744 607.732,21.744 C600.116,21.744 595.188,25.44 592.164,29.808 L591.94,29.808 L591.94,26.896 C591.94,23.536 590.484,21.744 587.908,21.744 C585.332,21.744 583.876,23.536 583.876,26.896 L583.876,77.52 C583.876,80.88 585.332,82.672 587.908,82.672 C590.484,82.672 591.94,80.88 591.94,77.52 L591.94,44.704 Z M683.332,30.48 L683.332,26.896 C683.332,23.536 684.788,21.744 687.364,21.744 C689.94,21.744 691.396,23.536 691.396,26.896 L691.396,79.2 C691.396,97.68 678.516,106.192 665.412,106.192 C653.54,106.192 642.564,99.472 642.564,95.44 C642.564,93.088 643.796,91.296 646.596,91.296 C649.844,91.296 655.22,98.8 664.628,98.8 C674.148,98.8 683.332,93.312 683.332,79.872 L683.332,73.6 L683.108,73.6 C679.636,79.648 673.7,82.672 666.532,82.672 C649.396,82.672 640.884,69.008 640.884,52.208 C640.884,37.2 649.06,21.744 666.308,21.744 C673.364,21.744 679.748,25.664 683.108,30.48 L683.332,30.48 Z M649.62,52.208 C649.62,63.072 653.988,75.952 666.532,75.952 C677.396,75.952 683.444,66.208 683.444,57.92 L683.444,46.496 C683.444,38.096 677.396,28.464 666.532,28.464 C653.988,28.464 649.62,41.344 649.62,52.208 Z M722.42,21.744 C713.348,21.744 703.716,27.68 703.716,37.424 C703.716,44.816 708.084,48.4 714.132,50.864 L728.02,56.576 C732.388,58.368 736.308,60.496 736.308,65.76 C736.308,71.36 731.156,75.952 723.428,75.952 C712.9,75.952 709.204,67.44 705.396,67.44 C703.38,67.44 701.588,70.128 701.588,71.36 C701.588,75.168 710.1,82.672 723.092,82.672 C735.636,82.672 745.044,75.952 745.044,65.424 C745.044,56.016 738.212,52.096 730.148,48.848 L717.94,43.92 C713.908,42.352 712.452,39.552 712.452,36.864 C712.452,31.152 718.5,28.464 724.1,28.464 C732.164,28.464 736.308,34.848 739.444,34.848 C742.804,34.848 743.476,32.72 743.476,30.928 C743.7,26.672 734.068,21.744 722.42,21.744 Z" id="Jazz-Love-Songs" fill="#F54B91" filter="url(#filter-2)"></path>
                        <path d="M34.516,5.736 C34.516,2.376 33.06,0.584 30.484,0.584 C27.908,0.584 26.452,2.376 26.452,5.736 L26.452,62.632 C26.452,69.464 24.548,74.952 16.596,74.952 C8.308,74.952 6.628,70.136 3.716,70.136 C1.924,70.136 0.58,71.48 0.58,73.72 C0.58,76.744 7.524,81.672 16.932,81.672 C27.684,81.672 34.516,74.28 34.516,62.632 L34.516,5.736 Z M88.724,29.592 L88.724,25.896 C88.724,22.536 90.18,20.744 92.756,20.744 C95.332,20.744 96.788,22.536 96.788,25.896 L96.788,76.52 C96.788,79.88 95.332,81.672 92.756,81.672 C90.18,81.672 88.724,79.88 88.724,76.52 L88.724,72.824 L88.388,72.824 C84.804,78.648 78.868,81.672 71.924,81.672 C54.788,81.672 46.276,68.008 46.276,51.208 C46.276,36.2 54.452,20.744 71.7,20.744 C78.644,20.744 83.796,23.656 88.388,29.592 L88.724,29.592 Z M55.012,51.208 C55.012,62.072 59.38,74.952 71.924,74.952 C84.468,74.952 88.724,62.072 88.724,51.208 C88.724,40.344 84.468,27.464 71.924,27.464 C59.716,27.464 55.012,40.344 55.012,51.208 Z M147.636,29.368 C148.868,27.576 149.428,26.344 149.428,24.44 C149.428,22.648 148.196,21.416 144.948,21.416 L112.804,21.416 C110.228,21.416 108.548,23.096 108.548,25.112 C108.548,27.128 110.228,28.808 112.804,28.808 L139.012,28.808 L109.108,73.048 C107.876,74.84 107.316,75.848 107.316,77.752 C107.316,78.872 107.988,81 112.02,81 L146.628,81 C149.204,81 150.884,79.32 150.884,77.304 C150.884,75.288 149.204,73.608 146.628,73.608 L117.732,73.608 L147.636,29.368 Z M197.364,29.368 C198.596,27.576 199.156,26.344 199.156,24.44 C199.156,22.648 197.924,21.416 194.676,21.416 L162.532,21.416 C159.956,21.416 158.276,23.096 158.276,25.112 C158.276,27.128 159.956,28.808 162.532,28.808 L188.74,28.808 L158.836,73.048 C157.604,74.84 157.044,75.848 157.044,77.752 C157.044,78.872 157.716,81 161.748,81 L196.356,81 C198.932,81 200.612,79.32 200.612,77.304 C200.612,75.288 198.932,73.608 196.356,73.608 L167.46,73.608 L197.364,29.368 Z M245.972,5.736 C245.972,2.376 244.516,0.584 241.94,0.584 C239.364,0.584 237.908,2.376 237.908,5.736 L237.908,76.968 C237.908,79.208 239.7,81 241.94,81 L267.028,81 C269.604,81 271.284,79.32 271.284,77.304 C271.284,75.288 269.604,73.608 267.028,73.608 L245.972,73.608 L245.972,5.736 Z M355.956,67.672 L355.732,67.672 L341.284,24.44 C340.5,22.088 339.268,20.744 337.028,20.744 C334.788,20.744 333.332,22.536 333.332,24.44 C333.332,25.112 333.444,25.896 333.78,26.792 L351.7,78.648 C352.484,81 354.388,81.672 355.844,81.672 C357.3,81.672 359.204,81 359.988,78.648 L377.908,26.792 C378.244,25.896 378.356,25.112 378.356,24.44 C378.356,22.536 376.9,20.744 374.66,20.744 C372.42,20.744 371.188,22.088 370.404,24.44 L355.956,67.672 Z M429.652,54.792 L392.804,54.792 C393.14,65.208 400.196,74.952 410.5,74.952 C423.268,74.952 426.628,65.768 430.436,65.768 C432.676,65.768 434.244,66.552 434.244,69.688 C434.244,73.272 424.948,81.672 411.06,81.672 C392.02,81.672 384.068,66.216 384.068,51.208 C384.068,36.2 392.916,20.744 409.716,20.744 C426.516,20.744 435.14,34.856 435.14,49.864 C435.14,51.992 434.468,54.792 429.652,54.792 Z M392.804,48.072 L426.404,48.072 C426.068,38.104 420.468,27.464 409.604,27.464 C398.74,27.464 393.14,38.104 392.804,48.072 Z M488.9,81.672 C504.244,81.672 514.212,70.808 514.212,56.36 C514.212,30.824 476.356,37.992 476.356,20.408 C476.356,13.8 482.404,7.976 490.804,7.976 C499.316,7.976 502.004,13.576 506.148,13.576 C507.604,13.576 509.508,11.784 509.508,9.32 C509.508,5.512 500.1,0.584 491.364,0.584 C479.268,0.92 468.292,8.088 468.292,20.968 C468.292,45.16 506.148,37.768 506.148,56.92 C506.148,65.32 498.98,74.28 487.78,74.28 C482.068,74.28 475.46,70.92 474.564,70.136 C473.668,69.352 471.652,68.232 470.756,68.232 C468.628,68.232 466.948,70.024 466.948,72.152 C466.948,76.52 475.684,81.672 488.9,81.672 Z M529.556,51.208 C529.556,62.072 533.924,74.952 546.468,74.952 C559.012,74.952 563.38,62.072 563.38,51.208 C563.38,40.344 559.012,27.464 546.468,27.464 C533.924,27.464 529.556,40.344 529.556,51.208 Z M572.116,51.208 C572.116,68.008 563.604,81.672 546.468,81.672 C529.332,81.672 520.82,68.008 520.82,51.208 C520.82,36.2 528.996,20.744 546.468,20.744 C564.052,20.744 572.116,36.2 572.116,51.208 Z M591.94,43.704 C591.94,33.512 598.996,28.136 606.5,28.136 C615.46,28.136 621.06,33.512 621.06,41.8 L621.06,76.52 C621.06,79.88 622.516,81.672 625.092,81.672 C627.668,81.672 629.124,79.88 629.124,76.52 L629.124,42.024 C629.124,27.8 618.26,20.744 607.732,20.744 C600.116,20.744 595.188,24.44 592.164,28.808 L591.94,28.808 L591.94,25.896 C591.94,22.536 590.484,20.744 587.908,20.744 C585.332,20.744 583.876,22.536 583.876,25.896 L583.876,76.52 C583.876,79.88 585.332,81.672 587.908,81.672 C590.484,81.672 591.94,79.88 591.94,76.52 L591.94,43.704 Z M683.332,29.48 L683.332,25.896 C683.332,22.536 684.788,20.744 687.364,20.744 C689.94,20.744 691.396,22.536 691.396,25.896 L691.396,78.2 C691.396,96.68 678.516,105.192 665.412,105.192 C653.54,105.192 642.564,98.472 642.564,94.44 C642.564,92.088 643.796,90.296 646.596,90.296 C649.844,90.296 655.22,97.8 664.628,97.8 C674.148,97.8 683.332,92.312 683.332,78.872 L683.332,72.6 L683.108,72.6 C679.636,78.648 673.7,81.672 666.532,81.672 C649.396,81.672 640.884,68.008 640.884,51.208 C640.884,36.2 649.06,20.744 666.308,20.744 C673.364,20.744 679.748,24.664 683.108,29.48 L683.332,29.48 Z M649.62,51.208 C649.62,62.072 653.988,74.952 666.532,74.952 C677.396,74.952 683.444,65.208 683.444,56.92 L683.444,45.496 C683.444,37.096 677.396,27.464 666.532,27.464 C653.988,27.464 649.62,40.344 649.62,51.208 Z M722.42,20.744 C713.348,20.744 703.716,26.68 703.716,36.424 C703.716,43.816 708.084,47.4 714.132,49.864 L728.02,55.576 C732.388,57.368 736.308,59.496 736.308,64.76 C736.308,70.36 731.156,74.952 723.428,74.952 C712.9,74.952 709.204,66.44 705.396,66.44 C703.38,66.44 701.588,69.128 701.588,70.36 C701.588,74.168 710.1,81.672 723.092,81.672 C735.636,81.672 745.044,74.952 745.044,64.424 C745.044,55.016 738.212,51.096 730.148,47.848 L717.94,42.92 C713.908,41.352 712.452,38.552 712.452,35.864 C712.452,30.152 718.5,27.464 724.1,27.464 C732.164,27.464 736.308,33.848 739.444,33.848 C742.804,33.848 743.476,31.72 743.476,29.928 C743.7,25.672 734.068,20.744 722.42,20.744 Z" id="Jazz-Love-Songs" fill="#F17AAB"></path>
                        <g id="hearty" transform="translate(299.458383, 54.206447) rotate(-27.000000) translate(-299.458383, -54.206447) translate(272.958383, 23.706447)" stroke-width="6.5">
                            <path d="M25.1029092,5.50254376 C20.834545,1.83418125 17.3080985,-5.77315973e-15 14.5235696,-5.77315973e-15 C6.37716739,-5.77315973e-15 0,7.71273608 0,17.5652374 C0,25.3623913 8.28376117,39.5055861 24.8512835,59.9948219 L24.8512692,59.9948335 C25.5457874,60.8537518 26.8050966,60.9870244 27.6640149,60.2925061 C27.7734345,60.2040299 27.8732112,60.1042531 27.9616875,59.9948335 C44.5292161,39.5055915 52.8129804,25.3623928 52.8129804,17.5652374 C52.8129804,7.71273608 46.4358131,-5.77315973e-15 38.2894108,-5.77315973e-15 C35.5048834,-5.77315973e-15 31.9784392,1.83417927 27.7100781,5.50253782 L27.7100834,5.50254398 C26.9604325,6.14681661 25.85256,6.14681652 25.1029092,5.50254376 Z" stroke="#F54B91" filter="url(#filter-3)"></path>
                            <path d="M25.1029092,5.50254376 C20.834545,1.83418125 17.3080985,8.43769499e-15 14.5235696,8.43769499e-15 C6.37716739,8.43769499e-15 0,7.71273608 0,17.5652374 C0,25.3623913 8.28376117,39.5055861 24.8512835,59.9948219 L24.8512692,59.9948335 C25.5457874,60.8537518 26.8050966,60.9870244 27.6640149,60.2925061 C27.7734345,60.2040299 27.8732112,60.1042531 27.9616875,59.9948335 C44.5292161,39.5055915 52.8129804,25.3623928 52.8129804,17.5652374 C52.8129804,7.71273608 46.4358131,8.43769499e-15 38.2894108,8.43769499e-15 C35.5048834,8.43769499e-15 31.9784392,1.83417927 27.7100781,5.50253782 L27.7100834,5.50254398 C26.9604325,6.14681661 25.85256,6.14681652 25.1029092,5.50254376 Z" stroke="#F17AAB"></path>
                        </g>
                    </g>
                </g>
            </g>
        </g>
    </g>
</svg>