<?xml version="1.0" encoding="UTF-8"?>
<svg width="471px" height="258px" viewBox="0 0 471 258" version="1.1" xmlns="http://www.w3.org/2000/svg" xmlns:xlink="http://www.w3.org/1999/xlink">
    <!-- Generator: Sketch 46.2 (44496) - http://www.bohemiancoding.com/sketch -->
    <title>header copy</title>
    <desc>Created with Sketch.</desc>
    <defs>
        <filter x="-3.1%" y="-6.1%" width="106.2%" height="112.3%" filterUnits="objectBoundingBox" id="filter-1">
            <feGaussianBlur stdDeviation="4.63011429" in="SourceGraphic"></feGaussianBlur>
        </filter>
    </defs>
    <g id="posters" stroke="none" stroke-width="1" fill="none" fill-rule="evenodd">
        <g id="header-copy" transform="translate(241.000000, 140.500000) rotate(2.000000) translate(-241.000000, -140.500000) translate(7.000000, 16.000000)">
            <path d="M90.8986461,59.2857143 L90.8986461,0.146735377 L99.0605316,0.146735377 L109.970807,31.4604925 L110.137376,31.4604925 L120.964367,0.146735377 L129.209537,0.146735377 L129.209537,59.2857143 L120.714513,59.2857143 L120.714513,23.3205768 L120.547944,23.3205768 L112.136205,48.7370481 L107.888693,48.7370481 L99.5602388,23.3205768 L99.3936697,23.3205768 L99.3936697,59.2857143 L90.8986461,59.2857143 Z M148.594015,51.3119194 C149.371342,51.3119194 150.259701,51.2288598 151.259121,51.0627383 C152.25854,50.8966167 153.035855,50.5366921 153.591088,49.9829536 C154.035274,49.5399627 154.521096,48.8339567 155.048568,47.8649143 C155.576039,46.8958719 156.061861,45.5253896 156.506047,43.7534263 L157.255608,40.5140721 L144.429788,0.146735377 L153.424519,0.146735377 L161.419835,27.9719572 L161.586404,27.9719572 L167.832745,0.146735377 L176.827476,0.146735377 L164.501363,45.0823921 C163.724037,47.7957109 162.8912,50.2044373 162.002827,52.3086437 C161.114454,54.4128501 159.865198,56.1017273 158.255022,57.3753259 C156.922463,58.482803 155.520521,59.1611225 154.049153,59.4103048 C152.577785,59.6594872 150.953753,59.7840765 149.177007,59.7840765 L148.011023,59.7840765 L148.011023,51.3119194 L148.594015,51.3119194 Z M188.966199,15.0976008 C188.966199,13.4363853 189.313214,11.5537025 190.007256,9.4494961 C190.701297,7.3452897 191.770105,5.54566649 193.213711,4.05057247 C194.490747,2.77697386 195.934331,1.72488644 197.544507,0.894278649 C199.154683,0.06367086 201.014686,-0.351626805 203.124572,-0.351626805 C205.623121,-0.351626805 207.774616,0.0775141155 209.579124,0.935808831 C211.383631,1.79410355 212.868858,2.94309375 214.034847,4.38281392 C215.25636,5.82253409 216.144719,7.53909777 216.699953,9.53255647 C217.255186,11.5260152 217.532798,13.63019 217.532798,15.8451441 C217.532798,16.9526212 217.505037,18.0739249 217.449513,19.2090888 C217.39399,20.3442528 217.185781,21.4793998 216.824879,22.6145637 C216.463978,23.7497277 215.880992,24.8156584 215.075904,25.8123877 C214.270816,26.8091171 213.118725,27.722772 211.619595,28.5533797 C213.118725,29.1624921 214.270816,29.9515577 215.075904,30.9206001 C215.880992,31.8896425 216.463978,32.9694165 216.824879,34.1599543 C217.185781,35.3504921 217.39399,36.6517581 217.449513,38.0637914 C217.505037,39.4758246 217.532798,40.9293664 217.532798,42.4244605 C217.532798,44.9162838 217.269066,47.2419508 216.741595,49.401531 C216.214123,51.5611113 215.339644,53.3607345 214.118132,54.8004546 C212.896619,56.2401748 211.35587,57.4306948 209.495839,58.3720503 C207.635809,59.3134058 205.345506,59.7840765 202.624864,59.7840765 C200.570502,59.7840765 198.654977,59.4241518 196.878231,58.7042917 C195.101485,57.9844317 193.574617,56.9877173 192.297581,55.7141186 C191.020545,54.44052 190.048901,52.8070159 189.382622,50.8135572 C188.716342,48.8200985 188.383207,46.8266697 188.383207,44.833211 L188.383207,42.5905812 L196.878231,42.5905812 L196.961515,44.9162714 C196.961515,45.6915053 197.05868,46.4528844 197.253011,47.2004314 C197.447343,47.9479784 197.766597,48.6262979 198.210784,49.2354103 C198.65497,49.8445227 199.237956,50.3428799 199.959759,50.7304968 C200.681562,51.1181138 201.597683,51.3119194 202.708149,51.3119194 C205.206698,51.3119194 206.886253,50.5228538 207.746864,48.944699 C208.607475,47.3665442 209.037774,45.2208396 209.037774,42.5075208 C209.037774,40.957053 208.982252,39.5035111 208.871205,38.1468517 C208.760159,36.7901924 208.482546,35.7242617 208.03836,34.9490277 C207.03894,33.2324383 205.373266,32.3741565 203.041287,32.3741565 L199.79319,32.3741565 L199.79319,24.8987237 L203.291141,24.8987237 C204.346084,24.8987237 205.289966,24.7049182 206.122815,24.3173012 C206.955665,23.9296842 207.621935,23.265208 208.121644,22.3238525 C208.565831,21.4378708 208.829563,20.3857834 208.912848,19.1675586 C208.996133,17.9493339 209.037774,16.86956 209.037774,15.9282045 C209.037774,14.9314751 208.954491,13.948604 208.787921,12.9795616 C208.621351,12.0105191 208.315977,11.1660806 207.871791,10.4462205 C207.427604,9.78173424 206.830738,9.22800402 206.081173,8.78501319 C205.331608,8.34202237 204.373846,8.12053029 203.207856,8.12053029 C202.152913,8.12053029 201.278434,8.31433586 200.584393,8.70195283 C199.890352,9.0895698 199.321246,9.587927 198.87706,10.1970394 C198.37735,10.8615256 198.016454,11.7198074 197.794361,12.7719106 C197.572268,13.8240138 197.461223,14.8484148 197.461223,15.8451441 L197.461223,17.1741099 L188.966199,17.1741099 L188.966199,15.0976008 Z M236.001146,0.146735377 L244.49617,0.146735377 L244.49617,24.4003616 L247.660983,24.4003616 C250.603718,24.4003616 253.060588,24.801816 255.031665,25.6047368 C257.002742,26.4076577 258.599013,27.5289614 259.820526,28.9686816 C261.097562,30.5191494 261.902638,32.1803401 262.235778,33.9523034 C262.568918,35.7242667 262.763247,37.6900089 262.81877,39.8495892 L262.81877,43.1720037 C262.81877,48.3771459 261.555634,52.3640035 259.029323,55.1326961 C256.503013,57.9013887 252.463753,59.2857143 246.911422,59.2857143 L236.001146,59.2857143 L236.001146,0.146735377 Z M244.49617,31.8757943 L244.49617,50.8135572 L247.494414,50.8135572 C249.215636,50.8135572 250.562056,50.5643786 251.533714,50.0660139 C252.505372,49.5676492 253.241045,48.8754865 253.740754,47.9895048 C254.240464,47.1035232 254.545838,46.0514358 254.656884,44.833211 C254.767931,43.6149863 254.823454,42.2860337 254.823454,40.8463136 C254.823454,39.3512195 254.74017,38.07764 254.5736,37.0255368 C254.40703,35.9734336 254.073895,35.0597788 253.574185,34.2845448 C253.018952,33.5093109 252.269399,32.9140509 251.325503,32.498747 C250.381606,32.0834431 249.132351,31.8757943 247.577698,31.8757943 L244.49617,31.8757943 Z M267.149566,59.2857143 L267.149566,0.146735377 L275.64459,0.146735377 L275.64459,59.2857143 L267.149566,59.2857143 Z M323.678952,8.12053029 C322.901625,8.12053029 322.263117,8.21743307 321.763407,8.41124156 C321.263697,8.60505004 320.791756,8.95113143 320.34757,9.4494961 C319.903383,9.94786078 319.59801,10.556964 319.43144,11.2768241 C319.26487,11.9966842 319.126064,12.799593 319.015017,13.6855746 L318.265456,20.5795848 C318.209933,21.2994449 318.126649,21.9639212 318.015603,22.5730336 C317.904556,23.1267721 317.793511,23.6943456 317.682464,24.275771 C317.571418,24.8571965 317.40485,25.3693969 317.182757,25.8123877 C316.849617,26.5876217 316.447079,27.2659412 315.975131,27.8473666 C315.503183,28.4287921 315.045123,28.8856195 314.600936,29.2178626 L323.429098,59.2857143 L314.767505,59.2857143 L307.271896,32.955579 L302.524677,32.955579 L302.524677,59.2857143 L294.029654,59.2857143 L294.029654,0.146735377 L302.524677,0.146735377 L302.524677,25.4801463 L305.356352,25.4801463 C306.355771,25.4801463 307.160847,25.3417137 307.771604,25.0648445 C308.38236,24.7879752 308.882062,24.4003641 309.270725,23.9019994 C309.659389,23.4036347 309.937001,22.8360612 310.103571,22.1992619 C310.270141,21.5624626 310.408947,20.8564566 310.519994,20.0812226 L311.352839,13.0210917 C311.408362,12.7995963 311.477765,12.3427689 311.56105,11.6505957 C311.644335,10.9584226 311.797022,10.169357 312.019115,9.28337538 C312.241209,8.39739373 312.546582,7.48373887 312.935245,6.54238338 C313.323909,5.60102788 313.823611,4.71505953 314.434367,3.88445174 C315.48931,2.55547928 316.780208,1.60029465 318.307099,1.01886919 C319.83399,0.437443742 321.624589,0.146735377 323.678952,0.146735377 L323.678952,8.12053029 Z M356.055819,38.6036837 L351.891592,17.1741099 L351.725023,17.1741099 L347.560796,38.6036837 L356.055819,38.6036837 Z M335.068114,59.2857143 L348.310356,0.146735377 L355.389543,0.146735377 L368.631785,59.2857143 L360.136762,59.2857143 L357.638226,46.5774786 L346.061674,46.5774786 L343.563137,59.2857143 L335.068114,59.2857143 Z M24.3542936,142.285714 L24.3542936,103.911826 L24.1877245,103.911826 L13.0275954,142.285714 L4.53257183,142.285714 L4.53257183,83.1467354 L13.0275954,83.1467354 L13.0275954,121.603684 L13.1941645,121.603684 L24.3542936,83.1467354 L32.8493171,83.1467354 L32.8493171,142.285714 L24.3542936,142.285714 Z M50.1516819,98.0976008 C50.1516819,96.4363853 50.4986974,94.5537025 51.1927387,92.4494961 C51.8867801,90.3452897 52.9555877,88.5456665 54.3991937,87.0505725 C55.6762298,85.7769739 57.1198141,84.7248864 58.7299901,83.8942786 C60.340166,83.0636709 62.2001689,82.6483732 64.3100546,82.6483732 C66.8086034,82.6483732 68.9600993,83.0775141 70.7646068,83.9358088 C72.5691143,84.7941035 74.0543405,85.9430938 75.22033,87.3828139 C76.4418428,88.8225341 77.3302023,90.5390978 77.8854354,92.5325565 C78.4406685,94.5260152 78.7182809,96.63019 78.7182809,98.8451441 C78.7182809,99.9526212 78.6905196,101.073925 78.6349963,102.209089 C78.579473,103.344253 78.3712637,104.4794 78.0103622,105.614564 C77.6494607,106.749728 77.0664748,107.815658 76.2613868,108.812388 C75.4562988,109.809117 74.3042075,110.722772 72.8050782,111.55338 C74.3042075,112.162492 75.4562988,112.951558 76.2613868,113.9206 C77.0664748,114.889643 77.6494607,115.969416 78.0103622,117.159954 C78.3712637,118.350492 78.579473,119.651758 78.6349963,121.063791 C78.6905196,122.475825 78.7182809,123.929366 78.7182809,125.42446 C78.7182809,127.916284 78.4545491,130.241951 77.9270777,132.401531 C77.3996063,134.561111 76.5251273,136.360734 75.3036145,137.800455 C74.0821018,139.240175 72.5413531,140.430695 70.6813223,141.37205 C68.8212915,142.313406 66.5309894,142.784076 63.8103473,142.784076 C61.7559849,142.784076 59.8404596,142.424152 58.0637137,141.704292 C56.2869679,140.984432 54.7600998,139.987717 53.4830637,138.714119 C52.2060277,137.44052 51.2343843,135.807016 50.5681047,133.813557 C49.901825,131.820099 49.5686901,129.82667 49.5686901,127.833211 L49.5686901,125.590581 L58.0637137,125.590581 L58.1469983,127.916271 C58.1469983,128.691505 58.2441626,129.452884 58.4384942,130.200431 C58.6328257,130.947978 58.95208,131.626298 59.3962664,132.23541 C59.8404529,132.844523 60.4234389,133.34288 61.1452419,133.730497 C61.8670449,134.118114 62.7831657,134.311919 63.8936319,134.311919 C66.3921807,134.311919 68.0717356,133.522854 68.9323468,131.944699 C69.7929581,130.366544 70.2232573,128.22084 70.2232573,125.507521 C70.2232573,123.957053 70.1677348,122.503511 70.0566882,121.146852 C69.9456416,119.790192 69.6680292,118.724262 69.2238427,117.949028 C68.2244232,116.232438 66.558749,115.374156 64.22677,115.374156 L60.9786728,115.374156 L60.9786728,107.898724 L64.4766237,107.898724 C65.5315665,107.898724 66.4754486,107.704918 67.3082982,107.317301 C68.1411478,106.929684 68.8074175,106.265208 69.3071273,105.323852 C69.7513137,104.437871 70.0150455,103.385783 70.0983305,102.167559 C70.1816154,100.949334 70.2232573,99.86956 70.2232573,98.9282045 C70.2232573,97.9314751 70.1399736,96.948604 69.9734036,95.9795616 C69.8068337,95.0105191 69.5014601,94.1660806 69.0572737,93.4462205 C68.6130872,92.7817342 68.0162206,92.228004 67.2666559,91.7850132 C66.5170913,91.3420224 65.5593286,91.1205303 64.3933391,91.1205303 C63.3383963,91.1205303 62.4639173,91.3143359 61.769876,91.7019528 C61.0758346,92.0895698 60.5067292,92.587927 60.0625428,93.1970394 C59.562833,93.8615256 59.2019369,94.7198074 58.9798437,95.7719106 C58.7577505,96.8240138 58.6467055,97.8484148 58.6467055,98.8451441 L58.6467055,100.17411 L50.1516819,100.17411 L50.1516819,98.0976008 Z M138.474943,134.145799 C135.754301,134.145799 133.339073,133.702814 131.229188,132.816833 C129.119302,131.930851 127.453628,130.712645 126.232115,129.162177 C125.343742,128.0547 124.608069,126.78112 124.025074,125.3414 C123.44208,123.90168 122.984019,122.406608 122.650879,120.85614 C122.31774,119.305673 122.081769,117.727541 121.942961,116.1217 C121.804153,114.515858 121.734749,112.9931 121.734749,111.55338 C121.734749,108.009453 122.081765,104.617856 122.775806,101.378485 C123.469848,98.1391148 124.621939,95.6334856 126.232115,93.8615223 C127.675721,92.2556806 129.494082,91.1066904 131.687253,90.4145172 C133.880423,89.722344 136.142964,89.3762626 138.474943,89.3762626 L139.474358,89.3762626 L139.474358,83.1467354 L147.969381,83.1467354 L147.969381,89.3762626 L148.968796,89.3762626 C151.300775,89.3762626 153.563315,89.722344 155.756486,90.4145172 C157.949657,91.1066904 159.768018,92.2556806 161.211624,93.8615223 C162.8218,95.6334856 163.973891,98.1391148 164.667932,101.378485 C165.361974,104.617856 165.708989,108.009453 165.708989,111.55338 C165.708989,112.9931 165.639586,114.515858 165.500778,116.1217 C165.36197,117.727541 165.125999,119.305673 164.792859,120.85614 C164.459719,122.406608 164.001659,123.90168 163.418664,125.3414 C162.83567,126.78112 162.099997,128.0547 161.211624,129.162177 C159.990111,130.712645 158.324437,131.930851 156.214551,132.816833 C154.104665,133.702814 151.689438,134.145799 148.968796,134.145799 L147.969381,134.145799 L147.969381,142.285714 L139.474358,142.285714 L139.474358,134.145799 L138.474943,134.145799 Z M147.802812,97.0178161 L147.802812,126.670366 L149.635072,126.670366 C151.023155,126.670366 152.189127,126.421187 153.133023,125.922823 C154.076919,125.424458 154.854234,124.759982 155.46499,123.929374 C155.853653,123.431009 156.186788,122.725003 156.464405,121.811335 C156.742021,120.897666 156.977992,119.887108 157.172323,118.779631 C157.366655,117.672154 157.505461,116.495478 157.588746,115.249566 C157.672031,114.003654 157.713673,112.799291 157.713673,111.63644 C157.713673,110.528963 157.65815,109.338443 157.547104,108.064844 C157.436057,106.791246 157.26949,105.573039 157.047397,104.410188 C156.825303,103.247338 156.547691,102.181407 156.214551,101.212364 C155.881411,100.243322 155.492754,99.5096295 155.048568,99.0112648 C154.271241,98.2360309 153.424523,97.7238304 152.508389,97.4746481 C151.592254,97.2254658 150.551208,97.07319 149.385218,97.0178161 L147.802812,97.0178161 Z M138.05852,97.0178161 C136.892531,97.07319 135.851484,97.2254658 134.93535,97.4746481 C134.019215,97.7238304 133.172498,98.2360309 132.395171,99.0112648 C131.950985,99.5096295 131.562327,100.243322 131.229188,101.212364 C130.896048,102.181407 130.618435,103.247338 130.396342,104.410188 C130.174249,105.573039 130.007682,106.791246 129.896635,108.064844 C129.785588,109.338443 129.730066,110.528963 129.730066,111.63644 C129.730066,112.799291 129.771708,114.003654 129.854993,115.249566 C129.938278,116.495478 130.077084,117.672154 130.271415,118.779631 C130.465747,119.887108 130.701717,120.897666 130.979334,121.811335 C131.256951,122.725003 131.590085,123.431009 131.978749,123.929374 C132.589505,124.759982 133.36682,125.424458 134.310716,125.922823 C135.254612,126.421187 136.420584,126.670366 137.808667,126.670366 L139.640927,126.670366 L139.640927,97.0178161 L138.05852,97.0178161 Z M202.583222,142.285714 L202.583222,103.911826 L202.416653,103.911826 L191.256524,142.285714 L182.7615,142.285714 L182.7615,83.1467354 L191.256524,83.1467354 L191.256524,121.603684 L191.423093,121.603684 L202.583222,83.1467354 L211.078246,83.1467354 L211.078246,142.285714 L202.583222,142.285714 Z M242.039276,90.6221681 L242.039276,107.815663 C242.039276,108.701645 242.011515,110.21056 241.955991,112.342453 C241.900468,114.474347 241.761662,116.813857 241.539569,119.361054 C241.317475,121.908251 240.984341,124.427724 240.540154,126.919547 C240.095968,129.41137 239.48522,131.487859 238.707894,133.149074 C237.375335,135.973141 235.681899,138.201905 233.627537,139.835434 C231.573174,141.468962 229.074663,142.285714 226.131928,142.285714 L225.632221,142.285714 L225.632221,133.813557 C227.29792,133.702809 228.602698,133.204452 229.546594,132.318471 C230.49049,131.432489 231.267805,130.325029 231.878561,128.996056 C232.378271,127.833205 232.780809,126.421193 233.086187,124.759978 C233.391565,123.098762 233.627536,121.326825 233.794106,119.444114 C233.960676,117.561403 234.071721,115.623348 234.127244,113.629889 C234.182767,111.63643 234.210529,109.726061 234.210529,107.898724 L234.210529,83.1467354 L258.862754,83.1467354 L258.862754,142.285714 L250.36773,142.285714 L250.36773,90.6221681 L242.039276,90.6221681 Z M277.247818,83.1467354 L285.742841,83.1467354 L285.742841,107.400362 L288.907654,107.400362 C291.850389,107.400362 294.307259,107.801816 296.278336,108.604737 C298.249414,109.407658 299.845685,110.528961 301.067198,111.968682 C302.344234,113.519149 303.16319,115.18034 303.524092,116.952303 C303.884993,118.724267 304.065441,120.690009 304.065441,122.849589 L304.065441,126.172004 C304.065441,131.377146 302.802305,135.364003 300.275995,138.132696 C297.749684,140.901389 293.710424,142.285714 288.158093,142.285714 L277.247818,142.285714 L277.247818,83.1467354 Z M285.742841,114.875794 L285.742841,133.813557 L288.741085,133.813557 C290.462308,133.813557 291.808728,133.564379 292.780386,133.066014 C293.752043,132.567649 294.487716,131.875486 294.987426,130.989505 C295.487136,130.103523 295.792509,129.051436 295.903556,127.833211 C296.014603,126.614986 296.070125,125.286034 296.070125,123.846314 C296.070125,120.800752 295.598184,118.558144 294.654288,117.118424 C294.099055,116.34319 293.377263,115.775617 292.48889,115.415687 C291.600517,115.055757 290.379022,114.875794 288.82437,114.875794 L285.742841,114.875794 Z M321.117953,142.285714 L321.117953,83.1467354 L329.279838,83.1467354 L340.190113,114.460492 L340.356682,114.460492 L351.183673,83.1467354 L359.428843,83.1467354 L359.428843,142.285714 L350.93382,142.285714 L350.93382,106.320577 L350.767251,106.320577 L342.355511,131.737048 L338.108,131.737048 L329.779545,106.320577 L329.612976,106.320577 L329.612976,142.285714 L321.117953,142.285714 Z M377.3142,97.1008765 C377.3142,94.7198008 377.730618,92.615626 378.563468,90.7882888 C379.396318,88.9609517 380.506767,87.4381936 381.89485,86.2199688 C383.227409,85.0571179 384.740397,84.1711496 386.433858,83.5620372 C388.127318,82.9529248 389.834634,82.6483732 391.555857,82.6483732 C393.27708,82.6483732 394.984396,82.9529248 396.677857,83.5620372 C398.371317,84.1711496 399.912066,85.0571179 401.300149,86.2199688 C402.632708,87.4381936 403.715396,88.9609517 404.548246,90.7882888 C405.381096,92.615626 405.797514,94.7198008 405.797514,97.1008765 L405.797514,128.331573 C405.797514,130.823397 405.381096,132.955258 404.548246,134.727221 C403.715396,136.499184 402.632708,137.96657 401.300149,139.12942 C399.912066,140.347645 398.371317,141.2613 396.677857,141.870412 C394.984396,142.479525 393.27708,142.784076 391.555857,142.784076 C389.834634,142.784076 388.127318,142.479525 386.433858,141.870412 C384.740397,141.2613 383.227409,140.347645 381.89485,139.12942 C380.506767,137.96657 379.396318,136.499184 378.563468,134.727221 C377.730618,132.955258 377.3142,130.823397 377.3142,128.331573 L377.3142,97.1008765 Z M385.809223,128.331573 C385.809223,130.380406 386.378329,131.889321 387.516557,132.858363 C388.654784,133.827405 390.001204,134.311919 391.555857,134.311919 C393.11051,134.311919 394.45693,133.827405 395.595157,132.858363 C396.733385,131.889321 397.302491,130.380406 397.302491,128.331573 L397.302491,97.1008765 C397.302491,95.0520439 396.733385,93.5431291 395.595157,92.5740866 C394.45693,91.6050442 393.11051,91.1205303 391.555857,91.1205303 C390.001204,91.1205303 388.654784,91.6050442 387.516557,92.5740866 C386.378329,93.5431291 385.809223,95.0520439 385.809223,97.1008765 L385.809223,128.331573 Z M423.682871,142.285714 L423.682871,83.1467354 L436.092268,83.1467354 C438.81291,83.1467354 441.130973,83.562033 443.046528,84.3926408 C444.962082,85.2232486 446.530592,86.3307091 447.752104,87.7150554 C448.973617,89.0994017 449.848096,90.6913761 450.375568,92.4910263 C450.903039,94.2906765 451.166771,96.159516 451.166771,98.0976008 L451.166771,100.25717 C451.166771,101.863012 451.041845,103.219651 450.79199,104.327128 C450.542135,105.434605 450.167359,106.403633 449.667649,107.234241 C448.723753,108.784709 447.280168,110.113661 445.336853,111.221138 C447.335692,112.162494 448.807037,113.546819 449.750933,115.374156 C450.69483,117.201494 451.166771,119.69328 451.166771,122.849589 L451.166771,126.172004 C451.166771,131.377146 449.903634,135.364003 447.377324,138.132696 C444.851013,140.901389 440.811753,142.285714 435.259423,142.285714 L423.682871,142.285714 Z M432.177894,114.875794 L432.177894,133.813557 L435.842414,133.813557 C437.563637,133.813557 438.910057,133.564379 439.881715,133.066014 C440.853373,132.567649 441.589046,131.875486 442.088755,130.989505 C442.588465,130.103523 442.893839,129.051436 443.004885,127.833211 C443.115932,126.614986 443.171454,125.286034 443.171454,123.846314 C443.171454,122.35122 443.088171,121.049954 442.921601,119.942476 C442.755031,118.834999 442.421896,117.893658 441.922186,117.118424 C441.366953,116.34319 440.6174,115.775617 439.673503,115.415687 C438.729607,115.055757 437.480352,114.875794 435.925699,114.875794 L432.177894,114.875794 Z M432.177894,91.1205303 L432.177894,107.400362 L436.008983,107.400362 C438.840672,107.400362 440.742317,106.694356 441.713975,105.282322 C442.685633,103.870289 443.171454,101.807644 443.171454,99.0943252 C443.171454,96.4363803 442.63011,94.4429515 441.547406,93.113979 C440.464701,91.7850065 438.507534,91.1205303 435.675845,91.1205303 L432.177894,91.1205303 Z M77.9583097,180.100876 C77.9583097,177.719801 78.3747282,175.615626 79.2075779,173.788289 C80.0404275,171.960952 81.150877,170.438194 82.5389597,169.219969 C83.871519,168.057118 85.3845065,167.17115 87.0779674,166.562037 C88.7714282,165.952925 90.4787443,165.648373 92.1999669,165.648373 C93.9211894,165.648373 95.6285055,165.952925 97.3219664,166.562037 C99.0154273,167.17115 100.556176,168.057118 101.944259,169.219969 C103.276818,170.438194 104.359506,171.960952 105.192356,173.788289 C106.025206,175.615626 106.441624,177.719801 106.441624,180.100876 L106.441624,211.331573 C106.441624,213.823397 106.025206,215.955258 105.192356,217.727221 C104.359506,219.499184 103.276818,220.96657 101.944259,222.12942 C100.556176,223.347645 99.0154273,224.2613 97.3219664,224.870412 C95.6285055,225.479525 93.9211894,225.784076 92.1999669,225.784076 C90.4787443,225.784076 88.7714282,225.479525 87.0779674,224.870412 C85.3845065,224.2613 83.871519,223.347645 82.5389597,222.12942 C81.150877,220.96657 80.0404275,219.499184 79.2075779,217.727221 C78.3747282,215.955258 77.9583097,213.823397 77.9583097,211.331573 L77.9583097,180.100876 Z M86.4533333,211.331573 C86.4533333,213.380406 87.0224386,214.889321 88.1606664,215.858363 C89.2988943,216.827405 90.6453143,217.311919 92.1999669,217.311919 C93.7546195,217.311919 95.1010395,216.827405 96.2392673,215.858363 C97.3774951,214.889321 97.9466005,213.380406 97.9466005,211.331573 L97.9466005,180.100876 C97.9466005,178.052044 97.3774951,176.543129 96.2392673,175.574087 C95.1010395,174.605044 93.7546195,174.12053 92.1999669,174.12053 C90.6453143,174.12053 89.2988943,174.605044 88.1606664,175.574087 C87.0224386,176.543129 86.4533333,178.052044 86.4533333,180.100876 L86.4533333,211.331573 Z M162.78362,173.622168 L162.78362,190.815663 C162.78362,191.701645 162.755859,193.21056 162.700335,195.342453 C162.644812,197.474347 162.506006,199.813857 162.283913,202.361054 C162.061819,204.908251 161.728685,207.427724 161.284498,209.919547 C160.840312,212.41137 160.229564,214.487859 159.452238,216.149074 C158.119679,218.973141 156.426243,221.201905 154.371881,222.835434 C152.317518,224.468962 149.819007,225.285714 146.876272,225.285714 L146.376565,225.285714 L146.376565,216.813557 C148.042264,216.702809 149.347042,216.204452 150.290938,215.318471 C151.234834,214.432489 152.012149,213.325029 152.622905,211.996056 C153.122615,210.833205 153.525153,209.421193 153.830531,207.759978 C154.13591,206.098762 154.37188,204.326825 154.53845,202.444114 C154.70502,200.561403 154.816065,198.623348 154.871588,196.629889 C154.927111,194.63643 154.954873,192.726061 154.954873,190.898724 L154.954873,166.146735 L179.607098,166.146735 L179.607098,225.285714 L171.112074,225.285714 L171.112074,173.622168 L162.78362,173.622168 Z M212.98338,198.955579 L206.487185,198.955579 L206.487185,225.285714 L197.992162,225.285714 L197.992162,166.146735 L206.487185,166.146735 L206.487185,191.480146 L212.98338,191.480146 L212.98338,180.100876 C212.98338,177.719801 213.399799,175.615626 214.232648,173.788289 C215.065498,171.960952 216.175947,170.438194 217.56403,169.219969 C218.896589,168.057118 220.381816,167.17115 222.019753,166.562037 C223.657691,165.952925 225.337246,165.648373 227.058468,165.648373 C230.61196,165.648373 233.804502,166.838893 236.636191,169.219969 C237.96875,170.438194 239.051438,171.960952 239.884288,173.788289 C240.717138,175.615626 241.133556,177.719801 241.133556,180.100876 L241.133556,211.331573 C241.133556,213.823397 240.717138,215.955258 239.884288,217.727221 C239.051438,219.499184 237.96875,220.96657 236.636191,222.12942 C235.248108,223.347645 233.735121,224.2613 232.097183,224.870412 C230.459245,225.479525 228.779691,225.784076 227.058468,225.784076 C225.337246,225.784076 223.657691,225.479525 222.019753,224.870412 C220.381816,224.2613 218.896589,223.347645 217.56403,222.12942 C216.175947,220.96657 215.065498,219.499184 214.232648,217.727221 C213.399799,215.955258 212.98338,213.823397 212.98338,211.331573 L212.98338,198.955579 Z M221.478404,211.331573 C221.478404,213.380406 222.019748,214.889321 223.102452,215.858363 C224.185157,216.827405 225.503815,217.311919 227.058468,217.311919 C228.613121,217.311919 229.931779,216.827405 231.014484,215.858363 C232.097188,214.889321 232.638533,213.380406 232.638533,211.331573 L232.638533,180.100876 C232.638533,178.052044 232.097188,176.543129 231.014484,175.574087 C229.931779,174.605044 228.613121,174.12053 227.058468,174.12053 C225.503815,174.12053 224.185157,174.605044 223.102452,175.574087 C222.019748,176.543129 221.478404,178.052044 221.478404,180.100876 L221.478404,211.331573 Z M259.018913,166.146735 L283.338,166.146735 L283.338,174.12053 L267.513936,174.12053 L267.513936,190.400362 L270.845318,190.400362 C273.788053,190.400362 276.244923,190.787973 278.216,191.563207 C280.187078,192.338441 281.783349,193.445901 283.004862,194.885621 C284.281898,196.436089 285.086974,198.111123 285.420114,199.910773 C285.753253,201.710423 285.947582,203.690009 286.003105,205.849589 L286.003105,209.172004 C286.003105,214.377146 284.739969,218.364003 282.213659,221.132696 C279.687348,223.901389 275.648088,225.285714 270.095757,225.285714 L259.018913,225.285714 L259.018913,166.146735 Z M267.513936,197.875794 L267.513936,216.813557 L270.678749,216.813557 C272.399972,216.813557 273.746392,216.564379 274.71805,216.066014 C275.689707,215.567649 276.42538,214.875486 276.92509,213.989505 C277.4248,213.103523 277.730173,212.051436 277.84122,210.833211 C277.952267,209.614986 278.007789,208.286034 278.007789,206.846314 C278.007789,205.35122 277.910625,204.03611 277.716293,202.900946 C277.521962,201.765782 277.147185,200.838284 276.591952,200.118424 C276.036719,199.398564 275.314927,198.844834 274.426554,198.457217 C273.538181,198.0696 272.316686,197.875794 270.762034,197.875794 L267.513936,197.875794 Z M303.055617,225.285714 L303.055617,166.146735 L315.465014,166.146735 C318.185656,166.146735 320.503719,166.562033 322.419273,167.392641 C324.334827,168.223249 325.903337,169.330709 327.12485,170.715055 C328.346363,172.099402 329.220842,173.691376 329.748313,175.491026 C330.275785,177.290676 330.539516,179.159516 330.539516,181.097601 L330.539516,183.25717 C330.539516,184.863012 330.414591,186.219651 330.164736,187.327128 C329.914881,188.434605 329.540104,189.403633 329.040395,190.234241 C328.096498,191.784709 326.652914,193.113661 324.709598,194.221138 C326.708437,195.162494 328.179783,196.546819 329.123679,198.374156 C330.067575,200.201494 330.539516,202.69328 330.539516,205.849589 L330.539516,209.172004 C330.539516,214.377146 329.27638,218.364003 326.75007,221.132696 C324.223759,223.901389 320.184499,225.285714 314.632168,225.285714 L303.055617,225.285714 Z M311.55064,197.875794 L311.55064,216.813557 L315.21516,216.813557 C316.936383,216.813557 318.282803,216.564379 319.254461,216.066014 C320.226118,215.567649 320.961791,214.875486 321.461501,213.989505 C321.961211,213.103523 322.266584,212.051436 322.377631,210.833211 C322.488678,209.614986 322.5442,208.286034 322.5442,206.846314 C322.5442,205.35122 322.460916,204.049954 322.294346,202.942476 C322.127777,201.834999 321.794642,200.893658 321.294932,200.118424 C320.739699,199.34319 319.990145,198.775617 319.046249,198.415687 C318.102353,198.055757 316.853097,197.875794 315.298445,197.875794 L311.55064,197.875794 Z M311.55064,174.12053 L311.55064,190.400362 L315.381729,190.400362 C318.213418,190.400362 320.115063,189.694356 321.086721,188.282322 C322.058378,186.870289 322.5442,184.807644 322.5442,182.094325 C322.5442,179.43638 322.002856,177.442951 320.920151,176.113979 C319.837447,174.785007 317.88028,174.12053 315.048591,174.12053 L311.55064,174.12053 Z M368.746302,225.285714 L368.746302,186.911826 L368.579733,186.911826 L357.419604,225.285714 L348.92458,225.285714 L348.92458,166.146735 L357.419604,166.146735 L357.419604,204.603684 L357.586173,204.603684 L368.746302,166.146735 L377.241326,166.146735 L377.241326,225.285714 L368.746302,225.285714 Z" id="Музыка-из-фильмов-о" fill="#FFB0CC" opacity="0.828804348" filter="url(#filter-1)"></path>
            <path d="M91.4520318,59.2857143 L91.4520318,0.146735377 L99.6139172,0.146735377 L110.524193,31.4604925 L110.690762,31.4604925 L121.517753,0.146735377 L129.762923,0.146735377 L129.762923,59.2857143 L121.267899,59.2857143 L121.267899,23.3205768 L121.10133,23.3205768 L112.689591,48.7370481 L108.442079,48.7370481 L100.113625,23.3205768 L99.9470554,23.3205768 L99.9470554,59.2857143 L91.4520318,59.2857143 Z M149.147401,51.3119194 C149.924727,51.3119194 150.813087,51.2288598 151.812506,51.0627383 C152.811926,50.8966167 153.589241,50.5366921 154.144474,49.9829536 C154.58866,49.5399627 155.074482,48.8339567 155.601953,47.8649143 C156.129425,46.8958719 156.615246,45.5253896 157.059433,43.7534263 L157.808994,40.5140721 L144.983174,0.146735377 L153.977905,0.146735377 L161.973221,27.9719572 L162.13979,27.9719572 L168.386131,0.146735377 L177.380862,0.146735377 L165.054749,45.0823921 C164.277423,47.7957109 163.444586,50.2044373 162.556213,52.3086437 C161.66784,54.4128501 160.418584,56.1017273 158.808408,57.3753259 C157.475849,58.482803 156.073906,59.1611225 154.602539,59.4103048 C153.131171,59.6594872 151.507139,59.7840765 149.730393,59.7840765 L148.564409,59.7840765 L148.564409,51.3119194 L149.147401,51.3119194 Z M189.519585,15.0976008 C189.519585,13.4363853 189.8666,11.5537025 190.560642,9.4494961 C191.254683,7.3452897 192.323491,5.54566649 193.767097,4.05057247 C195.044133,2.77697386 196.487717,1.72488644 198.097893,0.894278649 C199.708069,0.06367086 201.568072,-0.351626805 203.677957,-0.351626805 C206.176506,-0.351626805 208.328002,0.0775141155 210.13251,0.935808831 C211.937017,1.79410355 213.422243,2.94309375 214.588233,4.38281392 C215.809746,5.82253409 216.698105,7.53909777 217.253338,9.53255647 C217.808571,11.5260152 218.086184,13.63019 218.086184,15.8451441 C218.086184,16.9526212 218.058422,18.0739249 218.002899,19.2090888 C217.947376,20.3442528 217.739167,21.4793998 217.378265,22.6145637 C217.017364,23.7497277 216.434378,24.8156584 215.62929,25.8123877 C214.824202,26.8091171 213.67211,27.722772 212.172981,28.5533797 C213.67211,29.1624921 214.824202,29.9515577 215.62929,30.9206001 C216.434378,31.8896425 217.017364,32.9694165 217.378265,34.1599543 C217.739167,35.3504921 217.947376,36.6517581 218.002899,38.0637914 C218.058422,39.4758246 218.086184,40.9293664 218.086184,42.4244605 C218.086184,44.9162838 217.822452,47.2419508 217.29498,49.401531 C216.767509,51.5611113 215.89303,53.3607345 214.671517,54.8004546 C213.450005,56.2401748 211.909256,57.4306948 210.049225,58.3720503 C208.189194,59.3134058 205.898892,59.7840765 203.17825,59.7840765 C201.123888,59.7840765 199.208362,59.4241518 197.431616,58.7042917 C195.654871,57.9844317 194.128003,56.9877173 192.850967,55.7141186 C191.57393,54.44052 190.602287,52.8070159 189.936007,50.8135572 C189.269728,48.8200985 188.936593,46.8266697 188.936593,44.833211 L188.936593,42.5905812 L197.431616,42.5905812 L197.514901,44.9162714 C197.514901,45.6915053 197.612065,46.4528844 197.806397,47.2004314 C198.000729,47.9479784 198.319983,48.6262979 198.764169,49.2354103 C199.208356,49.8445227 199.791342,50.3428799 200.513145,50.7304968 C201.234948,51.1181138 202.151068,51.3119194 203.261535,51.3119194 C205.760083,51.3119194 207.439638,50.5228538 208.30025,48.944699 C209.160861,47.3665442 209.59116,45.2208396 209.59116,42.5075208 C209.59116,40.957053 209.535638,39.5035111 209.424591,38.1468517 C209.313544,36.7901924 209.035932,35.7242617 208.591746,34.9490277 C207.592326,33.2324383 205.926652,32.3741565 203.594673,32.3741565 L200.346576,32.3741565 L200.346576,24.8987237 L203.844526,24.8987237 C204.899469,24.8987237 205.843351,24.7049182 206.676201,24.3173012 C207.509051,23.9296842 208.17532,23.265208 208.67503,22.3238525 C209.119217,21.4378708 209.382948,20.3857834 209.466233,19.1675586 C209.549518,17.9493339 209.59116,16.86956 209.59116,15.9282045 C209.59116,14.9314751 209.507876,13.948604 209.341306,12.9795616 C209.174736,12.0105191 208.869363,11.1660806 208.425176,10.4462205 C207.98099,9.78173424 207.384123,9.22800402 206.634559,8.78501319 C205.884994,8.34202237 204.927231,8.12053029 203.761242,8.12053029 C202.706299,8.12053029 201.83182,8.31433586 201.137779,8.70195283 C200.443737,9.0895698 199.874632,9.587927 199.430446,10.1970394 C198.930736,10.8615256 198.56984,11.7198074 198.347746,12.7719106 C198.125653,13.8240138 198.014608,14.8484148 198.014608,15.8451441 L198.014608,17.1741099 L189.519585,17.1741099 L189.519585,15.0976008 Z M236.554532,0.146735377 L245.049556,0.146735377 L245.049556,24.4003616 L248.214368,24.4003616 C251.157104,24.4003616 253.613973,24.801816 255.585051,25.6047368 C257.556128,26.4076577 259.152399,27.5289614 260.373912,28.9686816 C261.650948,30.5191494 262.456024,32.1803401 262.789164,33.9523034 C263.122304,35.7242667 263.316632,37.6900089 263.372156,39.8495892 L263.372156,43.1720037 C263.372156,48.3771459 262.109019,52.3640035 259.582709,55.1326961 C257.056398,57.9013887 253.017138,59.2857143 247.464807,59.2857143 L236.554532,59.2857143 L236.554532,0.146735377 Z M245.049556,31.8757943 L245.049556,50.8135572 L248.047799,50.8135572 C249.769022,50.8135572 251.115442,50.5643786 252.0871,50.0660139 C253.058758,49.5676492 253.79443,48.8754865 254.29414,47.9895048 C254.79385,47.1035232 255.099224,46.0514358 255.21027,44.833211 C255.321317,43.6149863 255.376839,42.2860337 255.376839,40.8463136 C255.376839,39.3512195 255.293556,38.07764 255.126986,37.0255368 C254.960416,35.9734336 254.627281,35.0597788 254.127571,34.2845448 C253.572338,33.5093109 252.822785,32.9140509 251.878888,32.498747 C250.934992,32.0834431 249.685736,31.8757943 248.131084,31.8757943 L245.049556,31.8757943 Z M267.702952,59.2857143 L267.702952,0.146735377 L276.197976,0.146735377 L276.197976,59.2857143 L267.702952,59.2857143 Z M324.232337,8.12053029 C323.455011,8.12053029 322.816503,8.21743307 322.316793,8.41124156 C321.817083,8.60505004 321.345142,8.95113143 320.900956,9.4494961 C320.456769,9.94786078 320.151396,10.556964 319.984826,11.2768241 C319.818256,11.9966842 319.679449,12.799593 319.568403,13.6855746 L318.818842,20.5795848 C318.763319,21.2994449 318.680035,21.9639212 318.568988,22.5730336 C318.457942,23.1267721 318.346897,23.6943456 318.23585,24.275771 C318.124804,24.8571965 317.958236,25.3693969 317.736143,25.8123877 C317.403003,26.5876217 317.000465,27.2659412 316.528517,27.8473666 C316.056569,28.4287921 315.598508,28.8856195 315.154322,29.2178626 L323.982484,59.2857143 L315.320891,59.2857143 L307.825282,32.955579 L303.078063,32.955579 L303.078063,59.2857143 L294.583039,59.2857143 L294.583039,0.146735377 L303.078063,0.146735377 L303.078063,25.4801463 L305.909737,25.4801463 C306.909157,25.4801463 307.714233,25.3417137 308.324989,25.0648445 C308.935746,24.7879752 309.435448,24.4003641 309.824111,23.9019994 C310.212774,23.4036347 310.490387,22.8360612 310.656957,22.1992619 C310.823526,21.5624626 310.962333,20.8564566 311.073379,20.0812226 L311.906225,13.0210917 C311.961748,12.7995963 312.031151,12.3427689 312.114436,11.6505957 C312.197721,10.9584226 312.350408,10.169357 312.572501,9.28337538 C312.794594,8.39739373 313.099968,7.48373887 313.488631,6.54238338 C313.877294,5.60102788 314.376997,4.71505953 314.987753,3.88445174 C316.042696,2.55547928 317.333593,1.60029465 318.860484,1.01886919 C320.387375,0.437443742 322.177975,0.146735377 324.232337,0.146735377 L324.232337,8.12053029 Z M356.609205,38.6036837 L352.444978,17.1741099 L352.278408,17.1741099 L348.114181,38.6036837 L356.609205,38.6036837 Z M335.621499,59.2857143 L348.863742,0.146735377 L355.942928,0.146735377 L369.185171,59.2857143 L360.690148,59.2857143 L358.191611,46.5774786 L346.615059,46.5774786 L344.116523,59.2857143 L335.621499,59.2857143 Z M24.9076792,142.285714 L24.9076792,103.911826 L24.7411101,103.911826 L13.5809811,142.285714 L5.08595751,142.285714 L5.08595751,83.1467354 L13.5809811,83.1467354 L13.5809811,121.603684 L13.7475502,121.603684 L24.9076792,83.1467354 L33.4027028,83.1467354 L33.4027028,142.285714 L24.9076792,142.285714 Z M50.7050676,98.0976008 C50.7050676,96.4363853 51.0520831,94.5537025 51.7461244,92.4494961 C52.4401658,90.3452897 53.5089734,88.5456665 54.9525794,87.0505725 C56.2296155,85.7769739 57.6731998,84.7248864 59.2833757,83.8942786 C60.8935517,83.0636709 62.7535546,82.6483732 64.8634403,82.6483732 C67.3619891,82.6483732 69.513485,83.0775141 71.3179925,83.9358088 C73.1225,84.7941035 74.6077262,85.9430938 75.7737157,87.3828139 C76.9952284,88.8225341 77.883588,90.5390978 78.4388211,92.5325565 C78.9940542,94.5260152 79.2716666,96.63019 79.2716666,98.8451441 C79.2716666,99.9526212 79.2439053,101.073925 79.188382,102.209089 C79.1328587,103.344253 78.9246494,104.4794 78.5637479,105.614564 C78.2028464,106.749728 77.6198604,107.815658 76.8147725,108.812388 C76.0096845,109.809117 74.8575932,110.722772 73.3584639,111.55338 C74.8575932,112.162492 76.0096845,112.951558 76.8147725,113.9206 C77.6198604,114.889643 78.2028464,115.969416 78.5637479,117.159954 C78.9246494,118.350492 79.1328587,119.651758 79.188382,121.063791 C79.2439053,122.475825 79.2716666,123.929366 79.2716666,125.42446 C79.2716666,127.916284 79.0079348,130.241951 78.4804634,132.401531 C77.952992,134.561111 77.078513,136.360734 75.8570002,137.800455 C74.6354874,139.240175 73.0947388,140.430695 71.234708,141.37205 C69.3746772,142.313406 67.0843751,142.784076 64.363733,142.784076 C62.3093706,142.784076 60.3938452,142.424152 58.6170994,141.704292 C56.8403535,140.984432 55.3134855,139.987717 54.0364494,138.714119 C52.7594133,137.44052 51.78777,135.807016 51.1214903,133.813557 C50.4552106,131.820099 50.1220758,129.82667 50.1220758,127.833211 L50.1220758,125.590581 L58.6170994,125.590581 L58.7003839,127.916271 C58.7003839,128.691505 58.7975483,129.452884 58.9918798,130.200431 C59.1862114,130.947978 59.5054656,131.626298 59.9496521,132.23541 C60.3938386,132.844523 60.9768246,133.34288 61.6986276,133.730497 C62.4204306,134.118114 63.3365514,134.311919 64.4470175,134.311919 C66.9455664,134.311919 68.6251212,133.522854 69.4857325,131.944699 C70.3463438,130.366544 70.776643,128.22084 70.776643,125.507521 C70.776643,123.957053 70.7211205,122.503511 70.6100739,121.146852 C70.4990273,119.790192 70.2214149,118.724262 69.7772284,117.949028 C68.7778089,116.232438 67.1121346,115.374156 64.7801557,115.374156 L61.5320585,115.374156 L61.5320585,107.898724 L65.0300094,107.898724 C66.0849522,107.898724 67.0288343,107.704918 67.8616839,107.317301 C68.6945335,106.929684 69.3608032,106.265208 69.860513,105.323852 C70.3046994,104.437871 70.5684312,103.385783 70.6517161,102.167559 C70.7350011,100.949334 70.776643,99.86956 70.776643,98.9282045 C70.776643,97.9314751 70.6933593,96.948604 70.5267893,95.9795616 C70.3602194,95.0105191 70.0548458,94.1660806 69.6106593,93.4462205 C69.1664729,92.7817342 68.5696063,92.228004 67.8200416,91.7850132 C67.070477,91.3420224 66.1127143,91.1205303 64.9467248,91.1205303 C63.891782,91.1205303 63.017303,91.3143359 62.3232616,91.7019528 C61.6292203,92.0895698 61.0601149,92.587927 60.6159285,93.1970394 C60.1162187,93.8615256 59.7553226,94.7198074 59.5332294,95.7719106 C59.3111362,96.8240138 59.2000912,97.8484148 59.2000912,98.8451441 L59.2000912,100.17411 L50.7050676,100.17411 L50.7050676,98.0976008 Z M139.028329,134.145799 C136.307687,134.145799 133.892459,133.702814 131.782573,132.816833 C129.672688,131.930851 128.007013,130.712645 126.785501,129.162177 C125.897128,128.0547 125.161455,126.78112 124.57846,125.3414 C123.995465,123.90168 123.537405,122.406608 123.204265,120.85614 C122.871125,119.305673 122.635155,117.727541 122.496347,116.1217 C122.357538,114.515858 122.288135,112.9931 122.288135,111.55338 C122.288135,108.009453 122.635151,104.617856 123.329192,101.378485 C124.023233,98.1391148 125.175325,95.6334856 126.785501,93.8615223 C128.229107,92.2556806 130.047468,91.1066904 132.240638,90.4145172 C134.433809,89.722344 136.69635,89.3762626 139.028329,89.3762626 L140.027743,89.3762626 L140.027743,83.1467354 L148.522767,83.1467354 L148.522767,89.3762626 L149.522181,89.3762626 C151.85416,89.3762626 154.116701,89.722344 156.309872,90.4145172 C158.503042,91.1066904 160.321404,92.2556806 161.76501,93.8615223 C163.375185,95.6334856 164.527277,98.1391148 165.221318,101.378485 C165.915359,104.617856 166.262375,108.009453 166.262375,111.55338 C166.262375,112.9931 166.192972,114.515858 166.054164,116.1217 C165.915355,117.727541 165.679385,119.305673 165.346245,120.85614 C165.013105,122.406608 164.555045,123.90168 163.97205,125.3414 C163.389055,126.78112 162.653382,128.0547 161.76501,129.162177 C160.543497,130.712645 158.877823,131.930851 156.767937,132.816833 C154.658051,133.702814 152.242823,134.145799 149.522181,134.145799 L148.522767,134.145799 L148.522767,142.285714 L140.027743,142.285714 L140.027743,134.145799 L139.028329,134.145799 Z M148.356198,97.0178161 L148.356198,126.670366 L150.188458,126.670366 C151.57654,126.670366 152.742512,126.421187 153.686409,125.922823 C154.630305,125.424458 155.40762,124.759982 156.018376,123.929374 C156.407039,123.431009 156.740174,122.725003 157.01779,121.811335 C157.295407,120.897666 157.531378,119.887108 157.725709,118.779631 C157.920041,117.672154 158.058847,116.495478 158.142132,115.249566 C158.225417,114.003654 158.267059,112.799291 158.267059,111.63644 C158.267059,110.528963 158.211536,109.338443 158.10049,108.064844 C157.989443,106.791246 157.822875,105.573039 157.600782,104.410188 C157.378689,103.247338 157.101077,102.181407 156.767937,101.212364 C156.434797,100.243322 156.04614,99.5096295 155.601953,99.0112648 C154.824627,98.2360309 153.977909,97.7238304 153.061775,97.4746481 C152.14564,97.2254658 151.104594,97.07319 149.938604,97.0178161 L148.356198,97.0178161 Z M138.611906,97.0178161 C137.445917,97.07319 136.40487,97.2254658 135.488736,97.4746481 C134.572601,97.7238304 133.725883,98.2360309 132.948557,99.0112648 C132.50437,99.5096295 132.115713,100.243322 131.782573,101.212364 C131.449433,102.181407 131.171821,103.247338 130.949728,104.410188 C130.727635,105.573039 130.561067,106.791246 130.450021,108.064844 C130.338974,109.338443 130.283451,110.528963 130.283451,111.63644 C130.283451,112.799291 130.325093,114.003654 130.408378,115.249566 C130.491663,116.495478 130.630469,117.672154 130.824801,118.779631 C131.019133,119.887108 131.255103,120.897666 131.53272,121.811335 C131.810336,122.725003 132.143471,123.431009 132.532134,123.929374 C133.142891,124.759982 133.920205,125.424458 134.864101,125.922823 C135.807998,126.421187 136.97397,126.670366 138.362052,126.670366 L140.194312,126.670366 L140.194312,97.0178161 L138.611906,97.0178161 Z M203.136608,142.285714 L203.136608,103.911826 L202.970039,103.911826 L191.80991,142.285714 L183.314886,142.285714 L183.314886,83.1467354 L191.80991,83.1467354 L191.80991,121.603684 L191.976479,121.603684 L203.136608,83.1467354 L211.631631,83.1467354 L211.631631,142.285714 L203.136608,142.285714 Z M242.592662,90.6221681 L242.592662,107.815663 C242.592662,108.701645 242.5649,110.21056 242.509377,112.342453 C242.453854,114.474347 242.315048,116.813857 242.092954,119.361054 C241.870861,121.908251 241.537726,124.427724 241.09354,126.919547 C240.649353,129.41137 240.038606,131.487859 239.26128,133.149074 C237.92872,135.973141 236.235285,138.201905 234.180923,139.835434 C232.12656,141.468962 229.628049,142.285714 226.685313,142.285714 L226.185606,142.285714 L226.185606,133.813557 C227.851305,133.702809 229.156084,133.204452 230.09998,132.318471 C231.043876,131.432489 231.821191,130.325029 232.431947,128.996056 C232.931657,127.833205 233.334195,126.421193 233.639573,124.759978 C233.944951,123.098762 234.180922,121.326825 234.347492,119.444114 C234.514062,117.561403 234.625106,115.623348 234.68063,113.629889 C234.736153,111.63643 234.763914,109.726061 234.763914,107.898724 L234.763914,83.1467354 L259.41614,83.1467354 L259.41614,142.285714 L250.921116,142.285714 L250.921116,90.6221681 L242.592662,90.6221681 Z M277.801204,83.1467354 L286.296227,83.1467354 L286.296227,107.400362 L289.46104,107.400362 C292.403775,107.400362 294.860645,107.801816 296.831722,108.604737 C298.8028,109.407658 300.399071,110.528961 301.620583,111.968682 C302.89762,113.519149 303.716576,115.18034 304.077478,116.952303 C304.438379,118.724267 304.618827,120.690009 304.618827,122.849589 L304.618827,126.172004 C304.618827,131.377146 303.355691,135.364003 300.82938,138.132696 C298.30307,140.901389 294.26381,142.285714 288.711479,142.285714 L277.801204,142.285714 L277.801204,83.1467354 Z M286.296227,114.875794 L286.296227,133.813557 L289.294471,133.813557 C291.015693,133.813557 292.362113,133.564379 293.333771,133.066014 C294.305429,132.567649 295.041102,131.875486 295.540812,130.989505 C296.040521,130.103523 296.345895,129.051436 296.456942,127.833211 C296.567988,126.614986 296.623511,125.286034 296.623511,123.846314 C296.623511,120.800752 296.15157,118.558144 295.207673,117.118424 C294.65244,116.34319 293.930648,115.775617 293.042275,115.415687 C292.153902,115.055757 290.932408,114.875794 289.377755,114.875794 L286.296227,114.875794 Z M321.671338,142.285714 L321.671338,83.1467354 L329.833224,83.1467354 L340.743499,114.460492 L340.910068,114.460492 L351.737059,83.1467354 L359.982229,83.1467354 L359.982229,142.285714 L351.487205,142.285714 L351.487205,106.320577 L351.320636,106.320577 L342.908897,131.737048 L338.661385,131.737048 L330.332931,106.320577 L330.166362,106.320577 L330.166362,142.285714 L321.671338,142.285714 Z M377.867586,97.1008765 C377.867586,94.7198008 378.284004,92.615626 379.116854,90.7882888 C379.949703,88.9609517 381.060153,87.4381936 382.448235,86.2199688 C383.780795,85.0571179 385.293782,84.1711496 386.987243,83.5620372 C388.680704,82.9529248 390.38802,82.6483732 392.109243,82.6483732 C393.830465,82.6483732 395.537781,82.9529248 397.231242,83.5620372 C398.924703,84.1711496 400.465452,85.0571179 401.853534,86.2199688 C403.186094,87.4381936 404.268782,88.9609517 405.101632,90.7882888 C405.934481,92.615626 406.3509,94.7198008 406.3509,97.1008765 L406.3509,128.331573 C406.3509,130.823397 405.934481,132.955258 405.101632,134.727221 C404.268782,136.499184 403.186094,137.96657 401.853534,139.12942 C400.465452,140.347645 398.924703,141.2613 397.231242,141.870412 C395.537781,142.479525 393.830465,142.784076 392.109243,142.784076 C390.38802,142.784076 388.680704,142.479525 386.987243,141.870412 C385.293782,141.2613 383.780795,140.347645 382.448235,139.12942 C381.060153,137.96657 379.949703,136.499184 379.116854,134.727221 C378.284004,132.955258 377.867586,130.823397 377.867586,128.331573 L377.867586,97.1008765 Z M386.362609,128.331573 C386.362609,130.380406 386.931714,131.889321 388.069942,132.858363 C389.20817,133.827405 390.55459,134.311919 392.109243,134.311919 C393.663895,134.311919 395.010315,133.827405 396.148543,132.858363 C397.286771,131.889321 397.855876,130.380406 397.855876,128.331573 L397.855876,97.1008765 C397.855876,95.0520439 397.286771,93.5431291 396.148543,92.5740866 C395.010315,91.6050442 393.663895,91.1205303 392.109243,91.1205303 C390.55459,91.1205303 389.20817,91.6050442 388.069942,92.5740866 C386.931714,93.5431291 386.362609,95.0520439 386.362609,97.1008765 L386.362609,128.331573 Z M424.236257,142.285714 L424.236257,83.1467354 L436.645654,83.1467354 C439.366296,83.1467354 441.684359,83.562033 443.599913,84.3926408 C445.515467,85.2232486 447.083977,86.3307091 448.30549,87.7150554 C449.527003,89.0994017 450.401482,90.6913761 450.928953,92.4910263 C451.456425,94.2906765 451.720156,96.159516 451.720156,98.0976008 L451.720156,100.25717 C451.720156,101.863012 451.595231,103.219651 451.345376,104.327128 C451.095521,105.434605 450.720744,106.403633 450.221035,107.234241 C449.277138,108.784709 447.833554,110.113661 445.890238,111.221138 C447.889077,112.162494 449.360423,113.546819 450.304319,115.374156 C451.248215,117.201494 451.720156,119.69328 451.720156,122.849589 L451.720156,126.172004 C451.720156,131.377146 450.45702,135.364003 447.93071,138.132696 C445.404399,140.901389 441.365139,142.285714 435.812808,142.285714 L424.236257,142.285714 Z M432.73128,114.875794 L432.73128,133.813557 L436.3958,133.813557 C438.117023,133.813557 439.463443,133.564379 440.435101,133.066014 C441.406758,132.567649 442.142431,131.875486 442.642141,130.989505 C443.141851,130.103523 443.447224,129.051436 443.558271,127.833211 C443.669318,126.614986 443.72484,125.286034 443.72484,123.846314 C443.72484,122.35122 443.641556,121.049954 443.474986,119.942476 C443.308416,118.834999 442.975282,117.893658 442.475572,117.118424 C441.920339,116.34319 441.170785,115.775617 440.226889,115.415687 C439.282993,115.055757 438.033737,114.875794 436.479085,114.875794 L432.73128,114.875794 Z M432.73128,91.1205303 L432.73128,107.400362 L436.562369,107.400362 C439.394058,107.400362 441.295703,106.694356 442.267361,105.282322 C443.239018,103.870289 443.72484,101.807644 443.72484,99.0943252 C443.72484,96.4363803 443.183496,94.4429515 442.100791,93.113979 C441.018087,91.7850065 439.06092,91.1205303 436.229231,91.1205303 L432.73128,91.1205303 Z M78.5116954,180.100876 C78.5116954,177.719801 78.9281139,175.615626 79.7609635,173.788289 C80.5938131,171.960952 81.7042626,170.438194 83.0923453,169.219969 C84.4249047,168.057118 85.9378922,167.17115 87.631353,166.562037 C89.3248139,165.952925 91.03213,165.648373 92.7533526,165.648373 C94.4745751,165.648373 96.1818912,165.952925 97.8753521,166.562037 C99.568813,167.17115 101.109562,168.057118 102.497644,169.219969 C103.830204,170.438194 104.912892,171.960952 105.745742,173.788289 C106.578591,175.615626 106.99501,177.719801 106.99501,180.100876 L106.99501,211.331573 C106.99501,213.823397 106.578591,215.955258 105.745742,217.727221 C104.912892,219.499184 103.830204,220.96657 102.497644,222.12942 C101.109562,223.347645 99.568813,224.2613 97.8753521,224.870412 C96.1818912,225.479525 94.4745751,225.784076 92.7533526,225.784076 C91.03213,225.784076 89.3248139,225.479525 87.631353,224.870412 C85.9378922,224.2613 84.4249047,223.347645 83.0923453,222.12942 C81.7042626,220.96657 80.5938131,219.499184 79.7609635,217.727221 C78.9281139,215.955258 78.5116954,213.823397 78.5116954,211.331573 L78.5116954,180.100876 Z M87.006719,211.331573 C87.006719,213.380406 87.5758243,214.889321 88.7140521,215.858363 C89.8522799,216.827405 91.1986999,217.311919 92.7533526,217.311919 C94.3080052,217.311919 95.6544252,216.827405 96.792653,215.858363 C97.9308808,214.889321 98.4999862,213.380406 98.4999862,211.331573 L98.4999862,180.100876 C98.4999862,178.052044 97.9308808,176.543129 96.792653,175.574087 C95.6544252,174.605044 94.3080052,174.12053 92.7533526,174.12053 C91.1986999,174.12053 89.8522799,174.605044 88.7140521,175.574087 C87.5758243,176.543129 87.006719,178.052044 87.006719,180.100876 L87.006719,211.331573 Z M163.337006,173.622168 L163.337006,190.815663 C163.337006,191.701645 163.309244,193.21056 163.253721,195.342453 C163.198198,197.474347 163.059392,199.813857 162.837298,202.361054 C162.615205,204.908251 162.28207,207.427724 161.837884,209.919547 C161.393697,212.41137 160.78295,214.487859 160.005624,216.149074 C158.673064,218.973141 156.979629,221.201905 154.925267,222.835434 C152.870904,224.468962 150.372393,225.285714 147.429657,225.285714 L146.92995,225.285714 L146.92995,216.813557 C148.595649,216.702809 149.900428,216.204452 150.844324,215.318471 C151.78822,214.432489 152.565535,213.325029 153.176291,211.996056 C153.676001,210.833205 154.078539,209.421193 154.383917,207.759978 C154.689295,206.098762 154.925266,204.326825 155.091836,202.444114 C155.258406,200.561403 155.36945,198.623348 155.424974,196.629889 C155.480497,194.63643 155.508258,192.726061 155.508258,190.898724 L155.508258,166.146735 L180.160484,166.146735 L180.160484,225.285714 L171.66546,225.285714 L171.66546,173.622168 L163.337006,173.622168 Z M213.536766,198.955579 L207.040571,198.955579 L207.040571,225.285714 L198.545548,225.285714 L198.545548,166.146735 L207.040571,166.146735 L207.040571,191.480146 L213.536766,191.480146 L213.536766,180.100876 C213.536766,177.719801 213.953184,175.615626 214.786034,173.788289 C215.618883,171.960952 216.729333,170.438194 218.117416,169.219969 C219.449975,168.057118 220.935201,167.17115 222.573139,166.562037 C224.211076,165.952925 225.890631,165.648373 227.611854,165.648373 C231.165345,165.648373 234.357888,166.838893 237.189576,169.219969 C238.522136,170.438194 239.604824,171.960952 240.437674,173.788289 C241.270523,175.615626 241.686942,177.719801 241.686942,180.100876 L241.686942,211.331573 C241.686942,213.823397 241.270523,215.955258 240.437674,217.727221 C239.604824,219.499184 238.522136,220.96657 237.189576,222.12942 C235.801494,223.347645 234.288506,224.2613 232.650569,224.870412 C231.012631,225.479525 229.333076,225.784076 227.611854,225.784076 C225.890631,225.784076 224.211076,225.479525 222.573139,224.870412 C220.935201,224.2613 219.449975,223.347645 218.117416,222.12942 C216.729333,220.96657 215.618883,219.499184 214.786034,217.727221 C213.953184,215.955258 213.536766,213.823397 213.536766,211.331573 L213.536766,198.955579 Z M222.031789,211.331573 C222.031789,213.380406 222.573133,214.889321 223.655838,215.858363 C224.738542,216.827405 226.057201,217.311919 227.611854,217.311919 C229.166506,217.311919 230.485165,216.827405 231.56787,215.858363 C232.650574,214.889321 233.191918,213.380406 233.191918,211.331573 L233.191918,180.100876 C233.191918,178.052044 232.650574,176.543129 231.56787,175.574087 C230.485165,174.605044 229.166506,174.12053 227.611854,174.12053 C226.057201,174.12053 224.738542,174.605044 223.655838,175.574087 C222.573133,176.543129 222.031789,178.052044 222.031789,180.100876 L222.031789,211.331573 Z M259.572298,166.146735 L283.891386,166.146735 L283.891386,174.12053 L268.067322,174.12053 L268.067322,190.400362 L271.398704,190.400362 C274.341439,190.400362 276.798309,190.787973 278.769386,191.563207 C280.740464,192.338441 282.336735,193.445901 283.558247,194.885621 C284.835284,196.436089 285.640359,198.111123 285.973499,199.910773 C286.306639,201.710423 286.500968,203.690009 286.556491,205.849589 L286.556491,209.172004 C286.556491,214.377146 285.293355,218.364003 282.767044,221.132696 C280.240734,223.901389 276.201474,225.285714 270.649143,225.285714 L259.572298,225.285714 L259.572298,166.146735 Z M268.067322,197.875794 L268.067322,216.813557 L271.232135,216.813557 C272.953357,216.813557 274.299777,216.564379 275.271435,216.066014 C276.243093,215.567649 276.978766,214.875486 277.478476,213.989505 C277.978185,213.103523 278.283559,212.051436 278.394606,210.833211 C278.505652,209.614986 278.561175,208.286034 278.561175,206.846314 C278.561175,205.35122 278.46401,204.03611 278.269679,202.900946 C278.075347,201.765782 277.700571,200.838284 277.145337,200.118424 C276.590104,199.398564 275.868312,198.844834 274.979939,198.457217 C274.091566,198.0696 272.870072,197.875794 271.315419,197.875794 L268.067322,197.875794 Z M303.609002,225.285714 L303.609002,166.146735 L316.018399,166.146735 C318.739041,166.146735 321.057105,166.562033 322.972659,167.392641 C324.888213,168.223249 326.456723,169.330709 327.678236,170.715055 C328.899748,172.099402 329.774227,173.691376 330.301699,175.491026 C330.82917,177.290676 331.092902,179.159516 331.092902,181.097601 L331.092902,183.25717 C331.092902,184.863012 330.967977,186.219651 330.718122,187.327128 C330.468267,188.434605 330.09349,189.403633 329.59378,190.234241 C328.649884,191.784709 327.2063,193.113661 325.262984,194.221138 C327.261823,195.162494 328.733169,196.546819 329.677065,198.374156 C330.620961,200.201494 331.092902,202.69328 331.092902,205.849589 L331.092902,209.172004 C331.092902,214.377146 329.829766,218.364003 327.303455,221.132696 C324.777145,223.901389 320.737885,225.285714 315.185554,225.285714 L303.609002,225.285714 Z M312.104026,197.875794 L312.104026,216.813557 L315.768546,216.813557 C317.489768,216.813557 318.836188,216.564379 319.807846,216.066014 C320.779504,215.567649 321.515177,214.875486 322.014887,213.989505 C322.514596,213.103523 322.81997,212.051436 322.931017,210.833211 C323.042063,209.614986 323.097586,208.286034 323.097586,206.846314 C323.097586,205.35122 323.014302,204.049954 322.847732,202.942476 C322.681162,201.834999 322.348027,200.893658 321.848318,200.118424 C321.293085,199.34319 320.543531,198.775617 319.599635,198.415687 C318.655739,198.055757 317.406483,197.875794 315.85183,197.875794 L312.104026,197.875794 Z M312.104026,174.12053 L312.104026,190.400362 L315.935115,190.400362 C318.766804,190.400362 320.668448,189.694356 321.640106,188.282322 C322.611764,186.870289 323.097586,184.807644 323.097586,182.094325 C323.097586,179.43638 322.556242,177.442951 321.473537,176.113979 C320.390833,174.785007 318.433665,174.12053 315.601977,174.12053 L312.104026,174.12053 Z M369.299688,225.285714 L369.299688,186.911826 L369.133119,186.911826 L357.97299,225.285714 L349.477966,225.285714 L349.477966,166.146735 L357.97299,166.146735 L357.97299,204.603684 L358.139559,204.603684 L369.299688,166.146735 L377.794711,166.146735 L377.794711,225.285714 L369.299688,225.285714 Z" id="Музыка-из-фильмов-о" fill="#F871A1"></path>
            <path d="M92.4204568,59.2857143 L92.4204568,0.146735377 L100.582342,0.146735377 L111.492618,31.4604925 L111.659187,31.4604925 L122.486178,0.146735377 L130.731347,0.146735377 L130.731347,59.2857143 L122.236324,59.2857143 L122.236324,23.3205768 L122.069755,23.3205768 L113.658016,48.7370481 L109.410504,48.7370481 L101.082049,23.3205768 L100.91548,23.3205768 L100.91548,59.2857143 L92.4204568,59.2857143 Z M150.115826,51.3119194 C150.893152,51.3119194 151.781512,51.2288598 152.780931,51.0627383 C153.780351,50.8966167 154.557666,50.5366921 155.112899,49.9829536 C155.557085,49.5399627 156.042907,48.8339567 156.570378,47.8649143 C157.09785,46.8958719 157.583671,45.5253896 158.027858,43.7534263 L158.777419,40.5140721 L145.951599,0.146735377 L154.946329,0.146735377 L162.941646,27.9719572 L163.108215,27.9719572 L169.354556,0.146735377 L178.349287,0.146735377 L166.023174,45.0823921 C165.245848,47.7957109 164.413011,50.2044373 163.524638,52.3086437 C162.636265,54.4128501 161.387009,56.1017273 159.776833,57.3753259 C158.444274,58.482803 157.042331,59.1611225 155.570964,59.4103048 C154.099596,59.6594872 152.475564,59.7840765 150.698818,59.7840765 L149.532834,59.7840765 L149.532834,51.3119194 L150.115826,51.3119194 Z M190.48801,15.0976008 C190.48801,13.4363853 190.835025,11.5537025 191.529066,9.4494961 C192.223108,7.3452897 193.291915,5.54566649 194.735521,4.05057247 C196.012558,2.77697386 197.456142,1.72488644 199.066318,0.894278649 C200.676494,0.06367086 202.536497,-0.351626805 204.646382,-0.351626805 C207.144931,-0.351626805 209.296427,0.0775141155 211.100935,0.935808831 C212.905442,1.79410355 214.390668,2.94309375 215.556658,4.38281392 C216.77817,5.82253409 217.66653,7.53909777 218.221763,9.53255647 C218.776996,11.5260152 219.054609,13.63019 219.054609,15.8451441 C219.054609,16.9526212 219.026847,18.0739249 218.971324,19.2090888 C218.915801,20.3442528 218.707591,21.4793998 218.34669,22.6145637 C217.985788,23.7497277 217.402802,24.8156584 216.597715,25.8123877 C215.792627,26.8091171 214.640535,27.722772 213.141406,28.5533797 C214.640535,29.1624921 215.792627,29.9515577 216.597715,30.9206001 C217.402802,31.8896425 217.985788,32.9694165 218.34669,34.1599543 C218.707591,35.3504921 218.915801,36.6517581 218.971324,38.0637914 C219.026847,39.4758246 219.054609,40.9293664 219.054609,42.4244605 C219.054609,44.9162838 218.790877,47.2419508 218.263405,49.401531 C217.735934,51.5611113 216.861455,53.3607345 215.639942,54.8004546 C214.418429,56.2401748 212.877681,57.4306948 211.01765,58.3720503 C209.157619,59.3134058 206.867317,59.7840765 204.146675,59.7840765 C202.092313,59.7840765 200.176787,59.4241518 198.400041,58.7042917 C196.623296,57.9844317 195.096428,56.9877173 193.819391,55.7141186 C192.542355,54.44052 191.570712,52.8070159 190.904432,50.8135572 C190.238153,48.8200985 189.905018,46.8266697 189.905018,44.833211 L189.905018,42.5905812 L198.400041,42.5905812 L198.483326,44.9162714 C198.483326,45.6915053 198.58049,46.4528844 198.774822,47.2004314 C198.969153,47.9479784 199.288408,48.6262979 199.732594,49.2354103 C200.176781,49.8445227 200.759767,50.3428799 201.48157,50.7304968 C202.203373,51.1181138 203.119493,51.3119194 204.22996,51.3119194 C206.728508,51.3119194 208.408063,50.5228538 209.268675,48.944699 C210.129286,47.3665442 210.559585,45.2208396 210.559585,42.5075208 C210.559585,40.957053 210.504063,39.5035111 210.393016,38.1468517 C210.281969,36.7901924 210.004357,35.7242617 209.56017,34.9490277 C208.560751,33.2324383 206.895077,32.3741565 204.563098,32.3741565 L201.315001,32.3741565 L201.315001,24.8987237 L204.812951,24.8987237 C205.867894,24.8987237 206.811776,24.7049182 207.644626,24.3173012 C208.477476,23.9296842 209.143745,23.265208 209.643455,22.3238525 C210.087641,21.4378708 210.351373,20.3857834 210.434658,19.1675586 C210.517943,17.9493339 210.559585,16.86956 210.559585,15.9282045 C210.559585,14.9314751 210.476301,13.948604 210.309731,12.9795616 C210.143161,12.0105191 209.837788,11.1660806 209.393601,10.4462205 C208.949415,9.78173424 208.352548,9.22800402 207.602984,8.78501319 C206.853419,8.34202237 205.895656,8.12053029 204.729667,8.12053029 C203.674724,8.12053029 202.800245,8.31433586 202.106204,8.70195283 C201.412162,9.0895698 200.843057,9.587927 200.398871,10.1970394 C199.899161,10.8615256 199.538265,11.7198074 199.316171,12.7719106 C199.094078,13.8240138 198.983033,14.8484148 198.983033,15.8451441 L198.983033,17.1741099 L190.48801,17.1741099 L190.48801,15.0976008 Z M237.522957,0.146735377 L246.017981,0.146735377 L246.017981,24.4003616 L249.182793,24.4003616 C252.125529,24.4003616 254.582398,24.801816 256.553476,25.6047368 C258.524553,26.4076577 260.120824,27.5289614 261.342337,28.9686816 C262.619373,30.5191494 263.424449,32.1803401 263.757589,33.9523034 C264.090729,35.7242667 264.285057,37.6900089 264.340581,39.8495892 L264.340581,43.1720037 C264.340581,48.3771459 263.077444,52.3640035 260.551134,55.1326961 C258.024823,57.9013887 253.985563,59.2857143 248.433232,59.2857143 L237.522957,59.2857143 L237.522957,0.146735377 Z M246.017981,31.8757943 L246.017981,50.8135572 L249.016224,50.8135572 C250.737447,50.8135572 252.083867,50.5643786 253.055525,50.0660139 C254.027183,49.5676492 254.762855,48.8754865 255.262565,47.9895048 C255.762275,47.1035232 256.067648,46.0514358 256.178695,44.833211 C256.289742,43.6149863 256.345264,42.2860337 256.345264,40.8463136 C256.345264,39.3512195 256.26198,38.07764 256.095411,37.0255368 C255.928841,35.9734336 255.595706,35.0597788 255.095996,34.2845448 C254.540763,33.5093109 253.79121,32.9140509 252.847313,32.498747 C251.903417,32.0834431 250.654161,31.8757943 249.099509,31.8757943 L246.017981,31.8757943 Z M268.671377,59.2857143 L268.671377,0.146735377 L277.1664,0.146735377 L277.1664,59.2857143 L268.671377,59.2857143 Z M325.200762,8.12053029 C324.423436,8.12053029 323.784928,8.21743307 323.285218,8.41124156 C322.785508,8.60505004 322.313567,8.95113143 321.869381,9.4494961 C321.425194,9.94786078 321.11982,10.556964 320.953251,11.2768241 C320.786681,11.9966842 320.647874,12.799593 320.536828,13.6855746 L319.787267,20.5795848 C319.731744,21.2994449 319.64846,21.9639212 319.537413,22.5730336 C319.426367,23.1267721 319.315322,23.6943456 319.204275,24.275771 C319.093228,24.8571965 318.926661,25.3693969 318.704568,25.8123877 C318.371428,26.5876217 317.96889,27.2659412 317.496942,27.8473666 C317.024994,28.4287921 316.566933,28.8856195 316.122747,29.2178626 L324.950909,59.2857143 L316.289316,59.2857143 L308.793707,32.955579 L304.046488,32.955579 L304.046488,59.2857143 L295.551464,59.2857143 L295.551464,0.146735377 L304.046488,0.146735377 L304.046488,25.4801463 L306.878162,25.4801463 C307.877582,25.4801463 308.682658,25.3417137 309.293414,25.0648445 C309.904171,24.7879752 310.403873,24.4003641 310.792536,23.9019994 C311.181199,23.4036347 311.458812,22.8360612 311.625382,22.1992619 C311.791951,21.5624626 311.930758,20.8564566 312.041804,20.0812226 L312.87465,13.0210917 C312.930173,12.7995963 312.999576,12.3427689 313.082861,11.6505957 C313.166146,10.9584226 313.318833,10.169357 313.540926,9.28337538 C313.763019,8.39739373 314.068393,7.48373887 314.457056,6.54238338 C314.845719,5.60102788 315.345421,4.71505953 315.956178,3.88445174 C317.011121,2.55547928 318.302018,1.60029465 319.828909,1.01886919 C321.3558,0.437443742 323.1464,0.146735377 325.200762,0.146735377 L325.200762,8.12053029 Z M357.57763,38.6036837 L353.413403,17.1741099 L353.246833,17.1741099 L349.082606,38.6036837 L357.57763,38.6036837 Z M336.589924,59.2857143 L349.832167,0.146735377 L356.911353,0.146735377 L370.153596,59.2857143 L361.658572,59.2857143 L359.160036,46.5774786 L347.583484,46.5774786 L345.084948,59.2857143 L336.589924,59.2857143 Z M25.8761042,142.285714 L25.8761042,103.911826 L25.7095351,103.911826 L14.5494061,142.285714 L6.05438246,142.285714 L6.05438246,83.1467354 L14.5494061,83.1467354 L14.5494061,121.603684 L14.7159751,121.603684 L25.8761042,83.1467354 L34.3711278,83.1467354 L34.3711278,142.285714 L25.8761042,142.285714 Z M51.6734926,98.0976008 C51.6734926,96.4363853 52.020508,94.5537025 52.7145494,92.4494961 C53.4085907,90.3452897 54.4773984,88.5456665 55.9210043,87.0505725 C57.1980404,85.7769739 58.6416248,84.7248864 60.2518007,83.8942786 C61.8619766,83.0636709 63.7219795,82.6483732 65.8318652,82.6483732 C68.3304141,82.6483732 70.4819099,83.0775141 72.2864174,83.9358088 C74.0909249,84.7941035 75.5761511,85.9430938 76.7421406,87.3828139 C77.9636534,88.8225341 78.852013,90.5390978 79.407246,92.5325565 C79.9624791,94.5260152 80.2400915,96.63019 80.2400915,98.8451441 C80.2400915,99.9526212 80.2123303,101.073925 80.156807,102.209089 C80.1012836,103.344253 79.8930744,104.4794 79.5321729,105.614564 C79.1712714,106.749728 78.5882854,107.815658 77.7831974,108.812388 C76.9781095,109.809117 75.8260181,110.722772 74.3268888,111.55338 C75.8260181,112.162492 76.9781095,112.951558 77.7831974,113.9206 C78.5882854,114.889643 79.1712714,115.969416 79.5321729,117.159954 C79.8930744,118.350492 80.1012836,119.651758 80.156807,121.063791 C80.2123303,122.475825 80.2400915,123.929366 80.2400915,125.42446 C80.2400915,127.916284 79.9763597,130.241951 79.4488883,132.401531 C78.9214169,134.561111 78.0469379,136.360734 76.8254252,137.800455 C75.6039124,139.240175 74.0631637,140.430695 72.2031329,141.37205 C70.3431021,142.313406 68.0528,142.784076 65.3321579,142.784076 C63.2777956,142.784076 61.3622702,142.424152 59.5855243,141.704292 C57.8087785,140.984432 56.2819104,139.987717 55.0048744,138.714119 C53.7278383,137.44052 52.756195,135.807016 52.0899153,133.813557 C51.4236356,131.820099 51.0905007,129.82667 51.0905007,127.833211 L51.0905007,125.590581 L59.5855243,125.590581 L59.6688089,127.916271 C59.6688089,128.691505 59.7659732,129.452884 59.9603048,130.200431 C60.1546364,130.947978 60.4738906,131.626298 60.9180771,132.23541 C61.3622635,132.844523 61.9452495,133.34288 62.6670525,133.730497 C63.3888555,134.118114 64.3049763,134.311919 65.4154425,134.311919 C67.9139913,134.311919 69.5935462,133.522854 70.4541575,131.944699 C71.3147687,130.366544 71.7450679,128.22084 71.7450679,125.507521 C71.7450679,123.957053 71.6895454,122.503511 71.5784988,121.146852 C71.4674522,119.790192 71.1898398,118.724262 70.7456534,117.949028 C69.7462338,116.232438 68.0805596,115.374156 65.7485807,115.374156 L62.5004834,115.374156 L62.5004834,107.898724 L65.9984343,107.898724 C67.0533771,107.898724 67.9972592,107.704918 68.8301088,107.317301 C69.6629584,106.929684 70.3292281,106.265208 70.8289379,105.323852 C71.2731244,104.437871 71.5368561,103.385783 71.6201411,102.167559 C71.703426,100.949334 71.7450679,99.86956 71.7450679,98.9282045 C71.7450679,97.9314751 71.6617842,96.948604 71.4952143,95.9795616 C71.3286443,95.0105191 71.0232707,94.1660806 70.5790843,93.4462205 C70.1348978,92.7817342 69.5380312,92.228004 68.7884666,91.7850132 C68.0389019,91.3420224 67.0811392,91.1205303 65.9151498,91.1205303 C64.8602069,91.1205303 63.9857279,91.3143359 63.2916866,91.7019528 C62.5976452,92.0895698 62.0285399,92.587927 61.5843534,93.1970394 C61.0846436,93.8615256 60.7237476,94.7198074 60.5016543,95.7719106 C60.2795611,96.8240138 60.1685161,97.8484148 60.1685161,98.8451441 L60.1685161,100.17411 L51.6734926,100.17411 L51.6734926,98.0976008 Z M139.996754,134.145799 C137.276112,134.145799 134.860884,133.702814 132.750998,132.816833 C130.641113,131.930851 128.975438,130.712645 127.753926,129.162177 C126.865553,128.0547 126.12988,126.78112 125.546885,125.3414 C124.96389,123.90168 124.50583,122.406608 124.17269,120.85614 C123.83955,119.305673 123.60358,117.727541 123.464771,116.1217 C123.325963,114.515858 123.25656,112.9931 123.25656,111.55338 C123.25656,108.009453 123.603576,104.617856 124.297617,101.378485 C124.991658,98.1391148 126.14375,95.6334856 127.753926,93.8615223 C129.197532,92.2556806 131.015893,91.1066904 133.209063,90.4145172 C135.402234,89.722344 137.664775,89.3762626 139.996754,89.3762626 L140.996168,89.3762626 L140.996168,83.1467354 L149.491192,83.1467354 L149.491192,89.3762626 L150.490606,89.3762626 C152.822585,89.3762626 155.085126,89.722344 157.278297,90.4145172 C159.471467,91.1066904 161.289828,92.2556806 162.733434,93.8615223 C164.34361,95.6334856 165.495702,98.1391148 166.189743,101.378485 C166.883784,104.617856 167.2308,108.009453 167.2308,111.55338 C167.2308,112.9931 167.161397,114.515858 167.022589,116.1217 C166.88378,117.727541 166.64781,119.305673 166.31467,120.85614 C165.98153,122.406608 165.52347,123.90168 164.940475,125.3414 C164.35748,126.78112 163.621807,128.0547 162.733434,129.162177 C161.511922,130.712645 159.846247,131.930851 157.736362,132.816833 C155.626476,133.702814 153.211248,134.145799 150.490606,134.145799 L149.491192,134.145799 L149.491192,142.285714 L140.996168,142.285714 L140.996168,134.145799 L139.996754,134.145799 Z M149.324623,97.0178161 L149.324623,126.670366 L151.156883,126.670366 C152.544965,126.670366 153.710937,126.421187 154.654834,125.922823 C155.59873,125.424458 156.376044,124.759982 156.986801,123.929374 C157.375464,123.431009 157.708599,122.725003 157.986215,121.811335 C158.263832,120.897666 158.499802,119.887108 158.694134,118.779631 C158.888466,117.672154 159.027272,116.495478 159.110557,115.249566 C159.193842,114.003654 159.235484,112.799291 159.235484,111.63644 C159.235484,110.528963 159.179961,109.338443 159.068914,108.064844 C158.957868,106.791246 158.7913,105.573039 158.569207,104.410188 C158.347114,103.247338 158.069502,102.181407 157.736362,101.212364 C157.403222,100.243322 157.014565,99.5096295 156.570378,99.0112648 C155.793052,98.2360309 154.946334,97.7238304 154.0302,97.4746481 C153.114065,97.2254658 152.073019,97.07319 150.907029,97.0178161 L149.324623,97.0178161 Z M139.580331,97.0178161 C138.414341,97.07319 137.373295,97.2254658 136.457161,97.4746481 C135.541026,97.7238304 134.694308,98.2360309 133.916982,99.0112648 C133.472795,99.5096295 133.084138,100.243322 132.750998,101.212364 C132.417858,102.181407 132.140246,103.247338 131.918153,104.410188 C131.69606,105.573039 131.529492,106.791246 131.418446,108.064844 C131.307399,109.338443 131.251876,110.528963 131.251876,111.63644 C131.251876,112.799291 131.293518,114.003654 131.376803,115.249566 C131.460088,116.495478 131.598894,117.672154 131.793226,118.779631 C131.987558,119.887108 132.223528,120.897666 132.501145,121.811335 C132.778761,122.725003 133.111896,123.431009 133.500559,123.929374 C134.111316,124.759982 134.88863,125.424458 135.832526,125.922823 C136.776423,126.421187 137.942395,126.670366 139.330477,126.670366 L141.162737,126.670366 L141.162737,97.0178161 L139.580331,97.0178161 Z M204.105033,142.285714 L204.105033,103.911826 L203.938464,103.911826 L192.778335,142.285714 L184.283311,142.285714 L184.283311,83.1467354 L192.778335,83.1467354 L192.778335,121.603684 L192.944904,121.603684 L204.105033,83.1467354 L212.600056,83.1467354 L212.600056,142.285714 L204.105033,142.285714 Z M243.561087,90.6221681 L243.561087,107.815663 C243.561087,108.701645 243.533325,110.21056 243.477802,112.342453 C243.422279,114.474347 243.283472,116.813857 243.061379,119.361054 C242.839286,121.908251 242.506151,124.427724 242.061965,126.919547 C241.617778,129.41137 241.007031,131.487859 240.229705,133.149074 C238.897145,135.973141 237.20371,138.201905 235.149347,139.835434 C233.094985,141.468962 230.596474,142.285714 227.653738,142.285714 L227.154031,142.285714 L227.154031,133.813557 C228.81973,133.702809 230.124509,133.204452 231.068405,132.318471 C232.012301,131.432489 232.789616,130.325029 233.400372,128.996056 C233.900082,127.833205 234.30262,126.421193 234.607998,124.759978 C234.913376,123.098762 235.149347,121.326825 235.315917,119.444114 C235.482486,117.561403 235.593531,115.623348 235.649055,113.629889 C235.704578,111.63643 235.732339,109.726061 235.732339,107.898724 L235.732339,83.1467354 L260.384565,83.1467354 L260.384565,142.285714 L251.889541,142.285714 L251.889541,90.6221681 L243.561087,90.6221681 Z M278.769628,83.1467354 L287.264652,83.1467354 L287.264652,107.400362 L290.429465,107.400362 C293.3722,107.400362 295.82907,107.801816 297.800147,108.604737 C299.771224,109.407658 301.367496,110.528961 302.589008,111.968682 C303.866044,113.519149 304.685001,115.18034 305.045902,116.952303 C305.406804,118.724267 305.587252,120.690009 305.587252,122.849589 L305.587252,126.172004 C305.587252,131.377146 304.324116,135.364003 301.797805,138.132696 C299.271495,140.901389 295.232235,142.285714 289.679904,142.285714 L278.769628,142.285714 L278.769628,83.1467354 Z M287.264652,114.875794 L287.264652,133.813557 L290.262896,133.813557 C291.984118,133.813557 293.330538,133.564379 294.302196,133.066014 C295.273854,132.567649 296.009527,131.875486 296.509237,130.989505 C297.008946,130.103523 297.31432,129.051436 297.425367,127.833211 C297.536413,126.614986 297.591936,125.286034 297.591936,123.846314 C297.591936,120.800752 297.119995,118.558144 296.176098,117.118424 C295.620865,116.34319 294.899073,115.775617 294.0107,115.415687 C293.122327,115.055757 291.900833,114.875794 290.34618,114.875794 L287.264652,114.875794 Z M322.639763,142.285714 L322.639763,83.1467354 L330.801649,83.1467354 L341.711924,114.460492 L341.878493,114.460492 L352.705484,83.1467354 L360.950654,83.1467354 L360.950654,142.285714 L352.45563,142.285714 L352.45563,106.320577 L352.289061,106.320577 L343.877322,131.737048 L339.62981,131.737048 L331.301356,106.320577 L331.134787,106.320577 L331.134787,142.285714 L322.639763,142.285714 Z M378.83601,97.1008765 C378.83601,94.7198008 379.252429,92.615626 380.085279,90.7882888 C380.918128,88.9609517 382.028578,87.4381936 383.41666,86.2199688 C384.74922,85.0571179 386.262207,84.1711496 387.955668,83.5620372 C389.649129,82.9529248 391.356445,82.6483732 393.077668,82.6483732 C394.79889,82.6483732 396.506206,82.9529248 398.199667,83.5620372 C399.893128,84.1711496 401.433877,85.0571179 402.821959,86.2199688 C404.154519,87.4381936 405.237207,88.9609517 406.070057,90.7882888 C406.902906,92.615626 407.319325,94.7198008 407.319325,97.1008765 L407.319325,128.331573 C407.319325,130.823397 406.902906,132.955258 406.070057,134.727221 C405.237207,136.499184 404.154519,137.96657 402.821959,139.12942 C401.433877,140.347645 399.893128,141.2613 398.199667,141.870412 C396.506206,142.479525 394.79889,142.784076 393.077668,142.784076 C391.356445,142.784076 389.649129,142.479525 387.955668,141.870412 C386.262207,141.2613 384.74922,140.347645 383.41666,139.12942 C382.028578,137.96657 380.918128,136.499184 380.085279,134.727221 C379.252429,132.955258 378.83601,130.823397 378.83601,128.331573 L378.83601,97.1008765 Z M387.331034,128.331573 C387.331034,130.380406 387.900139,131.889321 389.038367,132.858363 C390.176595,133.827405 391.523015,134.311919 393.077668,134.311919 C394.63232,134.311919 395.97874,133.827405 397.116968,132.858363 C398.255196,131.889321 398.824301,130.380406 398.824301,128.331573 L398.824301,97.1008765 C398.824301,95.0520439 398.255196,93.5431291 397.116968,92.5740866 C395.97874,91.6050442 394.63232,91.1205303 393.077668,91.1205303 C391.523015,91.1205303 390.176595,91.6050442 389.038367,92.5740866 C387.900139,93.5431291 387.331034,95.0520439 387.331034,97.1008765 L387.331034,128.331573 Z M425.204681,142.285714 L425.204681,83.1467354 L437.614079,83.1467354 C440.334721,83.1467354 442.652784,83.562033 444.568338,84.3926408 C446.483892,85.2232486 448.052402,86.3307091 449.273915,87.7150554 C450.495428,89.0994017 451.369907,90.6913761 451.897378,92.4910263 C452.42485,94.2906765 452.688581,96.159516 452.688581,98.0976008 L452.688581,100.25717 C452.688581,101.863012 452.563656,103.219651 452.313801,104.327128 C452.063946,105.434605 451.689169,106.403633 451.18946,107.234241 C450.245563,108.784709 448.801979,110.113661 446.858663,111.221138 C448.857502,112.162494 450.328848,113.546819 451.272744,115.374156 C452.21664,117.201494 452.688581,119.69328 452.688581,122.849589 L452.688581,126.172004 C452.688581,131.377146 451.425445,135.364003 448.899135,138.132696 C446.372824,140.901389 442.333564,142.285714 436.781233,142.285714 L425.204681,142.285714 Z M433.699705,114.875794 L433.699705,133.813557 L437.364225,133.813557 C439.085448,133.813557 440.431868,133.564379 441.403525,133.066014 C442.375183,132.567649 443.110856,131.875486 443.610566,130.989505 C444.110276,130.103523 444.415649,129.051436 444.526696,127.833211 C444.637743,126.614986 444.693265,125.286034 444.693265,123.846314 C444.693265,122.35122 444.609981,121.049954 444.443411,119.942476 C444.276841,118.834999 443.943707,117.893658 443.443997,117.118424 C442.888764,116.34319 442.13921,115.775617 441.195314,115.415687 C440.251418,115.055757 439.002162,114.875794 437.44751,114.875794 L433.699705,114.875794 Z M433.699705,91.1205303 L433.699705,107.400362 L437.530794,107.400362 C440.362483,107.400362 442.264128,106.694356 443.235785,105.282322 C444.207443,103.870289 444.693265,101.807644 444.693265,99.0943252 C444.693265,96.4363803 444.151921,94.4429515 443.069216,93.113979 C441.986512,91.7850065 440.029345,91.1205303 437.197656,91.1205303 L433.699705,91.1205303 Z M79.4801203,180.100876 C79.4801203,177.719801 79.8965389,175.615626 80.7293885,173.788289 C81.5622381,171.960952 82.6726876,170.438194 84.0607703,169.219969 C85.3933297,168.057118 86.9063171,167.17115 88.599778,166.562037 C90.2932389,165.952925 92.000555,165.648373 93.7217775,165.648373 C95.443,165.648373 97.1503161,165.952925 98.843777,166.562037 C100.537238,167.17115 102.077987,168.057118 103.466069,169.219969 C104.798629,170.438194 105.881317,171.960952 106.714167,173.788289 C107.547016,175.615626 107.963435,177.719801 107.963435,180.100876 L107.963435,211.331573 C107.963435,213.823397 107.547016,215.955258 106.714167,217.727221 C105.881317,219.499184 104.798629,220.96657 103.466069,222.12942 C102.077987,223.347645 100.537238,224.2613 98.843777,224.870412 C97.1503161,225.479525 95.443,225.784076 93.7217775,225.784076 C92.000555,225.784076 90.2932389,225.479525 88.599778,224.870412 C86.9063171,224.2613 85.3933297,223.347645 84.0607703,222.12942 C82.6726876,220.96657 81.5622381,219.499184 80.7293885,217.727221 C79.8965389,215.955258 79.4801203,213.823397 79.4801203,211.331573 L79.4801203,180.100876 Z M87.9751439,211.331573 C87.9751439,213.380406 88.5442493,214.889321 89.6824771,215.858363 C90.8207049,216.827405 92.1671249,217.311919 93.7217775,217.311919 C95.2764301,217.311919 96.6228501,216.827405 97.7610779,215.858363 C98.8993057,214.889321 99.4684111,213.380406 99.4684111,211.331573 L99.4684111,180.100876 C99.4684111,178.052044 98.8993057,176.543129 97.7610779,175.574087 C96.6228501,174.605044 95.2764301,174.12053 93.7217775,174.12053 C92.1671249,174.12053 90.8207049,174.605044 89.6824771,175.574087 C88.5442493,176.543129 87.9751439,178.052044 87.9751439,180.100876 L87.9751439,211.331573 Z M164.305431,173.622168 L164.305431,190.815663 C164.305431,191.701645 164.277669,193.21056 164.222146,195.342453 C164.166623,197.474347 164.027816,199.813857 163.805723,202.361054 C163.58363,204.908251 163.250495,207.427724 162.806309,209.919547 C162.362122,212.41137 161.751375,214.487859 160.974049,216.149074 C159.641489,218.973141 157.948054,221.201905 155.893691,222.835434 C153.839329,224.468962 151.340818,225.285714 148.398082,225.285714 L147.898375,225.285714 L147.898375,216.813557 C149.564074,216.702809 150.868853,216.204452 151.812749,215.318471 C152.756645,214.432489 153.53396,213.325029 154.144716,211.996056 C154.644426,210.833205 155.046964,209.421193 155.352342,207.759978 C155.65772,206.098762 155.893691,204.326825 156.060261,202.444114 C156.22683,200.561403 156.337875,198.623348 156.393399,196.629889 C156.448922,194.63643 156.476683,192.726061 156.476683,190.898724 L156.476683,166.146735 L181.128909,166.146735 L181.128909,225.285714 L172.633885,225.285714 L172.633885,173.622168 L164.305431,173.622168 Z M214.505191,198.955579 L208.008996,198.955579 L208.008996,225.285714 L199.513972,225.285714 L199.513972,166.146735 L208.008996,166.146735 L208.008996,191.480146 L214.505191,191.480146 L214.505191,180.100876 C214.505191,177.719801 214.921609,175.615626 215.754459,173.788289 C216.587308,171.960952 217.697758,170.438194 219.085841,169.219969 C220.4184,168.057118 221.903626,167.17115 223.541564,166.562037 C225.179501,165.952925 226.859056,165.648373 228.580279,165.648373 C232.13377,165.648373 235.326313,166.838893 238.158001,169.219969 C239.490561,170.438194 240.573249,171.960952 241.406099,173.788289 C242.238948,175.615626 242.655367,177.719801 242.655367,180.100876 L242.655367,211.331573 C242.655367,213.823397 242.238948,215.955258 241.406099,217.727221 C240.573249,219.499184 239.490561,220.96657 238.158001,222.12942 C236.769919,223.347645 235.256931,224.2613 233.618994,224.870412 C231.981056,225.479525 230.301501,225.784076 228.580279,225.784076 C226.859056,225.784076 225.179501,225.479525 223.541564,224.870412 C221.903626,224.2613 220.4184,223.347645 219.085841,222.12942 C217.697758,220.96657 216.587308,219.499184 215.754459,217.727221 C214.921609,215.955258 214.505191,213.823397 214.505191,211.331573 L214.505191,198.955579 Z M223.000214,211.331573 C223.000214,213.380406 223.541558,214.889321 224.624263,215.858363 C225.706967,216.827405 227.025626,217.311919 228.580279,217.311919 C230.134931,217.311919 231.45359,216.827405 232.536295,215.858363 C233.618999,214.889321 234.160343,213.380406 234.160343,211.331573 L234.160343,180.100876 C234.160343,178.052044 233.618999,176.543129 232.536295,175.574087 C231.45359,174.605044 230.134931,174.12053 228.580279,174.12053 C227.025626,174.12053 225.706967,174.605044 224.624263,175.574087 C223.541558,176.543129 223.000214,178.052044 223.000214,180.100876 L223.000214,211.331573 Z M260.540723,166.146735 L284.859811,166.146735 L284.859811,174.12053 L269.035747,174.12053 L269.035747,190.400362 L272.367129,190.400362 C275.309864,190.400362 277.766734,190.787973 279.737811,191.563207 C281.708888,192.338441 283.30516,193.445901 284.526672,194.885621 C285.803708,196.436089 286.608784,198.111123 286.941924,199.910773 C287.275064,201.710423 287.469393,203.690009 287.524916,205.849589 L287.524916,209.172004 C287.524916,214.377146 286.26178,218.364003 283.735469,221.132696 C281.209159,223.901389 277.169899,225.285714 271.617568,225.285714 L260.540723,225.285714 L260.540723,166.146735 Z M269.035747,197.875794 L269.035747,216.813557 L272.20056,216.813557 C273.921782,216.813557 275.268202,216.564379 276.23986,216.066014 C277.211518,215.567649 277.947191,214.875486 278.446901,213.989505 C278.94661,213.103523 279.251984,212.051436 279.363031,210.833211 C279.474077,209.614986 279.5296,208.286034 279.5296,206.846314 C279.5296,205.35122 279.432435,204.03611 279.238104,202.900946 C279.043772,201.765782 278.668995,200.838284 278.113762,200.118424 C277.558529,199.398564 276.836737,198.844834 275.948364,198.457217 C275.059991,198.0696 273.838497,197.875794 272.283844,197.875794 L269.035747,197.875794 Z M304.577427,225.285714 L304.577427,166.146735 L316.986824,166.146735 C319.707466,166.146735 322.02553,166.562033 323.941084,167.392641 C325.856638,168.223249 327.425148,169.330709 328.646661,170.715055 C329.868173,172.099402 330.742652,173.691376 331.270124,175.491026 C331.797595,177.290676 332.061327,179.159516 332.061327,181.097601 L332.061327,183.25717 C332.061327,184.863012 331.936401,186.219651 331.686547,187.327128 C331.436692,188.434605 331.061915,189.403633 330.562205,190.234241 C329.618309,191.784709 328.174725,193.113661 326.231409,194.221138 C328.230248,195.162494 329.701594,196.546819 330.64549,198.374156 C331.589386,200.201494 332.061327,202.69328 332.061327,205.849589 L332.061327,209.172004 C332.061327,214.377146 330.798191,218.364003 328.27188,221.132696 C325.74557,223.901389 321.70631,225.285714 316.153979,225.285714 L304.577427,225.285714 Z M313.072451,197.875794 L313.072451,216.813557 L316.736971,216.813557 C318.458193,216.813557 319.804613,216.564379 320.776271,216.066014 C321.747929,215.567649 322.483602,214.875486 322.983312,213.989505 C323.483021,213.103523 323.788395,212.051436 323.899442,210.833211 C324.010488,209.614986 324.066011,208.286034 324.066011,206.846314 C324.066011,205.35122 323.982727,204.049954 323.816157,202.942476 C323.649587,201.834999 323.316452,200.893658 322.816743,200.118424 C322.261509,199.34319 321.511956,198.775617 320.56806,198.415687 C319.624164,198.055757 318.374908,197.875794 316.820255,197.875794 L313.072451,197.875794 Z M313.072451,174.12053 L313.072451,190.400362 L316.90354,190.400362 C319.735229,190.400362 321.636873,189.694356 322.608531,188.282322 C323.580189,186.870289 324.066011,184.807644 324.066011,182.094325 C324.066011,179.43638 323.524667,177.442951 322.441962,176.113979 C321.359258,174.785007 319.40209,174.12053 316.570402,174.12053 L313.072451,174.12053 Z M370.268113,225.285714 L370.268113,186.911826 L370.101544,186.911826 L358.941414,225.285714 L350.446391,225.285714 L350.446391,166.146735 L358.941414,166.146735 L358.941414,204.603684 L359.107984,204.603684 L370.268113,166.146735 L378.763136,166.146735 L378.763136,225.285714 L370.268113,225.285714 Z" id="Музыка-из-фильмов-о" fill="#FFB0CC"></path>
        </g>
    </g>
</svg>