<?xml version="1.0" encoding="UTF-8"?>
<svg width="624px" height="281px" viewBox="0 0 624 281" version="1.1" xmlns="http://www.w3.org/2000/svg" xmlns:xlink="http://www.w3.org/1999/xlink">
    <!-- Generator: Sketch 46.2 (44496) - http://www.bohemiancoding.com/sketch -->
    <title>фестиваль музыки Моц</title>
    <desc>Created with Sketch.</desc>
    <defs></defs>
    <g id="Page-1" stroke="none" stroke-width="1" fill="none" fill-rule="evenodd">
        <path d="M31.9770341,84.68 L31.9770341,66.55 C28.5796838,68.7713444 25.1497181,69.882 21.6870341,69.882 C15.2843354,69.882 10.1067205,67.4156913 6.15403412,62.483 C2.20134769,57.5503087 0.225034119,50.8047095 0.225034119,42.246 C0.225034119,33.8832915 2.21768086,27.2683577 6.20303412,22.401 C10.1883874,17.5336423 15.3823354,15.1 21.7850341,15.1 C25.3130518,15.1 28.7103511,16.3739873 31.9770341,18.922 L31.9770341,0.4 L50.5970341,0.4 L50.5970341,18.922 C53.7330498,16.3739873 57.1303492,15.1 60.7890341,15.1 C67.1917328,15.1 72.3856809,17.5499755 76.3710341,22.45 C80.3563874,27.3500245 82.3490341,34.0139579 82.3490341,42.442 C82.3490341,50.9353758 80.3727205,57.6319755 76.4200341,62.532 C72.4673477,67.4320245 67.2897328,69.882 60.8870341,69.882 C57.2936828,69.882 53.8637171,68.7713444 50.5970341,66.55 L50.5970341,84.68 L31.9770341,84.68 Z M27.4690341,54.888 C29.1677093,54.888 30.6703609,54.5613366 31.9770341,53.908 L31.9770341,31.172 C30.5396936,30.4533297 29.037042,30.094 27.4690341,30.094 C24.5290194,30.094 22.3077083,31.2373219 20.8050341,33.524 C19.3023599,35.8106781 18.5510341,38.8159814 18.5510341,42.54 C18.5510341,46.2640186 19.3023599,49.2529887 20.8050341,51.507 C22.3077083,53.7610113 24.5290194,54.888 27.4690341,54.888 Z M55.1050341,54.888 C58.0450488,54.888 60.2663599,53.7610113 61.7690341,51.507 C63.2717083,49.2529887 64.0230341,46.1986859 64.0230341,42.344 C64.0230341,38.685315 63.2717083,35.7290113 61.7690341,33.475 C60.2663599,31.2209887 58.0450488,30.094 55.1050341,30.094 C53.5370263,30.094 52.0343746,30.4533297 50.5970341,31.172 L50.5970341,53.908 C51.9037073,54.5613366 53.406359,54.888 55.1050341,54.888 Z M125.734582,70.274 C117.371874,70.274 110.544609,67.7260255 105.252582,62.63 C99.9605556,57.5339745 97.3145821,50.8373748 97.3145821,42.54 C97.3145821,34.6999608 99.8298903,28.1176933 104.860582,22.793 C109.891274,17.4683067 116.293877,14.806 124.068582,14.806 C132.757959,14.806 139.389226,17.5499726 143.962582,23.038 C148.535938,28.5260274 150.822582,35.4512915 150.822582,43.814 C150.822582,45.5126752 150.789916,46.7866624 150.724582,47.636 L115.248582,47.636 C116.751256,53.4506957 120.573218,56.358 126.714582,56.358 C130.895936,56.358 134.815897,54.5613513 138.474582,50.968 L148.764582,59.494 C143.080554,66.6807026 135.403964,70.274 125.734582,70.274 Z M114.954582,38.13 L133.378582,38.13 C133.051914,35.1899853 132.071924,32.854342 130.438582,31.123 C128.805241,29.391658 126.714595,28.526 124.166582,28.526 C121.749237,28.526 119.740257,29.391658 118.139582,31.123 C116.538907,32.854342 115.477251,35.1899853 114.954582,38.13 Z M193.52213,70.274 C185.616757,70.274 179.018157,67.579027 173.72613,62.189 C168.434104,56.7989731 165.78813,50.2493719 165.78813,42.54 C165.78813,34.8959618 168.46677,28.379027 173.82413,22.989 C179.18149,17.5989731 185.976089,14.904 194.20813,14.904 C204.334847,14.904 211.880772,18.8566271 216.84613,26.762 L204.40013,35.778 C201.917451,32.315316 198.71615,30.584 194.79613,30.584 C191.464113,30.584 188.81814,31.7273219 186.85813,34.014 C184.89812,36.3006781 183.91813,39.1426497 183.91813,42.54 C183.91813,46.002684 184.89812,48.8773219 186.85813,51.164 C188.81814,53.4506781 191.366114,54.594 194.50213,54.594 C196.592807,54.594 198.373123,54.1366712 199.84313,53.222 C201.313137,52.3073288 202.864789,50.9026761 204.49813,49.008 L217.14013,58.122 C211.652103,66.2233738 203.779515,70.274 193.52213,70.274 Z M244.355678,69 L244.355678,30.976 L228.871678,30.976 L228.871678,15.982 L278.459678,15.982 L278.459678,30.976 L262.975678,30.976 L262.975678,69 L244.355678,69 Z M293.621226,69 L293.621226,15.982 L311.653226,15.982 L311.653226,42.54 L329.293226,15.982 L346.443226,15.982 L346.443226,69 L328.411226,69 L328.411226,42.442 L310.771226,69 L293.621226,69 Z M365.622774,69 L365.622774,15.982 L397.080774,15.982 C403.548806,15.982 408.383425,17.5826507 411.584774,20.784 C413.871452,22.9400108 415.014774,25.8146487 415.014774,29.408 C415.014774,34.8960274 412.270801,38.8486546 406.782774,41.266 C410.180124,42.3766722 412.711766,43.9609897 414.377774,46.019 C416.043782,48.0770103 416.876774,50.8699824 416.876774,54.398 C416.876774,58.9713562 415.112792,62.5483204 411.584774,65.129 C408.056756,67.7096796 403.124139,69 396.786774,69 L365.622774,69 Z M383.752774,56.946 L391.396774,56.946 C393.552785,56.946 395.235101,56.5050044 396.443774,55.623 C397.652447,54.7409956 398.256774,53.5160078 398.256774,51.948 C398.256774,50.5106595 397.652447,49.3346712 396.443774,48.42 C395.235101,47.5053288 393.487452,47.048 391.200774,47.048 L383.752774,47.048 L383.752774,56.946 Z M383.752774,37.052 L390.024774,37.052 C392.115451,37.052 393.748768,36.6273376 394.924774,35.778 C396.10078,34.9286624 396.688774,33.7853405 396.688774,32.348 C396.688774,30.9759931 396.133446,29.8816708 395.022774,29.065 C393.912102,28.2483293 392.344117,27.84 390.318774,27.84 L383.752774,27.84 L383.752774,37.052 Z M449.678322,70.176 C444.451629,70.176 440.172339,68.7223479 436.840322,65.815 C433.508305,62.9076521 431.842322,58.8406928 431.842322,53.614 C431.842322,48.2566399 433.704303,44.140681 437.428322,41.266 C441.152341,38.391319 446.215623,36.954 452.618322,36.954 C457.257012,36.954 461.503636,37.6399931 465.358322,39.012 L465.358322,38.13 C465.358322,32.3806379 461.830357,29.506 454.774322,29.506 C450.004965,29.506 445.13768,30.4859902 440.172322,32.446 L436.350322,19.314 C443.014355,16.5699863 450.168284,15.198 457.812322,15.198 C466.959034,15.198 473.6883,17.3539784 478.000322,21.666 C481.789674,25.3900186 483.684322,31.0086291 483.684322,38.522 L483.684322,69 L465.260322,69 L465.260322,63.512 C461.274969,67.9546889 456.081021,70.176 449.678322,70.176 Z M456.342322,58.514 C459.086336,58.514 461.307647,57.7136747 463.006322,56.113 C464.704997,54.5123253 465.554322,52.4053464 465.554322,49.792 L465.554322,47.342 C463.398311,46.4273288 460.981002,45.97 458.302322,45.97 C455.623642,45.97 453.532996,46.5743273 452.030322,47.783 C450.527648,48.9916727 449.776322,50.6413229 449.776322,52.732 C449.776322,54.4960088 450.380649,55.9006614 451.589322,56.946 C452.797995,57.9913386 454.382312,58.514 456.342322,58.514 Z M513.05587,68.902 C511.226527,69.4246693 509.070549,69.686 506.58787,69.686 C504.105191,69.686 501.361218,69.4246693 498.35587,68.902 L499.13987,54.496 C500.511877,54.692001 501.524533,54.79 502.17787,54.79 C503.027208,54.79 503.713201,54.6756678 504.23587,54.447 C504.758539,54.2183322 505.362867,53.5813386 506.04887,52.536 C506.734873,51.4906614 507.273868,49.9880098 507.66587,48.028 C508.057872,46.0679902 508.400868,43.2423518 508.69487,39.551 C508.988871,35.8596482 509.13587,31.4006928 509.13587,26.174 L509.13587,15.982 L554.90187,15.982 L554.90187,69 L536.28187,69 L536.28187,30.78 L526.48187,30.78 L526.48187,32.152 C526.48187,38.4240314 526.138873,43.8303106 525.45287,48.371 C524.766867,52.9116894 523.868542,56.5376531 522.75787,59.249 C521.647198,61.9603469 520.209879,64.1163253 518.44587,65.717 C516.681861,67.3176747 514.885212,68.3793307 513.05587,68.902 Z M574.081418,69 L574.081418,15.982 L592.701418,15.982 L592.701418,32.642 L601.717418,32.642 C608.250784,32.642 613.526398,34.1936512 617.544418,37.297 C621.562438,40.4003489 623.571418,44.8593043 623.571418,50.674 C623.571418,56.3580284 621.67677,60.833317 617.887418,64.1 C614.098066,67.366683 608.96945,69 602.501418,69 L574.081418,69 Z M592.701418,55.868 L598.483418,55.868 C603.252775,55.868 605.637418,53.9406859 605.637418,50.086 C605.637418,48.3873248 605.000424,47.0480049 603.726418,46.068 C602.452412,45.0879951 600.704762,44.598 598.483418,44.598 L592.701418,44.598 L592.701418,55.868 Z M96.9573561,167 L96.9573561,113.982 L115.871356,113.982 L128.121356,132.308 L140.469356,113.982 L159.383356,113.982 L159.383356,167 L140.763356,167 L140.763356,140.834 L127.827356,158.866 L115.283356,141.226 L115.283356,167 L96.9573561,167 Z M194.242904,182.974 C188.362875,182.974 182.678931,181.438682 177.190904,178.368 L182.972904,165.334 C186.10892,167.228676 188.820226,168.176 191.106904,168.176 C192.936247,168.176 194.373565,167.457341 195.418904,166.02 L174.642904,113.982 L194.144904,113.982 L204.728904,145.93 L214.724904,113.982 L233.834904,113.982 L214.430904,165.726 C212.078892,171.998031 209.432919,176.440654 206.492904,179.054 C203.552889,181.667346 199.469597,182.974 194.242904,182.974 Z M268.008452,168.372 C262.716426,168.372 258.388136,167.833005 255.023452,166.755 C251.658769,165.676995 248.179803,163.766014 244.586452,161.022 L251.936452,149.458 C253.961795,151.026008 256.55877,152.299995 259.727452,153.28 C262.896135,154.260005 265.591108,154.75 267.812452,154.75 C272.843144,154.75 275.358452,153.345347 275.358452,150.536 C275.358452,147.595985 272.908477,146.126 268.008452,146.126 L261.344452,146.126 L261.344452,134.464 L267.910452,134.464 C272.026473,134.464 274.084452,132.961348 274.084452,129.956 C274.084452,128.975995 273.529124,128.12667 272.418452,127.408 C271.30778,126.68933 269.739795,126.33 267.714452,126.33 C265.36244,126.33 262.814466,126.836328 260.070452,127.849 C257.326438,128.861672 255.105127,130.119326 253.406452,131.622 L245.958452,121.43 C252.16515,115.680638 260.201069,112.806 270.066452,112.806 C277.122487,112.806 282.610432,114.14532 286.530452,116.824 C290.450472,119.50268 292.410452,122.965312 292.410452,127.212 C292.410452,132.830695 289.601147,136.848655 283.982452,139.266 C290.581152,141.552678 293.880452,145.668637 293.880452,151.614 C293.880452,156.644692 291.740807,160.695318 287.461452,163.766 C283.182097,166.836682 276.697829,168.372 268.008452,168.372 Z M366.96,167 L366.96,113.982 L385.58,113.982 L385.58,167 L366.96,167 Z M311.492,167 L311.492,113.982 L330.112,113.982 L330.112,130.642 L339.128,130.642 C345.661366,130.642 350.93698,132.193651 354.955,135.297 C358.97302,138.400349 360.982,142.859304 360.982,148.674 C360.982,154.358028 359.087352,158.833317 355.298,162.1 C351.508648,165.366683 346.380032,167 339.912,167 L311.492,167 Z M330.112,153.868 L335.894,153.868 C340.663357,153.868 343.048,151.940686 343.048,148.086 C343.048,146.387325 342.411006,145.048005 341.137,144.068 C339.862994,143.087995 338.115344,142.598 335.894,142.598 L330.112,142.598 L330.112,153.868 Z M404.759548,167 L404.759548,113.982 L423.379548,113.982 L423.379548,133.68 L437.785548,113.982 L458.855548,113.982 L440.725548,135.738 L459.345548,167 L438.863548,167 L428.769548,150.046 L423.379548,156.514 L423.379548,167 L404.759548,167 Z M473.037096,167 L473.037096,113.982 L491.069096,113.982 L491.069096,140.54 L508.709096,113.982 L525.859096,113.982 L525.859096,167 L507.827096,167 L507.827096,140.442 L490.187096,167 L473.037096,167 Z M64.5414414,265 L64.5414414,196.4 L84.6314414,196.4 L100.997441,222.958 L117.363441,196.4 L137.453441,196.4 L137.453441,265 L118.539441,265 L118.539441,225.604 L100.997441,252.456 L100.605441,252.456 L83.1614414,225.8 L83.1614414,265 L64.5414414,265 Z M184.758989,266.274 C176.396281,266.274 169.438351,263.579027 163.884989,258.189 C158.331628,252.798973 155.554989,246.249372 155.554989,238.54 C155.554989,230.895962 158.347961,224.362694 163.933989,218.94 C169.520017,213.517306 176.526947,210.806 184.954989,210.806 C193.317698,210.806 200.275628,213.500973 205.828989,218.891 C211.382351,224.281027 214.158989,230.830628 214.158989,238.54 C214.158989,246.184038 211.366017,252.717306 205.779989,258.14 C200.193961,263.562694 193.187032,266.274 184.758989,266.274 Z M184.954989,250.496 C188.287006,250.496 190.965646,249.352678 192.990989,247.066 C195.016333,244.779322 196.028989,241.93735 196.028989,238.54 C196.028989,235.273317 194.951,232.464012 192.794989,230.112 C190.638979,227.759988 187.960339,226.584 184.758989,226.584 C181.426973,226.584 178.748333,227.727322 176.722989,230.014 C174.697646,232.300678 173.684989,235.14265 173.684989,238.54 C173.684989,241.806683 174.762979,244.615988 176.918989,246.968 C179.075,249.320012 181.75364,250.496 184.954989,250.496 Z M271.460537,275.78 L271.460537,265 L231.182537,265 L231.182537,211.982 L249.802537,211.982 L249.802537,250.006 L264.306537,250.006 L264.306537,211.982 L282.926537,211.982 L282.926537,250.006 L289.100537,250.006 L287.336537,275.78 L271.460537,275.78 Z M318.472085,266.176 C313.245393,266.176 308.966102,264.722348 305.634085,261.815 C302.302069,258.907652 300.636085,254.840693 300.636085,249.614 C300.636085,244.25664 302.498067,240.140681 306.222085,237.266 C309.946104,234.391319 315.009387,232.954 321.412085,232.954 C326.050775,232.954 330.297399,233.639993 334.152085,235.012 L334.152085,234.13 C334.152085,228.380638 330.624121,225.506 323.568085,225.506 C318.798728,225.506 313.931444,226.48599 308.966085,228.446 L305.144085,215.314 C311.808119,212.569986 318.962047,211.198 326.606085,211.198 C335.752798,211.198 342.482064,213.353978 346.794085,217.666 C350.583438,221.390019 352.478085,227.008629 352.478085,234.522 L352.478085,265 L334.054085,265 L334.054085,259.512 C330.068732,263.954689 324.874784,266.176 318.472085,266.176 Z M325.136085,254.514 C327.880099,254.514 330.10141,253.713675 331.800085,252.113 C333.498761,250.512325 334.348085,248.405346 334.348085,245.792 L334.348085,243.342 C332.192075,242.427329 329.774765,241.97 327.096085,241.97 C324.417405,241.97 322.32676,242.574327 320.824085,243.783 C319.321411,244.991673 318.570085,246.641323 318.570085,248.732 C318.570085,250.496009 319.174413,251.900661 320.383085,252.946 C321.591758,253.991339 323.176076,254.514 325.136085,254.514 Z M371.167633,280.68 L371.167633,211.982 L389.787633,211.982 L389.787633,219.038 C394.295656,213.549973 399.652936,210.806 405.859633,210.806 C412.392999,210.806 417.946277,213.337641 422.519633,218.401 C427.09299,223.464359 429.379633,230.144625 429.379633,238.442 C429.379633,246.804708 427.109323,253.517641 422.568633,258.581 C418.027944,263.644359 412.490999,266.176 405.957633,266.176 C399.554935,266.176 394.164989,263.628025 389.787633,258.532 L389.787633,280.68 L371.167633,280.68 Z M400.175633,250.594 C403.246315,250.594 405.826956,249.450678 407.917633,247.164 C410.00831,244.877322 411.053633,241.937351 411.053633,238.344 C411.053633,234.881316 410.00831,232.023011 407.917633,229.769 C405.826956,227.514989 403.246315,226.388 400.175633,226.388 C397.170285,226.388 394.62231,227.531322 392.531633,229.818 C390.440956,232.104678 389.395633,235.011982 389.395633,238.54 C389.395633,242.002684 390.440956,244.877322 392.531633,247.164 C394.62231,249.450678 397.170285,250.594 400.175633,250.594 Z M458.065181,265 L458.065181,226.976 L442.581181,226.976 L442.581181,211.982 L492.169181,211.982 L492.169181,226.976 L476.685181,226.976 L476.685181,265 L458.065181,265 Z M522.520729,266.176 C517.294036,266.176 513.014746,264.722348 509.682729,261.815 C506.350713,258.907652 504.684729,254.840693 504.684729,249.614 C504.684729,244.25664 506.546711,240.140681 510.270729,237.266 C513.994748,234.391319 519.058031,232.954 525.460729,232.954 C530.099419,232.954 534.346043,233.639993 538.200729,235.012 L538.200729,234.13 C538.200729,228.380638 534.672765,225.506 527.616729,225.506 C522.847372,225.506 517.980087,226.48599 513.014729,228.446 L509.192729,215.314 C515.856763,212.569986 523.010691,211.198 530.654729,211.198 C539.801442,211.198 546.530708,213.353978 550.842729,217.666 C554.632082,221.390019 556.526729,227.008629 556.526729,234.522 L556.526729,265 L538.102729,265 L538.102729,259.512 C534.117376,263.954689 528.923428,266.176 522.520729,266.176 Z M529.184729,254.514 C531.928743,254.514 534.150054,253.713675 535.848729,252.113 C537.547404,250.512325 538.396729,248.405346 538.396729,245.792 L538.396729,243.342 C536.240718,242.427329 533.823409,241.97 531.144729,241.97 C528.466049,241.97 526.375403,242.574327 524.872729,243.783 C523.370055,244.991673 522.618729,246.641323 522.618729,248.732 C522.618729,250.496009 523.223057,251.900661 524.431729,252.946 C525.640402,253.991339 527.224719,254.514 529.184729,254.514 Z" id="фестиваль-музыки-Моц" fill="#FFFFFF"></path>
    </g>
</svg>