<?xml version="1.0" encoding="UTF-8"?>
<svg width="579px" height="178px" viewBox="0 0 579 178" version="1.1" xmlns="http://www.w3.org/2000/svg" xmlns:xlink="http://www.w3.org/1999/xlink">
    <!-- Generator: Sketch 46.2 (44496) - http://www.bohemiancoding.com/sketch -->
    <title>Моцарт для детей</title>
    <desc>Created with Sketch.</desc>
    <defs>
        <linearGradient x1="50%" y1="0%" x2="50%" y2="100%" id="linearGradient-1">
            <stop stop-color="#C3FFDF" offset="0%"></stop>
            <stop stop-color="#8EFCC1" offset="100%"></stop>
        </linearGradient>
    </defs>
    <g id="Page-1" stroke="none" stroke-width="1" fill="none" fill-rule="evenodd">
        <path d="M80.121322,68.6 L80.121322,0 L100.211322,0 L116.577322,26.558 L132.943322,0 L153.033322,0 L153.033322,68.6 L134.119322,68.6 L134.119322,29.204 L116.577322,56.056 L116.185322,56.056 L98.741322,29.4 L98.741322,68.6 L80.121322,68.6 Z M200.33887,69.874 C191.976161,69.874 185.018231,67.1790269 179.46487,61.789 C173.911509,56.398973 171.13487,49.8493719 171.13487,42.14 C171.13487,34.4959618 173.927842,27.9626938 179.51387,22.54 C185.099898,17.1173062 192.106828,14.406 200.53487,14.406 C208.897578,14.406 215.855509,17.100973 221.40887,22.491 C226.962231,27.8810269 229.73887,34.4306281 229.73887,42.14 C229.73887,49.7840382 226.945898,56.3173062 221.35987,61.74 C215.773842,67.1626938 208.766912,69.874 200.33887,69.874 Z M200.53487,54.096 C203.866887,54.096 206.545526,52.9526781 208.57087,50.666 C210.596213,48.3793219 211.60887,45.5373503 211.60887,42.14 C211.60887,38.873317 210.530881,36.0640118 208.37487,33.712 C206.218859,31.3599882 203.540219,30.184 200.33887,30.184 C197.006853,30.184 194.328213,31.3273219 192.30287,33.614 C190.277526,35.9006781 189.26487,38.7426497 189.26487,42.14 C189.26487,45.406683 190.342859,48.2159882 192.49887,50.568 C194.654881,52.9200118 197.333521,54.096 200.53487,54.096 Z M287.040418,79.38 L287.040418,68.6 L246.762418,68.6 L246.762418,15.582 L265.382418,15.582 L265.382418,53.606 L279.886418,53.606 L279.886418,15.582 L298.506418,15.582 L298.506418,53.606 L304.680418,53.606 L302.916418,79.38 L287.040418,79.38 Z M334.051966,69.776 C328.825273,69.776 324.545983,68.3223479 321.213966,65.415 C317.881949,62.5076521 316.215966,58.4406928 316.215966,53.214 C316.215966,47.8566399 318.077947,43.740681 321.801966,40.866 C325.525985,37.991319 330.589267,36.554 336.991966,36.554 C341.630656,36.554 345.87728,37.2399931 349.731966,38.612 L349.731966,37.73 C349.731966,31.9806379 346.204001,29.106 339.147966,29.106 C334.378609,29.106 329.511324,30.0859902 324.545966,32.046 L320.723966,18.914 C327.387999,16.1699863 334.541928,14.798 342.185966,14.798 C351.332678,14.798 358.061944,16.9539784 362.373966,21.266 C366.163318,24.9900186 368.057966,30.6086291 368.057966,38.122 L368.057966,68.6 L349.633966,68.6 L349.633966,63.112 C345.648613,67.5546889 340.454665,69.776 334.051966,69.776 Z M340.715966,58.114 C343.45998,58.114 345.681291,57.3136747 347.379966,55.713 C349.078641,54.1123253 349.927966,52.0053464 349.927966,49.392 L349.927966,46.942 C347.771955,46.0273288 345.354646,45.57 342.675966,45.57 C339.997286,45.57 337.90664,46.1743273 336.403966,47.383 C334.901292,48.5916727 334.149966,50.2413229 334.149966,52.332 C334.149966,54.0960088 334.754293,55.5006614 335.962966,56.546 C337.171639,57.5913386 338.755956,58.114 340.715966,58.114 Z M386.747514,84.28 L386.747514,15.582 L405.367514,15.582 L405.367514,22.638 C409.875536,17.1499726 415.232816,14.406 421.439514,14.406 C427.97288,14.406 433.526158,16.9376413 438.099514,22.001 C442.67287,27.0643587 444.959514,33.7446252 444.959514,42.042 C444.959514,50.4047085 442.689203,57.1176413 438.148514,62.181 C433.607824,67.2443586 428.07088,69.776 421.537514,69.776 C415.134815,69.776 409.744869,67.2280255 405.367514,62.132 L405.367514,84.28 L386.747514,84.28 Z M415.755514,54.194 C418.826196,54.194 421.406837,53.0506781 423.497514,50.764 C425.588191,48.4773219 426.633514,45.5373513 426.633514,41.944 C426.633514,38.481316 425.588191,35.6230113 423.497514,33.369 C421.406837,31.1149887 418.826196,29.988 415.755514,29.988 C412.750165,29.988 410.202191,31.1313219 408.111514,33.418 C406.020837,35.7046781 404.975514,38.6119824 404.975514,42.14 C404.975514,45.602684 406.020837,48.4773219 408.111514,50.764 C410.202191,53.0506781 412.750165,54.194 415.755514,54.194 Z M473.645062,68.6 L473.645062,30.576 L458.161062,30.576 L458.161062,15.582 L507.749062,15.582 L507.749062,30.576 L492.265062,30.576 L492.265062,68.6 L473.645062,68.6 Z M0,177.38 L0,151.606 L4.9,151.606 C6.5333415,146.901976 7.72566291,141.969359 8.477,136.808 C9.22833709,131.646641 9.604,124.754043 9.604,116.13 L9.604,113.582 L56.84,113.582 L56.84,151.606 L63.014,151.606 L61.25,177.38 L45.374,177.38 L45.374,166.6 L17.64,166.6 L16.66,177.38 L0,177.38 Z M23.912,151.606 L38.122,151.606 L38.122,128.38 L27.342,128.38 L27.342,129.262 C27.145999,137.102039 26.0026771,144.549965 23.912,151.606 Z M87.877548,166.502 C86.0482055,167.024669 83.8922271,167.286 81.409548,167.286 C78.9268689,167.286 76.1828963,167.024669 73.177548,166.502 L73.961548,152.096 C75.3335548,152.292001 76.3462114,152.39 76.999548,152.39 C77.8488856,152.39 78.5348787,152.275668 79.057548,152.047 C79.5802173,151.818332 80.1845445,151.181339 80.870548,150.136 C81.5565514,149.090661 82.095546,147.58801 82.487548,145.628 C82.8795499,143.66799 83.2225465,140.842352 83.516548,137.151 C83.8105494,133.459648 83.957548,129.000693 83.957548,123.774 L83.957548,113.582 L129.723548,113.582 L129.723548,166.6 L111.103548,166.6 L111.103548,128.38 L101.303548,128.38 L101.303548,129.752 C101.303548,136.024031 100.960551,141.430311 100.274548,145.971 C99.5885445,150.511689 98.6902202,154.137653 97.579548,156.849 C96.4688758,159.560347 95.0315568,161.716325 93.267548,163.317 C91.5035392,164.917675 89.7068905,165.979331 87.877548,166.502 Z M145.179096,166.6 L157.625096,148.176 C151.09173,145.039984 147.825096,139.682705 147.825096,132.104 C147.825096,126.74664 149.458413,122.532682 152.725096,119.462 C156.449115,115.54198 162.231057,113.582 170.071096,113.582 L199.569096,113.582 L199.569096,166.6 L180.851096,166.6 L180.851096,151.312 L176.637096,151.312 L166.445096,166.6 L145.179096,166.6 Z M173.501096,138.376 L180.851096,138.376 L180.851096,127.596 L173.501096,127.596 C168.92774,127.596 166.641096,129.425315 166.641096,133.084 C166.641096,136.612018 168.92774,138.376 173.501096,138.376 Z M251.060192,177.38 L251.060192,151.606 L255.960192,151.606 C257.593533,146.901976 258.785855,141.969359 259.537192,136.808 C260.288529,131.646641 260.664192,124.754043 260.664192,116.13 L260.664192,113.582 L307.900192,113.582 L307.900192,151.606 L314.074192,151.606 L312.310192,177.38 L296.434192,177.38 L296.434192,166.6 L268.700192,166.6 L267.720192,177.38 L251.060192,177.38 Z M274.972192,151.606 L289.182192,151.606 L289.182192,128.38 L278.402192,128.38 L278.402192,129.262 C278.206191,137.102039 277.062869,144.549965 274.972192,151.606 Z M354.51974,167.874 C346.157031,167.874 339.329766,165.326025 334.03774,160.23 C328.745713,155.133975 326.09974,148.437375 326.09974,140.14 C326.09974,132.299961 328.615048,125.717693 333.64574,120.393 C338.676432,115.068307 345.079034,112.406 352.85374,112.406 C361.543117,112.406 368.174384,115.149973 372.74774,120.638 C377.321096,126.126027 379.60774,133.051292 379.60774,141.414 C379.60774,143.112675 379.575074,144.386662 379.50974,145.236 L344.03374,145.236 C345.536414,151.050696 349.358376,153.958 355.49974,153.958 C359.681094,153.958 363.601055,152.161351 367.25974,148.568 L377.54974,157.094 C371.865711,164.280703 364.189122,167.874 354.51974,167.874 Z M343.73974,135.73 L362.16374,135.73 C361.837072,132.789985 360.857081,130.454342 359.22374,128.723 C357.590398,126.991658 355.499753,126.126 352.95174,126.126 C350.534394,126.126 348.525415,126.991658 346.92474,128.723 C345.324065,130.454342 344.262409,132.789985 343.73974,135.73 Z M408.195288,166.6 L408.195288,128.576 L392.711288,128.576 L392.711288,113.582 L442.299288,113.582 L442.299288,128.576 L426.815288,128.576 L426.815288,166.6 L408.195288,166.6 Z M483.724836,167.874 C475.362127,167.874 468.534862,165.326025 463.242836,160.23 C457.950809,155.133975 455.304836,148.437375 455.304836,140.14 C455.304836,132.299961 457.820144,125.717693 462.850836,120.393 C467.881528,115.068307 474.28413,112.406 482.058836,112.406 C490.748213,112.406 497.37948,115.149973 501.952836,120.638 C506.526192,126.126027 508.812836,133.051292 508.812836,141.414 C508.812836,143.112675 508.780169,144.386662 508.714836,145.236 L473.238836,145.236 C474.74151,151.050696 478.563472,153.958 484.704836,153.958 C488.88619,153.958 492.806151,152.161351 496.464836,148.568 L506.754836,157.094 C501.070807,164.280703 493.394217,167.874 483.724836,167.874 Z M472.944836,135.73 L491.368836,135.73 C491.042168,132.789985 490.062177,130.454342 488.428836,128.723 C486.795494,126.991658 484.704849,126.126 482.156836,126.126 C479.73949,126.126 477.73051,126.991658 476.129836,128.723 C474.529161,130.454342 473.467505,132.789985 472.944836,135.73 Z M525.934384,166.6 L525.934384,113.582 L543.966384,113.582 L543.966384,140.14 L561.606384,113.582 L578.756384,113.582 L578.756384,166.6 L560.724384,166.6 L560.724384,140.042 L543.084384,166.6 L525.934384,166.6 Z M563.664384,105.448 C560.855036,107.996013 557.229073,109.27 552.786384,109.27 C548.343695,109.27 544.701398,107.996013 541.859384,105.448 C539.01737,102.899987 537.26972,99.3066899 536.616384,94.668 L546.318384,92.904 C547.625057,96.6933523 549.781035,98.588 552.786384,98.588 C555.791732,98.588 557.947711,96.6933523 559.254384,92.904 L568.956384,94.668 C568.303047,99.3066899 566.539065,102.899987 563.664384,105.448 Z" id="Моцарт-для-детей" fill="url(#linearGradient-1)"></path>
    </g>
</svg>