<?xml version="1.0" encoding="UTF-8"?>
<svg width="511px" height="143px" viewBox="0 0 511 143" version="1.1" xmlns="http://www.w3.org/2000/svg" xmlns:xlink="http://www.w3.org/1999/xlink">
    <!-- Generator: Sketch 46.2 (44496) - http://www.bohemiancoding.com/sketch -->
    <title>H1 Copy</title>
    <desc>Created with Sketch.</desc>
    <defs>
        <radialGradient cx="63.7130855%" cy="50%" fx="63.7130855%" fy="50%" r="101.188251%" gradientTransform="translate(0.637131,0.500000),scale(0.289219,1.000000),rotate(-178.795993),translate(-0.637131,-0.500000)" id="radialGradient-1">
            <stop stop-color="#2D2EF3" offset="0%"></stop>
            <stop stop-color="#34C33B" offset="100%"></stop>
        </radialGradient>
        <filter x="-4.9%" y="-16.9%" width="109.7%" height="133.7%" filterUnits="objectBoundingBox" id="filter-2">
            <feGaussianBlur stdDeviation="7.58035714 0" in="SourceGraphic"></feGaussianBlur>
        </filter>
        <radialGradient cx="0%" cy="-35.3737691%" fx="0%" fy="-35.3737691%" r="51.6148552%" gradientTransform="translate(0.000000,-0.353738),scale(0.289323,1.000000),rotate(16.397699),translate(-0.000000,0.353738)" id="radialGradient-3">
            <stop stop-color="#797274" offset="0%"></stop>
            <stop stop-color="#FFFFFF" offset="100%"></stop>
        </radialGradient>
        <filter x="-0.5%" y="-1.7%" width="101.0%" height="103.5%" filterUnits="objectBoundingBox" id="filter-4">
            <feGaussianBlur stdDeviation="0.426985489 -0.676523017" in="SourceGraphic"></feGaussianBlur>
        </filter>
    </defs>
    <g id="Page-1" stroke="none" stroke-width="1" fill="none" fill-rule="evenodd">
        <g id="H1-Copy" transform="translate(10.000000, 2.000000)">
            <path d="M112.411954,16.3177273 L112.411954,59.0279091 L96.7384437,59.0279091 L96.7384437,16.3177273 L80.2028907,16.3177273 L80.2028907,3.12781818 L128.947507,3.12781818 L128.947507,16.3177273 L112.411954,16.3177273 Z M136.202891,59.0279091 L136.202891,3.12781818 L151.876401,3.12781818 L151.876401,59.0279091 L136.202891,59.0279091 Z M188.866636,2.12781818 C193.620958,2.12781818 197.81358,2.92600906 201.444627,4.52241477 C205.075675,6.11882048 207.936062,8.39562726 210.025874,11.3529034 C212.115686,14.3101796 213.291187,17.7253897 213.552414,21.5986364 L196.938493,21.5986364 C196.572776,19.4003072 195.697681,17.7123298 194.31318,16.5346534 C192.92868,15.3569771 191.087061,14.7681477 188.788268,14.7681477 C185.340079,14.7681477 182.610303,16.2729338 180.598859,19.2825511 C178.587415,22.2921685 177.581709,26.3878036 177.581709,31.5695795 C177.581709,36.8560378 178.587415,41.0432687 180.598859,44.1313977 C182.610303,47.2195268 185.366201,48.7635682 188.866636,48.7635682 C191.844618,48.7635682 194.208682,47.8606965 195.958899,46.0549261 C197.709116,44.2491557 198.662579,41.8022427 198.819315,38.7141136 L188.08296,38.7141136 L188.08296,27.2514545 L213.395679,27.2514545 L213.395679,59.2840909 L199.994828,59.2840909 L199.994828,53.9453182 L199.838093,53.9453182 C198.166243,56.0913062 196.076463,57.7138581 193.568689,58.8130227 C191.060915,59.9121873 188.187467,60.4617614 184.948258,60.4617614 C180.089446,60.4617614 175.870702,59.2971878 172.291899,56.9680057 C168.713096,54.6388236 165.97026,51.302124 164.063306,46.9578068 C162.156353,42.6134896 161.202891,37.4841318 161.202891,31.5695795 C161.202891,25.4980037 162.313087,20.2508801 164.533512,15.8280511 C166.753937,11.4052222 169.940852,8.01618223 174.094353,5.66082955 C178.247854,3.30547686 183.171899,2.12781818 188.866636,2.12781818 Z M250.045404,3.12781818 C263.838162,3.12781818 270.734437,8.46653752 270.734437,19.1441364 C270.734437,22.5463125 269.820158,25.4250337 267.991573,27.7803864 C266.162988,30.135739 263.603007,31.8106314 260.311553,32.8051136 L260.311553,32.9621364 C262.349119,33.6949128 263.98176,34.8856565 265.209525,36.5344034 C266.437289,38.1831503 267.756463,40.8655951 269.167086,44.5818182 L274.339344,59.0279091 L257.725424,59.0279091 L253.728679,47.0156705 C252.788264,44.2415884 251.678068,42.3180792 250.398058,41.2450852 C249.118048,40.1720912 247.250307,39.6356023 244.794778,39.6356023 L240.876401,39.6356023 L240.876401,59.0279091 L225.202891,59.0279091 L225.202891,3.12781818 L250.045404,3.12781818 Z M241.202891,28.47475 L247.864132,28.47475 C253.140907,28.47475 255.779255,26.171773 255.779255,21.56575 C255.779255,19.3150797 255.073954,17.6794426 253.663331,16.6587898 C252.252708,15.6381369 250.18905,15.1278182 247.472295,15.1278182 L241.202891,15.1278182 L241.202891,28.47475 Z M296.559675,48.9784545 L293.738444,59.0279091 L277.202891,59.0279091 L295.932735,3.12781818 L316.073195,3.12781818 L334.80304,59.0279091 L318.267487,59.0279091 L315.446255,48.9784545 L296.559675,48.9784545 Z M310.09598,32.9705455 C308.476376,27.2653578 306.882918,20.9845116 305.31556,14.1278182 L305.158825,14.1278182 C303.486975,21.2985586 301.867395,27.5794049 300.300036,32.9705455 L299.202891,36.8176023 L311.193126,36.8176023 L310.09598,32.9705455 Z M371.393175,59.0279091 L362.694377,37.5943068 C359.716396,30.1095194 357.051926,22.8865462 354.700887,15.9251705 L354.544152,15.9251705 C354.962115,22.6771815 355.171093,30.2927076 355.171093,38.7719773 L355.171093,59.0279091 L340.202891,59.0279091 L340.202891,3.12781818 L363.007848,3.12781818 L371.628278,24.5614205 C374.658505,31.9415255 377.322975,39.1644988 379.621768,46.2305568 L379.778503,46.2305568 C379.360541,38.1176753 379.778503,31.6798197 379.778503,24.5614205 L379.151563,3.12781818 L394.119765,3.12781818 L394.119765,59.0279091 L371.393175,59.0279091 Z M46.1360397,135.795455 L46.1360397,113.65525 L27.8764007,113.65525 L27.8764007,135.795455 L12.2028907,135.795455 L12.2028907,79.8953636 L27.8764007,79.8953636 L27.8764007,100.465341 L46.1360397,100.465341 L46.1360397,79.8953636 L61.8095497,79.8953636 L61.8095497,135.795455 L46.1360397,135.795455 Z M86.448947,125.746 L83.6277152,135.795455 L67.0921623,135.795455 L85.8220066,79.8953636 L105.962467,79.8953636 L124.692311,135.795455 L108.156758,135.795455 L105.335526,125.746 L86.448947,125.746 Z M100.790209,109.572659 C99.1706045,103.867471 97.5771469,97.5866252 96.0097881,90.7299318 L95.853053,90.7299318 C94.1812036,97.9006722 92.5616237,104.181518 90.9942649,109.572659 L89.8971192,113.419716 L101.887354,113.419716 L100.790209,109.572659 Z M186.242825,135.795455 L186.242825,109.02308 C186.242825,102.166386 186.399558,95.3359658 186.71303,88.5316136 L186.556295,88.5316136 C184.988936,96.0687422 183.421601,102.820652 181.854242,108.787545 L174.87953,135.795455 L155.914583,135.795455 L148.939871,108.787545 C147.372512,102.820652 145.805177,96.0687422 144.237818,88.5316136 L144.081083,88.5316136 C144.394555,95.3359658 144.551288,102.166386 144.551288,109.02308 L144.551288,135.795455 L129.974924,135.795455 L129.974924,79.8953636 L154.895805,79.8953636 L161.086841,103.919841 C162.863181,110.514828 164.273783,117.371419 165.318689,124.489818 L165.475424,124.489818 C166.415839,118.104195 167.826441,111.247605 169.707272,103.919841 L175.898308,79.8953636 L200.819189,79.8953636 L200.819189,135.795455 L186.242825,135.795455 Z M225.458586,125.746 L222.637354,135.795455 L206.101801,135.795455 L224.831646,79.8953636 L244.972106,79.8953636 L263.70195,135.795455 L247.166397,135.795455 L244.345166,125.746 L225.458586,125.746 Z M239.799848,109.572659 C238.180244,103.867471 236.586786,97.5866252 235.019427,90.7299318 L234.862692,90.7299318 C233.190843,97.9006722 231.571263,104.181518 230.003904,109.572659 L228.906758,113.419716 L240.896993,113.419716 L239.799848,109.572659 Z M289.438493,78.6391818 C296.596099,78.6391818 302.147078,80.1963083 306.091598,83.310608 C310.036117,86.4249076 312.008348,90.9392659 312.008348,96.8538182 L295.551162,96.8538182 C295.551162,94.8125125 294.963412,93.242301 293.787892,92.1431364 C292.612373,91.0439718 290.901366,90.4943977 288.654818,90.4943977 C286.721742,90.4943977 285.206651,90.8869506 284.1095,91.6720682 C283.012349,92.4571857 282.463781,93.5039935 282.463781,94.8125227 C282.463781,95.8593461 282.777249,96.7098774 283.404192,97.364142 C284.031136,98.0184067 285.023781,98.5810658 286.382159,99.0521364 C287.740537,99.5232069 289.804195,100.098951 292.573195,100.779386 C297.014045,101.878551 300.6581,103.043125 303.505469,104.273142 C306.352837,105.50316 308.677718,107.295818 310.48018,109.65117 C312.282643,112.006523 313.183861,115.120776 313.183861,118.994023 C313.183861,122.710246 312.230399,125.916094 310.323445,128.611665 C308.416492,131.307235 305.686716,133.387765 302.134036,134.853318 C298.581356,136.318871 294.349551,137.051636 289.438493,137.051636 C281.862926,137.051636 275.959296,135.350574 271.727427,131.948398 C267.495558,128.546222 265.379656,123.783247 265.379656,117.65933 L282.307046,117.65933 C282.307046,122.422376 284.867027,124.803864 289.987066,124.803864 C292.076878,124.803864 293.709519,124.372055 294.885038,123.508426 C296.060557,122.644797 296.648308,121.480223 296.648308,120.01467 C296.648308,118.863165 296.334841,117.960293 295.707897,117.306028 C295.080954,116.651764 294.140553,116.089105 292.886666,115.618034 C291.632778,115.146964 289.621365,114.571219 286.852364,113.890784 C282.254778,112.634596 278.597663,111.430767 275.880907,110.279261 C273.164152,109.127756 270.917638,107.426693 269.141298,105.176023 C267.364958,102.925352 266.476801,99.9157802 266.476801,96.1472159 C266.476801,92.6403575 267.39108,89.5653598 269.219666,86.9221307 C271.048251,84.2789016 273.686599,82.2376265 277.134788,80.7982443 C280.582978,79.3588621 284.684172,78.6391818 289.438493,78.6391818 Z M347.932672,135.795455 L332.259162,135.795455 L332.259162,115.3825 L313.13748,79.8953636 L330.378341,79.8953636 L334.766924,89.7092841 C336.961226,94.6293541 338.711417,99.2353081 340.01755,103.527284 L340.174285,103.527284 C341.584908,99.0782846 343.361221,94.4723306 345.503278,89.7092841 L349.891861,79.8953636 L367.054354,79.8953636 L347.932672,115.3825 L347.932672,135.795455 Z M379.703517,125.746 L376.882285,135.795455 L360.346732,135.795455 L379.076576,79.8953636 L399.217036,79.8953636 L417.946881,135.795455 L401.411328,135.795455 L398.590096,125.746 L379.703517,125.746 Z M394.044778,109.572659 C392.425174,103.867471 390.831716,97.5866252 389.264358,90.7299318 L389.107623,90.7299318 C387.435773,97.9006722 385.816193,104.181518 384.248834,109.572659 L383.151689,113.419716 L395.141924,113.419716 L394.044778,109.572659 Z M455.987129,135.795455 L447.288331,114.361852 C444.310349,106.877065 441.645879,99.6540916 439.294841,92.6927159 L439.138106,92.6927159 C439.556068,99.4447269 439.765046,107.060253 439.765046,115.539523 L439.765046,135.795455 L424.796844,135.795455 L424.796844,79.8953636 L447.601801,79.8953636 L456.222232,101.328966 C459.252459,108.709071 461.916929,115.932044 464.215722,122.998102 L464.372457,122.998102 C463.954495,114.885221 463.745517,107.269695 463.745517,100.151295 L463.745517,79.8953636 L478.713719,79.8953636 L478.713719,135.795455 L455.987129,135.795455 Z" id="Tigran-Hamasyan" fill="url(#radialGradient-1)" opacity="0.609884511" style="mix-blend-mode: lighten;" filter="url(#filter-2)"></path>
            <path d="M101.90845,14.8354659 L101.90845,58.6067387 L85.8455472,58.6067387 L85.8455472,14.8354659 L68.8991852,14.8354659 L68.8991852,1.3178669 L118.854812,1.3178669 L118.854812,14.8354659 L101.90845,14.8354659 Z M126.899185,58.6067387 L126.899185,1.3178669 L142.962088,1.3178669 L142.962088,58.6067387 L126.899185,58.6067387 Z M180.250208,0.3178669 C185.122646,0.3178669 189.419429,1.13588802 193.140687,2.77195481 C196.861945,4.40802159 199.793395,6.74139332 201.935126,9.77213999 C204.076857,12.8028867 205.281563,16.3029442 205.549279,20.2724178 L188.522603,20.2724178 C188.1478,18.0194733 187.250963,16.2895598 185.832066,15.0826253 C184.41317,13.8756908 182.525797,13.2722326 180.169893,13.2722326 C176.636037,13.2722326 173.838443,14.8144035 171.777027,17.8987917 C169.715611,20.9831799 168.684918,25.180567 168.684918,30.4910789 C168.684918,35.9088738 169.715611,40.2001321 171.777027,43.3649827 C173.838443,46.5298332 176.662808,48.1122347 180.250208,48.1122347 C183.302175,48.1122347 185.724971,47.1869321 187.518671,45.3362992 C189.312371,43.4856662 190.289521,40.9779622 190.450151,37.8131116 L179.447063,37.8131116 L179.447063,26.0656745 L205.38865,26.0656745 L205.38865,58.8941291 L191.654869,58.8941291 L191.654869,53.42272 L191.494239,53.42272 C189.780855,55.6220229 187.639156,57.2848855 185.069079,58.4113577 C182.499001,59.5378299 179.554165,60.1010576 176.234482,60.1010576 C171.254958,60.1010576 166.931403,58.9075513 163.263689,56.5205031 C159.595974,54.1334548 156.784994,50.7138583 154.830665,46.261611 C152.876335,41.8093637 151.899185,36.5525722 151.899185,30.4910789 C151.899185,24.2686609 153.036963,18.8911778 155.312552,14.3584682 C157.588141,9.82575859 160.854232,6.35252136 165.110922,3.93865234 C169.367613,1.52478331 174.413991,0.3178669 180.250208,0.3178669 Z M243.358885,1.3178669 C257.49431,1.3178669 264.561917,6.78922129 264.561917,17.7320942 C264.561917,21.2187939 263.624923,24.169034 261.750909,26.5829031 C259.876894,28.9967721 257.253313,30.7132754 253.880086,31.7324646 L253.880086,31.8933884 C255.968274,32.6443698 257.641476,33.8646964 258.899743,35.5544048 C260.15801,37.2441131 261.509958,39.9932005 262.955626,43.8017494 L268.256384,58.6067387 L251.229708,58.6067387 L247.133667,46.2960682 C246.169889,43.4530669 245.032111,41.4817701 243.720301,40.3821187 C242.40849,39.2824672 240.494347,38.7326497 237.977813,38.7326497 L233.962088,38.7326497 L233.962088,58.6067387 L217.899185,58.6067387 L217.899185,1.3178669 L243.358885,1.3178669 Z M233.899185,26.9963897 L240.725919,26.9963897 C246.13379,26.9963897 248.837684,24.6361976 248.837684,19.9157426 C248.837684,17.6091566 248.114861,15.9328838 246.669193,14.8868739 C245.223524,13.840864 243.108596,13.3178669 240.324346,13.3178669 L233.899185,13.3178669 L233.899185,26.9963897 Z M289.73687,48.3076157 L286.845547,58.6067387 L269.899185,58.6067387 L289.094354,1.3178669 L309.735183,1.3178669 L328.930351,58.6067387 L311.983989,58.6067387 L309.092667,48.3076157 L289.73687,48.3076157 Z M305.062902,31.6287226 C303.403061,25.7817954 301.770015,19.3449078 300.163717,12.3178669 L300.003088,12.3178669 C298.289703,19.666757 296.629887,26.1036446 295.023588,31.6287226 L293.899185,35.5713556 L306.187306,35.5713556 L305.062902,31.6287226 Z M366.864361,58.6067387 L357.94945,36.6406404 C354.897483,28.969901 352.166817,21.5674804 349.75737,14.4331564 L349.596741,14.4331564 C350.025087,21.3529143 350.239257,29.1576404 350.239257,37.8475689 L350.239257,58.6067387 L334.899185,58.6067387 L334.899185,1.3178669 L358.270708,1.3178669 L367.105304,23.2839652 C370.210814,30.8474215 372.94148,38.2498422 375.297385,45.4914492 L375.458014,45.4914492 C375.029667,37.1770115 375.458014,30.5792138 375.458014,23.2839652 L374.815498,1.3178669 L390.155569,1.3178669 L390.155569,58.6067387 L366.864361,58.6067387 Z M35.6753688,137.356028 L35.6753688,114.665772 L16.9620876,114.665772 L16.9620876,137.356028 L0.899185215,137.356028 L0.899185215,80.0671559 L16.9620876,80.0671559 L16.9620876,101.148173 L35.6753688,101.148173 L35.6753688,80.0671559 L51.7382711,80.0671559 L51.7382711,137.356028 L35.6753688,137.356028 Z M76.9898093,127.056905 L74.0984868,137.356028 L57.1521249,137.356028 L76.3472932,80.0671559 L96.9881227,80.0671559 L116.183291,137.356028 L99.236929,137.356028 L96.3456066,127.056905 L76.9898093,127.056905 Z M91.6873649,110.481754 C90.0275234,104.634826 88.3944779,98.1979388 86.7881797,91.1708979 L86.6275507,91.1708979 C84.9141658,98.519788 83.2543492,104.956676 81.6480509,110.481754 L80.5236478,114.424387 L92.8117681,114.424387 L91.6873649,110.481754 Z M179.262964,137.356028 L179.262964,109.91852 C179.262964,102.891479 179.423592,95.8913641 179.744851,88.9179647 L179.584222,88.9179647 C177.977924,96.6423456 176.37165,103.562 174.765351,109.677135 L167.61736,137.356028 L148.181248,137.356028 L141.033257,109.677135 C139.426958,103.562 137.820684,96.6423456 136.214386,88.9179647 L136.053757,88.9179647 C136.375016,95.8913641 136.535644,102.891479 136.535644,109.91852 L136.535644,137.356028 L121.597145,137.356028 L121.597145,80.0671559 L147.137159,80.0671559 L153.482006,104.688497 C155.302477,111.44733 156.748124,118.474266 157.818989,125.769514 L157.979619,125.769514 C158.943397,119.225247 160.389044,112.198312 162.316602,104.688497 L168.661449,80.0671559 L194.201463,80.0671559 L194.201463,137.356028 L179.262964,137.356028 Z M219.453001,127.056905 L216.561679,137.356028 L199.615317,137.356028 L218.810485,80.0671559 L239.451315,80.0671559 L258.646483,137.356028 L241.700121,137.356028 L238.808799,127.056905 L219.453001,127.056905 Z M234.150557,110.481754 C232.490716,104.634826 230.85767,98.1979388 229.251372,91.1708979 L229.090743,91.1708979 C227.377358,98.519788 225.717541,104.956676 224.111243,110.481754 L222.98684,114.424387 L235.27496,114.424387 L234.150557,110.481754 Z M285.022424,78.7797655 C292.357853,78.7797655 298.046741,80.3755772 302.089258,83.5672485 C306.131775,86.7589197 308.153004,91.3854326 308.153004,97.446926 L291.286956,97.446926 C291.286956,95.3549062 290.684604,93.7456843 289.47988,92.6192121 C288.275156,91.4927398 286.52164,90.9295122 284.219279,90.9295122 C282.238178,90.9295122 280.685446,91.3318177 279.561038,92.1364407 C278.436629,92.9410637 277.874433,94.0138783 277.874433,95.3549166 C277.874433,96.4277473 278.195688,97.2994091 278.838207,97.9699283 C279.480726,98.6404475 280.498033,99.2170853 281.890158,99.6998591 C283.282284,100.182633 285.397211,100.772681 288.235005,101.470021 C292.786183,102.596493 296.520771,103.789999 299.438879,105.050575 C302.356988,106.311151 304.739628,108.148346 306.586871,110.562215 C308.434114,112.976084 309.357721,116.167708 309.357721,120.137181 C309.357721,123.94573 308.380571,127.231225 306.426242,129.993764 C304.471912,132.756303 301.674318,134.888522 298.033375,136.390485 C294.392433,137.892448 290.055492,138.643418 285.022424,138.643418 C277.258649,138.643418 271.20835,136.900094 266.871345,133.413395 C262.534339,129.926695 260.365869,125.045389 260.365869,118.769329 L277.713804,118.769329 C277.713804,123.650709 280.337385,126.091362 285.584626,126.091362 C287.726357,126.091362 289.399559,125.648826 290.604283,124.763741 C291.809007,123.878655 292.411359,122.685149 292.411359,121.183186 C292.411359,120.003072 292.090105,119.07777 291.447585,118.407251 C290.805066,117.736731 289.841302,117.160094 288.556263,116.67732 C287.271224,116.194546 285.209839,115.604498 282.372046,114.907158 C277.660237,113.619761 273.912264,112.386024 271.128014,111.205911 C268.343764,110.025797 266.041437,108.282473 264.220966,105.975887 C262.400494,103.669301 261.490272,100.584959 261.490272,96.7227689 C261.490272,93.1287861 262.427266,89.9773933 264.30128,87.2684958 C266.175295,84.5595983 268.87919,82.4676099 272.413046,80.9924677 C275.946902,79.5173255 280.149986,78.7797655 285.022424,78.7797655 Z M344.969832,137.356028 L328.906929,137.356028 L328.906929,116.435934 L309.310188,80.0671559 L326.979381,80.0671559 L331.476994,90.1248932 C333.725811,95.1671974 335.519484,99.8875816 336.858066,104.286187 L337.018695,104.286187 C338.464363,99.726657 340.284807,95.0062728 342.480082,90.1248932 L346.977694,80.0671559 L364.566572,80.0671559 L344.969832,116.435934 L344.969832,137.356028 Z M377.52999,127.056905 L374.638668,137.356028 L357.692306,137.356028 L376.887474,80.0671559 L397.528304,80.0671559 L416.723472,137.356028 L399.77711,137.356028 L396.885788,127.056905 L377.52999,127.056905 Z M392.227546,110.481754 C390.567704,104.634826 388.934659,98.1979388 387.328361,91.1708979 L387.167732,91.1708979 C385.454347,98.519788 383.79453,104.956676 382.188232,110.481754 L381.063829,114.424387 L393.351949,114.424387 L392.227546,110.481754 Z M455.708792,137.356028 L446.793881,115.389929 C443.741914,107.71919 441.011248,100.316769 438.601801,93.1824454 L438.441172,93.1824454 C438.869518,100.102203 439.083688,107.906929 439.083688,116.596858 L439.083688,137.356028 L423.743616,137.356028 L423.743616,80.0671559 L447.115139,80.0671559 L455.949735,102.033254 C459.055245,109.59671 461.785911,116.999131 464.141815,124.240738 L464.302444,124.240738 C463.874098,115.9263 463.659928,108.121574 463.659928,100.826326 L463.659928,80.0671559 L479,80.0671559 L479,137.356028 L455.708792,137.356028 Z" id="Tigran-Hamasyan" fill="url(#radialGradient-3)" filter="url(#filter-4)"></path>
        </g>
    </g>
</svg>