<?xml version="1.0" encoding="UTF-8"?>
<svg width="782px" height="381px" viewBox="0 0 782 381" version="1.1" xmlns="http://www.w3.org/2000/svg" xmlns:xlink="http://www.w3.org/1999/xlink">
    <!-- Generator: Sketch 46.2 (44496) - http://www.bohemiancoding.com/sketch -->
    <title>Group 2</title>
    <desc>Created with Sketch.</desc>
    <defs>
        <linearGradient x1="50%" y1="-21.5523102%" x2="50%" y2="139.43066%" id="linearGradient-1">
            <stop stop-color="#F03B58" stop-opacity="0.865687274" offset="0%"></stop>
            <stop stop-color="#FC406B" offset="100%"></stop>
        </linearGradient>
        <linearGradient x1="0%" y1="50%" x2="58.6734694%" y2="47.7854056%" id="linearGradient-2">
            <stop stop-color="#FFFFFF" stop-opacity="0.59057971" offset="0%"></stop>
            <stop stop-color="#F7F7F7" offset="57.5653699%"></stop>
            <stop stop-color="#F7F7F7" offset="100%"></stop>
        </linearGradient>
        <linearGradient x1="50%" y1="-39.6210302%" x2="50%" y2="23.1554359%" id="linearGradient-3">
            <stop stop-color="#FCFCFC" stop-opacity="0.254557292" offset="0%"></stop>
            <stop stop-color="#F7F7F7" offset="100%"></stop>
        </linearGradient>
        <linearGradient x1="50%" y1="0%" x2="50%" y2="100%" id="linearGradient-4">
            <stop stop-color="#FCFCFC" offset="0%"></stop>
            <stop stop-color="#F7F7F7" offset="100%"></stop>
        </linearGradient>
    </defs>
    <g id="Page-1" stroke="none" stroke-width="1" fill="none" fill-rule="evenodd">
        <g id="Group-2">
            <path d="M163.398878,305.518427 C163.398878,324.729465 161.292436,338.800497 157.07949,347.731945 C152.360989,357.505981 145.114829,365.426203 135.340792,371.492847 C125.566755,377.55949 113.602165,380.592766 99.4466636,380.592766 C87.1448586,380.592766 76.2334897,378.149294 66.7122296,373.262275 C57.1909695,368.375257 49.6920365,361.213355 44.2152054,351.776353 C38.7383744,342.339352 36,331.133082 36,318.157205 L36,316.893327 L86.807886,316.893327 C87.1449218,324.308114 88.4930446,329.784863 90.8522948,333.323738 C93.2115451,336.862614 96.6661098,338.632025 101.216092,338.632025 C106.103111,338.632025 109.726191,336.904742 112.085441,333.450126 C114.444692,329.995509 115.624299,324.139601 115.624299,315.882225 L115.624299,190 L163.398878,190 L163.398878,305.518427 Z M254.50641,350.006925 L244.648163,377.053909 L193.334726,377.053909 L268.409065,190 L306.072622,190 L380.388635,377.053909 L328.569646,377.053909 L319.469726,350.006925 L254.50641,350.006925 Z M267.650738,312.090592 L306.830949,312.090592 L287.620007,248.391153 L286.86168,248.138377 L267.650738,312.090592 Z M469.221186,231.960742 L404.76342,231.960742 L404.76342,190 L522.809603,190 L522.809603,228.674659 L463.154573,335.093167 L522.809603,335.093167 L522.809603,377.053909 L404.76342,377.053909 L404.76342,345.70974 L469.221186,231.960742 Z M613.411583,231.960742 L548.953817,231.960742 L548.953817,190 L667,190 L667,228.674659 L607.34497,335.093167 L667,335.093167 L667,377.053909 L548.953817,377.053909 L548.953817,345.70974 L613.411583,231.960742 Z" id="Jazz" fill="url(#linearGradient-1)"></path>
            <g id="Group-3">
                <path d="M441.796,39.024 L410.828,148 L386.328,148 L354.968,38.044 L356.144,148 L322.04,148 L322.04,2.96 L369.668,2.96 L398.48,98.412 L427.292,2.96 L475.116,2.96 L475.116,148 L441.012,148 L442.188,39.416 L441.796,39.024 Z M595.936,2.96 L595.936,35.496 L550.856,35.496 L550.856,58.036 L594.564,58.036 L594.564,90.572 L550.856,90.572 L550.856,115.464 L595.936,115.464 L595.936,148 L515.38,148 L515.38,2.96 L595.936,2.96 Z M667.364,149.645495 C667.144297,144.456211 666.853,140.877555 666.490111,138.909529 C665.718387,134.724308 664.559799,131.553195 663.670318,129.944895 C661.26227,125.590824 660.352429,124.181543 658.379313,122.080712 C657.280315,120.910579 654.789669,118.140459 650.928479,116.133464 C647.857376,114.537146 643.677938,113.62814 640.375368,112.921691 C638.261002,112.46941 635.758546,112.46941 632.868,112.921691 L632.868,2.96 L664.816,2.96 L721.264,94.688 L719.696,2.96 L755.172,2.96 L755.172,148 L723.028,148 L667.364,59.408 L667.364,149.645495 Z" id="men" fill="url(#linearGradient-2)"></path>
                <path d="M578.994234,147.66385 C578.994234,136.455124 581.498801,126.312867 586.50801,117.236774 C591.51722,108.160682 598.435777,101.018946 607.263888,95.811352 C616.092,90.6037579 626.011078,88 637.02142,88 C647.5358,88 657.256496,90.5045672 666.1838,95.5137766 C675.111104,100.522986 682.178447,107.342352 687.386041,115.972079 C692.593635,124.601807 695.197393,134.074526 695.197393,144.390522 C695.197393,155.103287 692.668028,164.873578 687.609223,173.70169 C682.550417,182.529802 675.681456,189.497954 667.002132,194.606356 C658.322809,199.714757 648.775696,202.26892 638.360508,202.26892 C628.044513,202.26892 618.348614,199.962734 609.272522,195.350294 C600.196429,190.737854 592.881109,184.265655 587.326342,175.933505 C581.771575,167.601354 578.994234,158.17823 578.994234,147.66385 Z M667.076526,145.283248 C667.076526,139.530096 665.787046,134.148996 663.208047,129.139787 C660.629048,124.130577 657.05818,120.138149 652.495336,117.162381 C647.932492,114.186613 642.774571,112.698751 637.02142,112.698751 C631.268268,112.698751 626.135145,114.161815 621.621897,117.087987 C617.108649,120.014159 613.562579,123.932194 610.98358,128.842212 C608.404581,133.752229 607.115101,139.083733 607.115101,144.836885 C607.115101,150.887613 608.404581,156.392701 610.98358,161.352315 C613.562579,166.311928 617.158244,170.254761 621.770685,173.180933 C626.383125,176.107105 631.615439,177.570169 637.467783,177.570169 C643.121742,177.570169 648.205269,176.107105 652.718517,173.180933 C657.231765,170.254761 660.753038,166.336726 663.282441,161.426708 C665.811844,156.516691 667.076526,151.135591 667.076526,145.283248 Z M781.111637,90.0830272 L781.111637,114.781778 L747.93199,114.781778 L747.93199,133.529023 L779.921336,133.529023 L779.921336,158.227774 L747.93199,158.227774 L747.93199,200.185893 L721.001424,200.185893 L721.001424,90.0830272 L781.111637,90.0830272 Z" id="of" fill="url(#linearGradient-3)"></path>
                <path d="M92.708,54.116 L70.952,148 L37.436,148 L0,2.96 L37.632,2.96 L57.036,97.236 L57.428,97.236 L78.792,2.96 L107.212,2.96 L128.184,97.628 L128.576,97.628 L148.372,2.96 L185.808,2.96 L147.392,148 L114.856,148 L93.1,54.116 L92.708,54.116 Z M206.08,78.812 C206.08,64.0465928 209.3793,50.6860598 215.978,38.73 C222.5767,26.7739402 231.690609,17.3660343 243.32,10.506 C254.949391,3.6459657 268.015927,0.216 282.52,0.216 C296.370736,0.216 309.175941,3.51530034 320.936,10.114 C332.696059,16.7126997 342.005966,25.6959432 348.866,37.064 C355.726034,48.4320568 359.156,60.9105987 359.156,74.5 C359.156,88.6120706 355.824033,101.482609 349.16,113.112 C342.495967,124.741391 333.44739,133.920633 322.014,140.65 C310.580609,147.379367 298.004069,150.744 284.284,150.744 C270.694599,150.744 257.92206,147.70603 245.966,141.63 C234.00994,135.55397 224.37337,127.028055 217.056,116.052 C209.73863,105.075945 206.08,92.6627359 206.08,78.812 Z M322.112,75.676 C322.112,68.0972954 320.41335,61.0086997 317.016,54.41 C313.61865,47.8113003 308.914697,42.5520196 302.904,38.632 C296.893303,34.7119804 290.098705,32.752 282.52,32.752 C274.941295,32.752 268.179363,34.6793141 262.234,38.534 C256.288637,42.3886859 251.61735,47.5499677 248.22,54.018 C244.82265,60.4860323 243.124,67.5092954 243.124,75.088 C243.124,83.0587065 244.82265,90.310634 248.22,96.844 C251.61735,103.377366 256.35397,108.571314 262.43,112.426 C268.50603,116.280686 275.398628,118.208 283.108,118.208 C290.556037,118.208 297.252637,116.280686 303.198,112.426 C309.143363,108.571314 313.781983,103.410032 317.114,96.942 C320.446017,90.4739677 322.112,83.3853719 322.112,75.676 Z" id="wo" fill="url(#linearGradient-4)"></path>
            </g>
        </g>
    </g>
</svg>