<?xml version="1.0" encoding="UTF-8"?>
<svg width="119px" height="69px" viewBox="0 0 119 69" version="1.1" xmlns="http://www.w3.org/2000/svg" xmlns:xlink="http://www.w3.org/1999/xlink">
    <!-- Generator: Sketch 46.2 (44496) - http://www.bohemiancoding.com/sketch -->
    <title>ararat-logo copy</title>
    <desc>Created with Sketch.</desc>
    <defs>
        <polygon id="path-1" points="17.9817642 18.9722125 17.9817642 0.2472375 0.232228381 0.2472375 0.232228381 18.9722125 17.9817642 18.9722125"></polygon>
    </defs>
    <g id="posters" stroke="none" stroke-width="1" fill="none" fill-rule="evenodd">
        <g id="ararat-logo-copy">
            <path d="M54.0951561,16.8632788 C54.6774306,17.3102128 55.1734946,17.5 55.1734946,17.5 C54.5733184,15.2958137 54.9214583,14.1123481 55.0189751,13.7342488 C55.1160209,13.3600829 55.5442471,12.1569502 56.2362869,11.4745031 C56.231576,11.4799115 55.5988942,11.144588 55.3025749,10.5 L53.2236287,16.0318536 C53.2236287,16.0318536 53.4624743,16.3770106 54.0951561,16.8632788" id="Fill-1" fill="#FFFFFF"></path>
            <path d="M56.5297914,9.41348429 C56.8328825,9.53674407 57.0946872,9.54685522 57.2384612,9.55985528 C57.8291003,9.61715182 58.3706814,9.45778077 58.9001194,9.33500248 C58.9001194,9.33500248 59.7287627,9.12218676 60.2319717,9.1794833 C60.7944389,9.24544654 61.3821636,9.44911407 61.6667973,9.81552303 C61.9674598,9.80156001 62.0650901,9.85885655 62.0650901,9.85885655 L62.1088052,10.0601167 C62.2292645,10.3027844 62.38081,10.3629698 62.38081,10.3629698 L62.7732742,10.5700077 C63.1637954,10.8054531 63.3410843,11.2585291 63.3741134,11.6822346 C63.3711991,11.6783828 63.4027711,12.1979035 63.283769,12.7029797 C63.2589971,12.8122765 63.2143106,12.8349062 62.9350199,12.6403868 C62.5945281,12.4049414 61.8678866,12.3731635 61.3486488,12.4280526 C61.3486488,12.4280526 60.8478684,12.4863121 60.4146035,12.6403868 C60.1566846,12.7318687 59.6238466,12.9803142 59.5315592,13.5335388 C59.4718153,13.891281 59.5490452,14.3669867 59.6238466,14.6038766 C59.8186215,15.1980273 60.7351807,16.0199197 60.8891548,16.1701425 C61.2942478,16.5707368 61.6561114,17.0137016 61.9621168,17.5 C62.0626615,17.4845925 62.2472362,17.4436664 62.2472362,17.4436664 C63.2536541,17.2327766 64.072583,16.4961069 64.072583,16.4961069 C64.072583,16.4961069 64.7661954,15.878845 65.2742616,15.0949898 L59.0895513,0 C59.0895513,0 55.7395202,8.50107302 55.7341772,8.49144335 C56.0552401,9.11063116 56.2558437,9.3051505 56.5297914,9.41348429" id="Fill-3" fill="#FFFFFF"></path>
            <path d="M69.9182016,27.4707046 C69.9182016,27.4707046 68.4348729,28.5646901 66.3658844,28.551267 C64.373144,28.5181566 62.5361741,27.2568293 62.0983325,27 L55.4872055,27.0026846 C54.0160392,28.385715 52.2066682,28.7987001 51.0390907,28.7987001 C49.9145489,28.7987001 48.8213484,28.5181566 47.7309545,27.932013 L44.185654,36.5 L51.687433,36.5 L52.7156123,33.9281274 C52.7156123,33.9281274 51.4844168,33.2077524 51.5634715,32.2717125 C51.7959579,32.2041494 53.01733,32.0869207 53.5042884,31.2430529 C53.5683742,31.1329832 53.7858917,30.8327524 53.8757053,30.4788291 L63.9184623,30.4788291 C64.1308342,31.2403683 64.580838,31.51599 64.8151955,31.6305341 C65.0387941,31.7414987 65.5720627,31.8896006 66.0707156,31.8506735 C66.0707156,31.8506735 66.3317365,32.7021477 65.2979439,33.4967973 C65.2656671,33.5249859 66.4182757,36.4619678 66.4182757,36.4619678 L73.8101266,36.4619678 L69.9182016,27.4707046 Z" id="Fill-5" fill="#FFFFFF"></path>
            <path d="M69.79827,20 C69.7952574,20.0025 69.7952574,20.0025 69.7932489,20.0055 C69.7932489,20.0025 69.7952574,20.0015 69.79827,20" id="Fill-7" fill="#FFFFFF"></path>
            <polygon id="Fill-9" fill="#FFFFFF" points="60.2531646 11.0015 60.2531646 11.0015 60.2531646 11"></polygon>
            <path d="M59.9594006,11.0404651 C60.0510456,11.0356102 60.1079124,10.9501636 60.1802885,10.928802 C60.4462939,10.8501523 60.774336,11.0928983 60.7517772,11.3676867 C60.553918,11.4191488 60.3579388,11.4934291 60.1680692,11.3958452 C60.0933432,11.314768 60.0092178,11.2647624 59.914283,11.2021339 C59.8400271,11.1443604 59.6985649,11.0739641 59.7253534,10.9836626 C59.7826902,10.9739527 59.8846747,11.047262 59.9594006,11.0404651 M45.5593888,22.9646313 C45.7454986,23.1816462 45.9071698,23.37293 46.1308775,23.5855754 C46.6252905,24.0069824 46.9209043,24.2764304 47.1892596,24.4531494 C47.6709832,24.7818274 48.1080593,25.1100199 48.7387648,25.3702436 C48.7768327,25.3857793 48.9479033,25.4552047 49.0747964,25.5052103 C49.1537521,25.5372528 49.1396528,25.6091056 49.0893656,25.6037652 C48.880697,25.58386 48.3562057,25.4552047 48.1653962,25.4027715 C47.5572495,25.2279945 47.0774057,25.0270008 46.7268049,24.867274 C46.0913997,24.5774353 45.2614251,23.9608606 44.9390228,23.6448054 C44.8882655,23.5996547 44.8389182,23.5957707 44.844088,23.6525733 C44.8638269,23.88124 44.9460724,24.2104035 44.9582917,24.2570107 C45.1843493,25.1012811 45.7187101,25.6989216 46.3245069,26.1916958 C46.9110348,26.6611665 47.6033069,27.0354807 48.4140126,27.2486117 C49.5659195,27.556899 50.3883745,27.5544716 50.5223171,27.556899 C50.9772522,27.5724348 51.3725006,27.5170887 51.3772004,27.5389358 C51.3865998,27.5826301 51.3024744,27.6064192 51.1986101,27.6389471 C50.872448,27.7311906 50.3738053,27.8302309 49.9489485,27.8671283 C49.5856584,27.8991708 49.2134388,27.9098516 48.8853968,27.9185905 C48.7838823,27.9224744 48.5625244,27.9098516 48.1531768,27.8632444 C48.0530723,27.8530491 47.8124455,27.8185791 47.785187,27.8132387 C47.6827326,27.7904206 47.4867533,27.7481828 47.4674844,27.7773123 C47.4176671,27.8622734 47.5342207,27.9671397 47.6089466,28.0341375 C48.3167279,28.6565381 49.0794961,29.0031793 49.4488959,29.1245523 C49.8991313,29.2735983 50.3465468,29.4313832 50.8108814,29.4789614 C51.0021609,29.4978956 51.2108295,29.5017795 51.3917696,29.499352 C52.279081,29.4877002 53.0390294,29.2313605 53.7073328,28.8856903 C53.9310406,28.7706287 54.1716674,28.5963371 54.4569418,28.4152487 C55.6271777,27.6850689 56.7104684,24.3186682 56.3302592,24.7264813 C54.3483777,27.3787235 50.8282704,27.0247999 50.9025263,26.6791297 C52.2438329,26.26986 54.7553754,24.4953872 53.1457135,24.984763 C49.484144,26.1251835 46.4269613,22.9918188 48.2095737,23.6516023 C50.5350065,24.4725691 53.5179332,22.9316178 52.3185588,22.9107417 C48.771193,22.9316178 47.1615311,20.3104472 48.1893649,20.8095328 C50.0702019,21.8499419 53.3496824,20.9891648 52.4778801,20.7838017 C52.0356343,20.6799065 51.0867563,20.3575399 49.7797578,18.8078498 C47.072236,15.5987484 49.0625771,10.9419103 49.2928644,11.3434121 C49.2562065,12.5032522 49.2505668,16.9013232 52.6888986,18.8695072 C54.5119288,19.8560268 55.8729743,20.3230699 55.7766295,20.708065 C55.1849319,20.8338074 54.5786651,21.037714 54.3652968,21.4765987 C54.2962106,21.6280721 55.7042535,21.3557112 55.9082223,21.8115881 C55.9523999,21.9077155 54.598404,22.1368676 54.3107798,23.1918415 C54.1566282,23.5394537 55.1181956,22.8549101 56.1714079,22.8549101 C56.4844108,22.8549101 55.2723471,23.5564459 55.1384045,24.3662464 C55.0613287,24.7007503 56.6606511,23.8525959 57.4976753,23.8292923 C57.0902076,25.5824035 56.2108858,27.4991255 56.2108858,27.4991255 L61.7504725,27.4991255 C61.7504725,27.4991255 61.3603939,26.7111722 61.0027435,25.854279 C60.6051452,24.8983455 60.2550144,23.848712 60.3071815,23.8001628 C60.5205499,23.6418925 62.5202904,24.8522237 62.3985671,24.3400298 C62.2101074,23.5384827 60.7870253,22.7723765 61.4102112,22.8146143 C62.4577838,22.890351 63.4372102,23.5855754 63.2501604,23.1355244 C62.8309434,22.0630729 61.5314645,21.8975201 61.6155899,21.7368223 C61.8491671,21.2799745 63.3897428,21.8679051 63.1961134,21.4212526 C62.8957998,20.9367317 62.3435801,20.8512851 61.595851,20.708065 C61.4919867,20.6886453 61.5117256,20.5794097 61.5883314,20.4706595 C61.8914648,20.0342023 63.6750172,19.4147146 65.1784649,18.5680168 C68.6807132,16.5944923 68.4527757,12.5032522 68.4151777,11.3434121 C68.6238463,10.9020999 70.6649446,15.6244795 67.9282844,18.8078498 C66.5521997,20.4104585 65.7147055,20.6847614 65.2282822,20.7838017 C64.35366,20.9644047 67.6406601,21.8499419 69.5177374,20.8095328 C70.4623857,20.352685 68.9368492,22.9316178 65.3923032,22.9107417 C64.190109,22.9316178 67.1730357,24.4725691 69.5012883,23.6516023 C71.2820208,22.9918188 68.2234282,26.1251835 64.5623286,24.984763 C62.9526667,24.4953872 65.4670291,26.26986 66.802696,26.6791297 C66.8797718,27.0247999 63.4541293,27.3913463 61.4694279,24.7381331 C61.084519,24.3555655 62.0413866,26.8922606 62.9832151,27.6622508 C63.3601344,27.9685961 63.7281243,28.2137695 63.8221191,28.2700866 C64.006349,28.3754383 64.6995611,28.7104277 64.7658275,28.7371298 C65.6526689,29.0876549 66.6908421,29.3517625 67.6998769,29.1604787 C68.2187285,29.0643513 68.7375801,28.8720965 68.9885463,28.7662593 C69.1149694,28.7128552 69.2644212,28.6521687 69.3837947,28.5895403 C69.6244215,28.45603 69.8960667,28.3098969 70.1019154,28.1574525 C70.4999836,27.8661573 70.7777384,27.5952529 70.8839526,27.4797058 C70.9690179,27.3898898 71.0282347,27.2787122 70.9412894,27.2947334 C70.9018116,27.3015303 70.437007,27.4719379 69.5708445,27.5258275 C69.4580506,27.5350519 69.2512619,27.5403923 69.0910007,27.5428198 C68.9368492,27.5476747 68.3428017,27.5476747 68.0030103,27.4874737 C67.7464043,27.4452359 67.3647852,27.3335728 67.3817043,27.287451 C67.3990933,27.2486117 67.5100073,27.2724008 67.5927227,27.2641474 C67.7661432,27.2539521 67.9231146,27.2500681 68.0730364,27.2359889 C69.1257788,27.1257822 69.8081815,26.8883767 70.0520981,26.7932203 C70.1465629,26.7548664 70.2950748,26.692238 70.38249,26.6495147 C70.8914722,26.4121092 71.2820208,26.1994637 71.7120472,25.8644743 C71.9916819,25.6503724 72.2473479,25.3974311 72.4616562,25.1294396 C72.722022,24.7993051 72.9856775,24.3759562 73.1355993,23.9477524 C73.2244245,23.6884997 73.2911608,23.3714735 73.3217091,23.0151224 C73.3287588,22.9340453 73.2939807,22.9291904 73.2093853,23.010753 C73.0354948,23.2010658 72.6623352,23.5423666 72.5260427,23.6486894 C72.409959,23.7399618 72.3502723,23.7817141 72.2036403,23.8768705 C71.7830134,24.1492315 70.8618638,24.7225974 69.3993038,25.1279831 C69.3288077,25.1459463 69.2644212,25.0507899 69.4011837,24.985734 C69.4481812,24.9624304 69.4932987,24.9430107 69.5102178,24.9357283 C69.6794085,24.8420284 69.9750223,24.6750192 70.0520981,24.6240425 C70.1865108,24.5381105 70.6080777,24.2439024 70.74813,24.1375797 C71.1574776,23.8205535 71.4479217,23.5705252 71.880298,23.1442633 C72.0786272,22.949581 72.2731965,22.7349936 72.4738755,22.4922477 C72.5829096,22.3601939 72.7173222,22.174736 72.8319959,22.0208351 C73.0176358,21.7640099 73.2939807,21.1930714 73.3625969,21.0391705 C73.5693856,20.5808661 73.7531455,19.9239956 73.8006129,19.2981966 C73.8325712,18.8923254 73.7780542,18.4830557 73.725417,18.1650585 C73.7178974,18.1213643 73.6741898,18.0898073 73.6445815,18.1602036 C73.4424925,18.6908462 73.159098,19.1622589 72.8592545,19.5569638 C72.7375311,19.7137776 72.5876093,19.8778739 72.4616562,20.0060437 C72.21069,20.2614125 71.9846323,20.4541528 71.7120472,20.677479 C71.1250494,21.1624854 70.4642655,21.607196 70.3058842,21.7023524 C70.144683,21.8038202 70.0812365,21.7023524 70.1691217,21.6086525 C70.2485474,21.5266043 70.4896442,21.3032781 70.5906886,21.1853035 C70.6875033,21.0789808 70.8017071,20.9425576 70.9412894,20.7862292 C71.606773,20.0240069 71.954554,19.4156856 72.1980006,18.9641782 C72.6082882,18.1932171 73.0232755,17.0998893 73.0876619,16.0288942 C73.1196202,15.4924257 73.0773225,14.8957562 72.9335104,14.3889027 C72.8766435,14.18888 72.7901682,13.978662 72.6872439,13.7679585 C72.6256772,13.6397887 72.5504814,13.5358934 72.4893847,13.4218028 C72.3502723,13.1805134 71.990272,12.6940505 71.8878176,12.7382302 C71.8173215,12.7673598 71.936695,13.5844426 71.8004024,14.4034674 C71.7261465,14.8675976 71.6199323,15.3064823 71.4925693,15.6953613 C71.3905848,16.010931 71.259462,16.3366961 71.1175298,16.6241073 C70.9779474,16.9105475 70.601498,17.6989863 70.3608712,18.0548519 C70.2457275,18.2228321 70.1244741,18.4228547 69.9947612,18.5952043 C69.8556489,18.7782348 69.6422805,19.0336035 69.4810794,19.1787656 C69.4213926,19.2336262 69.2916797,19.3389779 69.2569016,19.3161598 C69.2249434,19.2918852 69.2771105,19.181193 69.3245779,19.1098257 C69.3758051,19.0297196 69.542646,18.7447358 69.6638994,18.5350033 C69.9162755,18.0985461 70.1136647,17.6310175 70.3232733,17.0358044 C70.6282866,16.1570641 70.8961719,15.1690881 70.9093312,14.0888687 C70.9239004,13.6461001 70.8895923,12.875139 70.7359107,12.0400929 C70.6907931,11.8026874 70.6254667,11.6026647 70.5436912,11.3730271 C70.456746,11.1288246 70.2659364,10.6734333 70.1667718,10.4680702 C70.054448,10.239889 69.9595132,10.0704523 69.8260405,9.83693075 C69.7494347,9.70244949 69.1751261,8.85138222 68.7728281,8.45279339 C67.9578927,7.64687686 67.2350723,7.11574874 67.2111036,7.09632906 C66.9747066,6.92203748 66.2213378,6.43169067 65.9459329,6.26662343 C65.7471338,6.14816341 65.4557497,5.9932915 65.0290131,5.66946841 C64.9049399,5.5747975 64.7277596,5.38108624 64.5895871,5.17183923 C64.3837384,4.86403738 64.391258,4.62905931 64.3014929,4.51982363 C64.2700046,4.4858392 64.2488558,4.4979765 64.2422761,4.53778683 C64.1402917,5.15630349 64.3663493,5.93503248 64.5820675,6.30740475 C65.4985174,7.90855698 66.5521997,9.44125486 66.8153853,11.7420009 C67.0466126,13.7616471 65.8589876,15.7016727 65.8063505,15.7846918 C65.7222251,15.9186876 65.1714153,16.9013232 64.2864537,17.6072283 C63.7300042,18.0548519 63.2713093,18.3806169 62.3163216,18.6384131 C62.2989325,18.6437535 61.5192452,18.8685363 61.4050414,18.617537 C61.1836836,18.1267047 60.7320383,17.565476 60.2000274,17.0183267 C59.6139695,16.4138893 59.1505748,15.9890839 58.9165277,15.2909466 C58.7670758,14.8535184 58.7130288,14.249081 58.8023239,13.7936896 C58.9583554,13.0635098 59.5242044,12.5697646 60.2033172,12.3221637 C60.2348055,12.3105119 60.3118813,12.2886648 60.3443095,12.2794404 C61.0892187,12.0910696 61.6583576,12.151756 61.8651463,12.1721467 C62.0305772,12.1886534 62.2242066,12.2080731 62.3661388,12.2794404 C62.4681232,12.3299316 62.5404993,12.4192621 62.5748074,12.4182911 C62.6077056,12.4173201 62.5846769,12.3080844 62.5804471,12.2580788 C62.5550685,12.0017391 62.4512042,11.7216102 62.2397158,11.5997518 C62.1654598,11.55363 62.1010733,11.5356668 62.0014388,11.4934291 C61.9168434,11.4123519 61.79747,11.3584623 61.7626919,11.3356442 C61.632039,11.2482557 61.6090103,11.0754205 61.5018561,10.9632719 C61.4590885,10.9341424 61.3998717,10.9195776 61.3307855,10.9312295 C61.2913077,10.9559895 61.211412,10.9982273 61.1836836,10.958417 C61.1221169,10.838986 61.0793493,10.7059612 60.9905241,10.629739 C60.6873907,10.3709718 60.1953277,10.3117418 59.9941787,10.3117418 C59.6637868,10.3117418 59.276058,10.3860221 59.1693738,10.4170935 C58.5508877,10.6015805 57.9399211,10.7724736 57.2265002,10.7122726 C56.5708861,10.6554701 56.1563687,10.5345826 55.8264468,10.1306533 C55.7564206,10.0461777 55.694384,9.89082035 55.6694754,9.90004469 C55.6516164,9.9175224 55.6323474,10.0398664 55.6375171,10.1180305 C55.6741751,10.5632266 55.9951676,10.8719994 56.297831,11.0632832 C56.5962647,11.2482557 57.0060822,11.314768 57.2199205,11.3341877 C57.3139154,11.3434121 57.375482,11.3497235 57.4083802,11.4021566 C57.4722967,11.5070228 57.3181452,11.6060632 57.2565785,11.6521849 C56.7701551,12.0017391 56.260703,12.6765728 56.0835227,12.9125218 C55.933131,13.174202 55.7366817,13.4266577 55.4556371,14.5112466 C55.3564725,14.8957562 55.347073,15.4875708 55.3865509,15.9764611 C55.4011201,16.1662884 55.4316684,16.3818468 55.4706763,16.5842969 C55.5830001,17.208154 55.7644102,17.8033671 55.95005,18.3267273 C55.9899979,18.4354775 56.042165,18.5733572 55.9749587,18.6689991 C55.8635748,18.8384358 55.5501019,18.732113 55.2822166,18.6588038 C54.6834694,18.497135 54.0353748,18.1267047 53.5874894,17.808222 C52.8430501,17.2814633 52.3185588,16.5473996 52.1427884,16.2750386 C51.5562606,15.4152325 51.364981,14.8588588 51.3226833,14.7520506 C51.0745369,14.1466422 50.8108814,13.3470371 50.7977221,12.5323817 C50.7887926,11.6449025 50.9203854,10.8749124 51.1558425,10.0398664 C51.2253987,9.80003336 51.3349027,9.5228175 51.4171482,9.30094771 C51.5257122,8.99897176 51.657305,8.7091331 51.7823182,8.43725765 C51.8838326,8.21150392 52.1545378,7.70950531 52.2913003,7.43374592 C52.4548514,7.10264046 52.6038332,6.84338779 52.7683242,6.45742174 C52.9445646,6.04523913 53.0813271,5.54129856 53.0615882,4.97181658 C53.0587683,4.91258657 53.0535986,4.76014212 53.0244602,4.69217325 C53.0216403,4.67032612 52.9746429,4.65090644 52.9492643,4.70479604 C52.8895776,4.82034311 52.882528,4.92812231 52.8430501,5.04609684 C52.7579848,5.29515417 52.588794,5.52819028 52.4501516,5.6825767 C52.3213787,5.81899992 52.1451383,5.98018322 52.0252949,6.06611528 C51.8067568,6.22292916 51.4989237,6.42780674 51.3001246,6.55743307 C50.8433096,6.85795255 50.3705155,7.24537507 50.2487921,7.34878484 C49.6603843,7.8716596 49.1810106,8.2906391 48.6546394,8.91935109 C48.6692086,8.9004169 47.8674325,9.81654009 47.3725496,10.9836626 C46.9528625,11.976008 46.8287893,12.8586322 46.8085804,13.3960717 C46.798711,13.6461001 46.7968311,13.918461 46.798711,14.1325629 C46.798711,14.30734 46.8062306,14.4495891 46.81657,14.6292211 C46.8692071,15.4875708 47.0571968,16.2857194 47.3528106,17.0280365 C47.4124974,17.1809665 47.6958919,17.9417323 47.8368841,18.2087528 C48.0610619,18.6821074 48.3468062,19.1171081 48.6377203,19.514726 C48.6771981,19.5715285 48.771193,19.664743 48.7288953,19.7137776 C48.6992869,19.7443636 48.5427855,19.6458088 48.4478507,19.5637606 C48.2974589,19.4287939 48.1456572,19.2918852 47.9788164,19.1054563 C47.7255002,18.8243565 47.4999126,18.5024754 47.2940639,18.1776813 C46.6403296,17.1746551 46.1007992,16.0327782 45.8747415,14.6059175 C45.7981357,14.1374179 45.8451332,13.2853796 45.7906162,13.2703294 C45.7036709,13.2470257 45.4997021,13.5475452 45.4005375,13.679599 C45.1970386,13.978662 44.9733309,14.3927866 44.8567773,14.8151645 C44.7002758,15.3783351 44.6725474,16.0905517 44.7444534,16.7153798 C44.8266989,17.4081767 45.0424171,18.0499969 45.2590753,18.5952043 C45.3305113,18.7811477 45.8926006,19.7560154 46.2150029,20.2089794 C46.4640893,20.5517366 46.7413741,20.8891535 47.0247686,21.1853035 C47.089625,21.2508449 47.4721841,21.6411804 47.6738031,21.8140155 C47.8326544,21.9543227 48.1230985,22.1795909 48.1625763,22.2130899 C48.2396521,22.2742618 48.0855005,22.3364048 47.876362,22.2232852 C47.7236203,22.1412371 47.5939074,22.0548195 47.4571449,21.9708294 C47.2710351,21.8562533 47.1126538,21.7509016 46.908685,21.6164203 C46.3395461,21.2464755 45.7807467,20.8027359 45.2933834,20.3012228 C45.2717646,20.2769482 44.5663332,19.540457 44.3101972,18.8500876 C44.2975079,18.8156176 44.2354713,18.7743508 44.2204321,18.8631959 C44.1908237,19.061762 44.185654,19.3239277 44.185654,19.4598654 C44.185654,19.7278569 44.203513,19.9715738 44.2453407,20.2254861 C44.2975079,20.5410558 44.3741137,20.8425463 44.4742182,21.1226751 C44.6307196,21.5741825 44.8464378,21.9319901 45.0504067,22.2694069 C45.2741144,22.6068238 45.5593888,22.9646313 45.5593888,22.9646313" id="Fill-11" fill="#FFFFFF"></path>
            <path d="M59.2545899,35.0951206 C59.2091294,35.0951206 58.9074802,34.7635751 58.6337702,34.1453864 C58.5016507,33.8775394 58.413571,33.3825707 58.3861053,33.3731726 C58.3486951,33.3867477 58.2104194,33.700019 58.0584109,33.8900702 C57.8505239,34.1594836 57.6431105,34.293146 57.5048348,34.3594551 C57.6222744,33.8984242 57.683362,33.2750142 57.7127218,32.7461078 C57.7255076,32.5325612 57.7558146,32.1336624 57.6999361,32.1294855 C57.5654488,32.2772451 56.9815657,32.8296469 56.2442535,33.1152459 C56.1031366,33.1658914 55.6802594,33.2875451 55.392343,33.2802354 C55.5528753,33.146573 55.7479766,32.9450351 55.8928819,32.7795234 C56.0690412,32.5779856 56.3361216,32.2704576 56.4938126,32.0057433 L54.7142241,32 C54.3964743,32.4840042 53.8310595,33.4833397 52.7291164,33.5647902 C52.6514547,33.6415417 53.1775651,34.3803399 53.9238747,34.4753655 C54.2037408,34.5108696 54.4618237,34.5218341 54.7918858,34.4696222 C55.5708701,34.3390925 56.4038388,33.8874597 56.5866278,33.7663281 C56.6216702,34.0712455 56.4815004,34.7776723 56.396262,35.0951206 C56.2759812,35.6235048 56.0908244,35.9336434 56.0458375,36.0552971 C56.0633587,36.2014904 56.7092764,36.1612873 56.9720948,36.0218815 C57.5171471,35.7958041 57.8050635,35.4673913 57.9381301,35.3446934 C58.0281039,35.6151509 58.2786102,36.1905259 58.5063861,36.5575755 C58.7119054,36.8912094 59.1598806,37.5 59.2545899,37.5 C59.3469315,37.5 59.7878035,36.8912094 59.9928492,36.5575755 C60.218731,36.1905259 60.4716049,35.6151509 60.5615788,35.3446934 C60.6913306,35.4673913 60.9787735,35.7958041 61.5271405,36.0218815 C61.7880648,36.1612873 62.4354031,36.2014904 62.4505566,36.0552971 C62.4060432,35.9336434 62.2208865,35.6235048 62.1006056,35.0951206 C62.0158407,34.7776723 61.8780386,34.0712455 61.9102398,33.7663281 C62.0953966,33.8874597 62.9241033,34.3390925 63.7101908,34.4696222 C64.0374116,34.5218341 64.2931268,34.5108696 64.5734665,34.4753655 C65.3211967,34.3803399 65.8444658,33.6415417 65.7691719,33.5647902 C64.6681758,33.4833397 64.0999198,32.4840042 63.7821699,32 L62.0044756,32.0057433 C62.1626402,32.2704576 62.4287735,32.5779856 62.6082477,32.7795234 C62.7507852,32.9450351 62.9458865,33.146573 63.1035775,33.2802354 C62.8194495,33.2875451 62.3956252,33.1658914 62.2549818,33.1152459 C61.5153019,32.8296469 60.933313,32.2772451 60.7988257,32.1294855 C60.7438943,32.1336624 60.77136,32.5325612 60.7836722,32.7461078 C60.8163469,33.2750142 60.8736461,33.8984242 60.9939269,34.3594551 C60.8542307,34.293146 60.6458701,34.1594836 60.4389302,33.8900702 C60.2878688,33.700019 60.1510138,33.3867477 60.1107623,33.3731726 C60.0851908,33.3825707 59.9985318,33.8775394 59.8654652,34.1453864 C59.5903345,34.7635751 59.3000504,35.0961648 59.2545899,35.0951206" id="Fill-13" fill="#FFFFFF"></path>
            <path d="M7.73229652,61.6012616 L10.6002545,54.0189613 L13.6828512,61.6012616 L7.73229652,61.6012616 Z M10.5853022,43 L10.4627893,43.2975134 L0,69 L4.84118646,68.9899875 L6.23079074,65.5108927 L15.2682831,65.5108927 L16.8006582,68.9923715 L21.5907173,68.9957089 L10.5853022,43 Z" id="Fill-15" fill="#FFFFFF"></path>
            <path d="M48.9041191,61.6012616 L51.7723032,54.0189613 L54.8541421,61.6012616 L48.9041191,61.6012616 Z M51.7597636,43 L51.637744,43.2975134 L41.1729958,69 L46.0233955,68.9899875 L47.4186631,65.5108927 L56.4244813,65.5108927 L57.9562373,68.9923715 L62.7637131,68.9957089 L51.7597636,43 Z" id="Fill-17" fill="#FFFFFF"></path>
            <path d="M32.7446631,60.0597546 L28.3173028,60.0597546 L28.3173028,54.2492427 L32.7218048,54.237731 C35.2843116,54.237731 36.3310297,55.0651318 36.3310297,57.1357922 C36.3310297,59.5954509 35.0671581,60.0597546 32.7446631,60.0597546 M40.101691,52.3498182 C38.883536,50.9650611 36.8096246,50.001439 33.4389829,50.0057558 L23.0970464,50 L23.0970464,69 L28.3296843,69 L28.3296843,64.2567151 L33.4518407,64.2250581 C35.3400286,64.2250581 37.3863196,64.0307987 38.9763977,63.0388771 C40.5721903,62.0483944 41.6774827,60.2482581 41.6751016,57.1357922 C41.6751016,55.5217611 41.3203223,53.736494 40.101691,52.3498182" id="Fill-19" fill="#FFFFFF"></path>
            <path d="M90.0771149,61.6012616 L92.9443344,54.0189613 L96.0247264,61.6012616 L90.0771149,61.6012616 Z M92.9298656,43 L92.8092929,43.2975134 L82.3459916,69 L87.2021788,68.9899875 L88.5940703,65.5108927 L97.6023,65.5108927 L99.1316445,68.9923715 L103.936709,68.9957089 L92.9298656,43 Z" id="Fill-21" fill="#FFFFFF"></path>
            <g id="Group-25" transform="translate(100.924051, 50.000000)">
                <mask id="mask-2" fill="white">
                    <use xlink:href="#path-1"></use>
                </mask>
                <g id="Clip-24"></g>
                <polygon id="Fill-23" fill="#FFFFFF" mask="url(#mask-2)" points="0.232228381 0.2472375 0.232228381 4.3821125 6.73624037 4.3821125 6.73624037 18.9722125 11.4726148 18.9722125 11.4726148 4.3821125 17.9818593 4.3821125 17.9818593 0.2472375"></polygon>
            </g>
            <path d="M74.4221587,60.0597546 L69.9898134,60.0597546 L69.9898134,54.2492427 L74.3945369,54.237731 C76.96003,54.237731 78.0096581,55.0651318 78.0096581,57.1357922 C78.0096581,59.5954509 76.7461992,60.0597546 74.4221587,60.0597546 M81.7776517,52.3498182 C80.5599116,50.9650611 78.4868484,50.001439 75.1146085,50.0057558 L64.7721519,50 L64.7721519,69 L69.9798124,69 L69.9798124,64.2567151 L75.1269906,64.2250581 C77.0152736,64.2250581 79.0616675,64.0307987 80.6523017,63.0388771 C82.2486509,62.0483944 83.3559038,60.2482581 83.350189,57.1357922 C83.350189,55.5217611 82.9963443,53.736494 81.7776517,52.3498182" id="Fill-26" fill="#FFFFFF"></path>
        </g>
    </g>
</svg>